<mxfile host="app.diagrams.net" modified="2022-01-31T11:48:30.862Z" agent="5.0 (X11; Linux x86_64) AppleWebKit/537.36 (KHTML, like Gecko) Chrome/97.0.4692.71 Safari/537.36" etag="0wBHu7DwDkAbFbotIG8b" version="16.5.2" type="github">
  <diagram id="MaC3LtHn6sOUG62lfnj4" name="Page-1">
    <mxGraphModel dx="2062" dy="1130" grid="1" gridSize="10" guides="1" tooltips="1" connect="1" arrows="1" fold="1" page="1" pageScale="1" pageWidth="850" pageHeight="1100" math="0" shadow="0">
      <root>
        <mxCell id="0" />
        <mxCell id="1" parent="0" />
        <mxCell id="f9k1bi6KLL07Mat2R_Er-6" value="" style="edgeStyle=orthogonalEdgeStyle;rounded=0;orthogonalLoop=1;jettySize=auto;html=1;" edge="1" parent="1" source="f9k1bi6KLL07Mat2R_Er-1">
          <mxGeometry relative="1" as="geometry">
            <mxPoint x="410" y="880" as="targetPoint" />
          </mxGeometry>
        </mxCell>
        <mxCell id="f9k1bi6KLL07Mat2R_Er-1" value="" style="shape=image;verticalLabelPosition=bottom;labelBackgroundColor=default;verticalAlign=top;aspect=fixed;imageAspect=0;image=data:image/png,iVBORw0KGgoAAAANSUhEUgAAAggAAAGxCAYAAAAH0U5DAAAAAXNSR0IArs4c6QAAIABJREFUeF7sXQd01MX2/ra39N4rSYAQehcQFRsISLGLvft89vJ86lOw8rehPrvP3sVeEBFUpPcOgZBCes+WbN/9nzvLhgTS2RTInXP2JLs79ZvZ3/3m3jt3JFPG/dMNTowAI8AIMAKMACPACDRCQLJx/V4mCLwkGAFGgBFgBBgBRqAJApJ6s5UJAi8KRoARYAQYAUaAEWCCwGuAEWAEGAFGgBFgBFpHgDUIvEIYAUaAEWAEGAFG4BgEmCDwomAEGAFGgBFgBBgBJgi8BhgBRoARYAQYAUagbQS6T4NArpCStjvEORgBRqD7EKCfJHspH8Gb8ei+tcct9X4Euo8g9H4suIeMACPACLSNAG922saIc5wUCDBBOCmmkQfBCDACfRsBZi19e/67ZvQnHkHg30HXrIReWCure3vhpHCXGIFOI8AP705D10MFTzyC0ENAcbOMACPACDACjEBfQoAJQl+abR4rI8AIMAKMACPQTgSYILQTKM7GCDACjAAjwAj0JQSYIBz3bPvQrubDqo57WFwBI8AIMAKMQJ9GgAlCn57+w4NnYsKrgBFgBBgBRuAoBJgg8JJgBBgBRoARYAT6AAIdPRnGBKEPLAoeIiPACDACjAAj0FEEfEsQWFXdUfw5PyPACDACjEArCHR013vCgdmL5aZvCcIJNzPc4Q4h0IsXcofGwZkZAUaAEWAE2kSACUKbEHEGRoARYAQYAUag7yHABKHvzTmPmBFgBI4XgS7TpnVZxcc7Yi7fBxFggtAHJ52HzAgwAowAI8AItIUAE4S2EOLvGQFGgBFgBBiBPogAE4Q+OOk8ZEaAEfABAmwN8AGIXAV68TpigsDrkxFgBBgBRoARYASOQYAJAi8KRoAR8C0CvXhH5NuBcm2MwMmNABOEk3t+eXSMACPACDACjECnEGCC0CnYerIQb8+6B33GuXtw5lYYAUagtyIgMdZb6EnIiRFgBBgBRoARYAROIgSON0y1xO12M0E4iRYED4URYAQYAUaAEfAFAkwQfIEi1+EjBFit7yMguRpGgBFgBI4bASYIxw0hV8AIMAKMACPACJx8CDBBOPnmlEfUZxBgjUufmWoeKCPQAwgwQegB0LlJRoARYAQYAUagtyPABKG3zxD3jxFgBBgBRoAR6AEEmCD0AOjcJCPACDACjAAj0NsRYILQ22eom/rH1uxuApqbYQQYAUbgBEGACcIJMlHcTUbgxEKAKeeJNV/cW0bgWASYIPCqYAQYAUaAEWAEGIFjEGCCwIvixEaAN6on9vxx7xmBLkCAHwu+AZUJgm9w5FoYAUbAJwjwo90nMHIljIAPEGCC4AMQuQpGgBFgBBgBRuBkQ4AJQlfNaC/fCFUaHdBbnHAdx1VdCqkE4f5yaJXStlF0u+Go1sOpr4fb6Wo7fztzSDVKKMKDIFEq2ixB95JV1ptgtFnhdB9fHySQQCGTIUyrg1ahbLNtymDQO2E0OuFytit7m5lkMsAvQAY/P1mbeSmDq94Ap74aboe9XfmbyySRyyH1D4ZMF9iuOpyGejHvbrsPBn34NyVRyCAPCYDMX9uuPtSZ7Kgx2uBwdH7OFXIpQvyV8Ne2vc6oU+Y6J+prnHA62tXFZjPJFBL4hcqg8mvH7wuA0eBZX8fTplwhQUCADBpt+9rs/Oi45ImAABOEE2GWfNjH/eVWvLyiElsLzag2EUHoPENQyiSIC1Lg4lHBuHxMcIu9dFTpUbdiM5Rx4ZBp1ZDI2yfQ2ho29dxltsJeWg04XQiecUqLRYr1dVh1KBdJgcFQKxSQS4/vAUiwWR12lBj10CgUGBOX1CJRKC224WCOBRqNFAGBMsjkx9e2d5AOuwt1tU7YHS6kZ2gREipvdvxOQw3MezfC7XJBHhIJaTsJTXOVuRx2uIy1cFSXIeDU2ZDImm+TyFj1V39CHhYAeZA/pKo2BGsHCLXT5oCzqg72Kj1Czp8IqbLlPny98hDCA1UI1CmgVHRu3VHXbHYnKuosIF45dmAYAnTNk0J9mQN5G8yQqyXwD5eDBG5nk8PmhqHCIchG1jR/KDXNrxubzYW1qwwIDJRB5yc73GYn2nW7Ybe7UVfjgMsFDB6ug1rtm7XaWQy4XM8iwAShZ/Hv1ta3HjJj9ut5yK2y+bzdC4YH4n9XJsBP1eiB4nbDcrAYpq0HEDrnVJ+32bhCp9EMw+odCDxtOCSKIwKDBNWBmkrkVFXinLQBXdKHCpMR3+7djnlDRkEtbyoIS0tsOHjAgnETAiDpxDO7PR2mh/rfK+owcqw//AOaCkGX1Yy63z9H4OTZkGoD2lNdu/PU/PI+/MefB3lgaJMyzjoTqr/7G2GXnQmJrGsFTOWXfyBoygjIg/2b9KFab8UXf+Tjumn9IPdhH0gbsfivAlw4OQF+mqZzTeTg4Lp6DJ7mD6nMt5O99Xs90ibooAtpOr/6Ogf+/lOPM88NhuI4yMjRk07aiOW/1WLK2UHQ6jpHrNq9kDhjr0WACUKvnRrfdozIwczXclFQ3Xn1cms9ok3xTZNC8fLFcQ3ZrAVlsJfXwm9khm8H00Jt9rJqGDdlI3jq2IYceyvLYLHbMTT6SL+6ojNkslhxcD9GxyUiQKUWTRA5qCizI2uoriuaPKbO9WsM6JeuadAkOOuqUL93I/zHnN3p9lvb2LudDtRv/xuajBGQaj0C2m13QP/XNvhPGNy21qDTvTpSkDRIhtU7ETBpSAMxrDXasP1gDSYNjvRBC81XsXxzKQanBiMsUCUy6MsdKN5pQdokHWRy35IDqt9qcuHgmnr0m6CF4vCuvrbGgYJ8KwZ34frautmElH5qYXbg1MMIdEDL5queMkHwFZLHVU/XzrzF7hLkYOlu43H1sq3CcqkEf9ydglNS/UTWut83NXlwt1XeF99b80phrzHAb1gaHC4XNhUVYGRcAmSSrt3JUt8L9bU4VFeDcfHJQkX7/eJKnH9BmC+G1e46fvm+GufOCBH5DWt+hm7oJEg1nvnoiuSy1sO0dWUDCan9bQP8Rg2APKjr2jx6HE6TGbVL1jdoqVZuLxfCm8wKXZUq66zYnV+LiYMjQXRg1bs1GDcvCNIuIAfeMRBJ2LnEgBFzPP4fu3bUIzFJBT//rhPelRV20Kv/wPb5e3QV3lxvzyDQhCB0rZjqmQFyq8DOIgumv5qLvDZMCyTgB0arsKPIguQwpdA2KOUS6JRSVBjb5211apoOf9zdD+ScVvnZ74i8fnqTKTBu3AtNRgJA5of9hVDGRcBls8NeVgNlVAjcDicUUSFwGc3CmdGaXyqcEGmn6Kg1QhkdKmzPusEpqN+dD3JSVKfGNvg1kEmhcMEHiH/kStSazfj1wB5clDW8oQ+0xnNrqhDlFwCz3Qa7y4lgjRYFtdWoNtcLP4JIP3/UmOsRqvUD+S6Qj4FUIoFSJodUAlAdZUYDXG4XRsUmNtRN/hy7y0uQGRmDshIbdDpZE5W/0+FGfp4V5P4QEqpASZENKrUEMXEqHNxvRmq6BrXVDvG9SiNFdaUDWp1U7BIjIhXQ1zmFTZgEAvk1JCarhCrbv5GAqKq0Qy6XwF9jh6OyGMrY1GZ/AuSXYC/Ng0ShhkSpgiI8FmSOcNussJcfgjw4ArKgcDjKD0Gi1kEiV4jPmkvFz9+K6NsXCX+EA1c8iX4fPNgkm9AojMuErahCOBdaDhSJ3T75pJA/CjkbmnfnQZ2RAOO63ZDq1NBlpcJysAgyP63HdyLID+bsQyIvObpq0uMg1Wka2sm59hmkvH63qPehd7bi8WuHHtNVl8uNNbsrEaBTICXaDznFBgxICMT6vVXCr2DrgRpkJgVCb7IjLEgl3kskEgxOCYKMJv6otCm7CkNSg2GudsFY6UT0AI82oaVUtt8Ge70LulCZMDeR1kETKINKJ0VtsQMqnQThqTSnLdfx44JynHVPmPBH+PrzSsy+qHkCSmPNz7XC6XQjPkGFokKb8C9ISFKhotyOyCgF6k0u8RmZpcg/pqW0cZ0BI8c0NeHwc7VvIMAahD4wz19trsVl7xTA5mzdITEjUoVpgwKwKseEczL98cLvlYgKkAvS8O02fbuQSglTIufxAUIISP00Quh7Ewn4fec/iIQnrkfVV38i6KyRUA9IRMmznyN45ikoXbQYARMHC9u1aUcObAXlQgsR++95cNvsKH1pMWIfnIecGxYi5q6L4LI5oE6Lgy4rpYnfgWnrfuiGpqFIXyuEerjuyG7W5nDgoeU/4tLBo1Bdb8LawjxkRcZga0khvtmzHQ+derYQBr8d2Iep6ZmoNpvQPzwSP+7bhZ1lJTgzNQP9QsNxsLoSRYY6PHrauU3Ix3Orfsdd40/HmpUGxMQpkZziMTdQ2rTBiPJSu9j1bd1kQr8MtfBPGDJCh0XPFOPJF5Lw1+914uFtNLqwc3s9Lp4XhhuvPIAXXk3BC08X4YrrIlFWasP61QaceW4QIqOVyBhwRFBuXGcUD/uMmFqhQQiefl2z82ba8gesubugThsG44alCJl5I2yFB2CvKoVx3RLIQ6MRfN41qHj/cSiiEhE07VooI5o301gLD0ARFgOpWgvjlv1Ce9M4bQyficFb30bFe0ugiAmFPDgAtT+tQdA5o6FKioJuRAZyrnoKSa/ciYPXL4S6XwxC5pwK0+Zs1C7dgNC5kyEP9BOOrpDJ4D9mAPwnDoE88IjpxpxdAEVEiCASm7OrMDy9qV8E9cdidWD2o39h/MBwnDM6Bk99sgvXn9cPG/ZW4ZLTk7Dgwx2CKEQEqcUaKK+1oKjSjBnjYzGimfr+90sOLj0jCYXrrVDqJEgYdmQemgP9t+crERynwObFemScpkNEmhJ5683QhcnhcrhRW2zHWXeHQRvUMkOoyLFCoZEiKEaBHVtNLZqvTEYnXn+pFJNOD4B/gBy7d9YjNFQOvd6JnP1mXHhZOA7sM4MI5dCRfk3W6dF9/+GbakyfdeR33K4HAWc6KRBggnBSTGPrg/h0Qw3mvVtAjv6tpotHBuHcTH+E6OTYlF+PF1dUItKfCIIa322ra9eRyKQQBXKfHAjzvgIoIj0PbG+q/Hw5qj7/HaEXno7iJz9C1sY34TRbkfePF5H6zv3YPvpGhF92JkIvmIz6XXmQqpWw5JWifks2Ep66EUVPfij+7pxwq1AnB08bB1VKjMcRrpEHoHlPPjQDElFYV4MAtabBJ4D6QRqBS796X2gK7p8wBbf+9AVUcjlmDxiKL3dtwcjYBIyIjseu8hJBEL7YuQUDw6Ngcdhw9fBxuPDz/+H1GRcJv4YD1ZW4bMjIJpjO/2OJIBkrl+sRl6BCatoRgvDrTzWCNAwYqMXrL5Xgmpuj8OdyDyF44+VSPPZ0ArZsNIld3msvlmBglha33BGNOVP3YPHPA3DHTQcRHqkQ5WddGIoFDxXg4ccTmjg/kjc7EYSBcdUwrPwWIXNua5Eg1Hz7GhTRyZAo1Qg+7zrYCrPh1NfCbbOg/N3HkPj8EhQ9fiWc9XqkvLEWUuWRsTSu1F5VApkuAFK1TuzyNenxTdpc73cOQmZNgCIiGBK1ArEPXI6Kj3+D22qD//gs+I1IR841zwiCcOjhtwVxMG3cB1tZNWp+XIOsDW9g7zn3YuCKRTBnF6Lw4bcQ9Y/ZCDr3iK+JtbgSMo1KOCvuzqvFwKSgY8ZNBGH4Tb/g+mn9cO3Ufrj6mTVIj/eHQiYVJ0HId8HudOOUzHBsO1iDW2akI7fUiLIaC644K+WY+l77PhtXnZ2KgtUWqAOkSBzROkFY/EAZbEYXJlwfLE46jL08COs+qYWp2oncdWaMvjgQQ88PaFWDQCTC7QSC4xXYvaNerJHmEpm4Vv1Vhy8/qcS8azyaH/JPWfxZJerqnLjg0jDk5lhQXWnHkOF+SE5Vt+hE++2XVTj/gmMJVx94dPb5ITJB6ANLYF1uPWa9nouSutbNBKdn+CG/yoaLRwXBaHWh3OCAwexCQqhCmCeW7TXC5mhdCzEmSYu1D6QJM4Bh5XaEnD9BIEzmgrw7XkLcw1ei6osVUCVGwlZUCU3/RFj2HxIC3mGoR8CEwTBtzxEPK9IC1O84KEwQYRefgcqPlyLypvNx8ObnEHXrLOhXbocyJkycXJAFHHlQlr7+HaJumomqehO2lBRiSuoRJ8lf9u9GYlAI3tm8BpdljcTG4gJkhkdjf3UF/sg9gJkDsuByuZBXS74ESciuKkdcQCByqqtww8jxeOj3n3D1sDGwOh0o1Nfh7H79G1YQmRj+zs/BxMRU5OVaERgob3L0kNS8pK4NDPKcsjDqHXA4gPGTAoS6OChYjrOnBaOm2gGlSoovPq7AXQ/E4t935+GJ55KwaGExrrohAps3mHDqGYF4780yXHNTU0e8okIrFAopwvzNsB7KhiajKYHxdtaSvRkkidT9hghNg6OmDBSgQdN/NFxmAyz7t8J/0vnQr1gM7ZCJsGRvERqF5lLFJwsRduGdwgxx6JF3ED//2ibZ9k67H/0+fQQ1366EOj0epi37YT1YjNCLTkf91gPCRKT/ezui77kYBfe/IeYy5LzxsFfVQRUfATqhUvH+EiS9eBv0f22FvbwOisggBJ01uqGdQ4+/j9h7LhGk8uVv9uG2Wcc6xtJRxYWf78FDlw8S5e58dROmjo7ByP6h+PKPfFTUWjDvzBQs3ViCqWNi8PGyXBgtDtw+pz9C/I81H/y5rQzjM8OhL3IIJ8KYgc0TKG8nt/1gQMapOqFt2PqdQZSxm10ITVQiKEaO2KzWy1M9K9+uwaiLAqH2l2LJjzU457zmjxfbbG788Vst9mdbcPbUIOzYZoLbLcHgYVqs/dsgzFTkfEgaBIPBhTHj/QVRbS6tXqnH+Im+PQFzsj12T1bzPBOEk22lNjMeg8WFKS8ewPo8c6ujVcklwgyhlktBm3LyP6AdlYyktQSoMzvJdaDV9OUNiZg7PEj4GFT/uAYh08d78rvdwnYsC9SJBz7FQ3AaTJBqPQ9Fp8nSoDKmfGSblmpVcNSZhDe8VKOCq94i8jv1JsgCdMLPgRLZqYWnGCDyG9fvQdCZI2FzOrGuME8IbG+iIEl+ShVMdhuUUpnwJ6CAR6QRsDkdcLrd4nu70wmlTCaCKpH/AeUhrYPF4YBCKhXl6OSCqlEcgBJDHfJqqjEuIRkOhxukMZg2s6lq1mx2gezDWq0MpAamc/LkV0C2YJvVJc6xk92YbN/19U4RBMlgcAo/A5PJBa1WCrvNDaVSAqrr6IA2S3+uEUfeJHDDsOFX6AZPEqr/o5MIliSReOIYuFxwmvTCF4GEPM0VnVCgeAkuGr9aC6ehFjL/Y3flVG/trx8i6Ox5oonyD35F+CVnNDH5OGoMQpPksthEQCuXsR4StUpofmgOhQZIKoVMpwblldJ3KuqXW9RD/id0OoLmnP6neoRmqpHWqPTVbxF1y/miD9+vLsTZo2KgUjS1q9PaNVkc8NN4CBr5GqiVMigVUlhsTjicbmhVMlgdLmiUMhjNDuFzolUfG2ehxmDDjtwaTMyKFE4pq9+vwSlXtxwLRKxNqxsypUR022l3w2p0Cf8DIVykaNfph5VvV2PitSFivW9ab0Dm4OZjFdBYaX1QW7S+LBaXiOFAPi201qwWz1qidWqxuMU6au6YJJHV4iIrMrO65ySOzx/HJ6vk9jlQzVfIBKGbgPY201PrdeluAy56Ox+19T6IaNcMZvQgndLfD7/efkQY1+/JBxxOaLOOVc92BezkzV7x8TJE3XDEMZIIQpjWD6khXXuagJwjt5cVI8Y/sMHnYf8+szgeRn4C3ZEKC6yiGTJtULKVFcBtqYcq8YiWw6f9cLtg3LQcmnTS4HiIEAnv2mUbEXzuGEgo1GMXJ3JqrfllrdAmeIMxlVabsb9QL04YdFWiEww6tQKJkR7BWZFjg8XoQlyWWgh7XyciFDuXGJExWQv1YadUOkZLQY0yuvCEwcEDZuHDEB7R+omQnnqu+Rpnrq8pAkwQ+siKoB3FZxtrcPdXxW2aGjoDCZ1eeP/qBCSGHBGG9PAmXwQKnOM/3qPW7apEO0vjhr3C4Y12ot5EmoDdFaXiyOOImKa2cV/1pc5ixppDuUgNCUdaaHiTask5jHZx5Dfg1XL4ql1vPbQLJHs07RTTGzks0veWgzvhqC6FdtD4ZjUJx9MX44bfoErIgCIivslu3lZcifpduQg6YyTEFrwLU92KLcLnQRl7hADSWs8vN2JPXh3OGhXT7AmEznaJNBCrd1UgLkyLAYlNw00XbrcIrUDKWK3PScL+v0wIS1EKJ0dvonEWF1pRUmzD0BF+4vSKr5LF7MK2LSbExikRG6/qsiBfvuov19M1CDBB6Bpce22t6/NMuPnjIuwrs8J+PBcxkFoUgFohwT9PC8Nj06OEWry5ZCupQuWHSxFw2jCo+8U2EeDHAxQ9IG3FFdCv2AKX0YLI22a32IcDVRVYvHsbpqYNREJQMDTHEW6Y+kwag4p6I/7MPSCGMKP/IPgfDpB09Jhyc8zYssmExGQ10vuroVb7Zmddb3IKYkDn1CmKYnRM85oK8i8gPwOpLgDarAmQ+7euCm9tTpzGOpgPbINl7waEXnIPpEdFjjwivNwofuYTaLJSRKAsCrfsq0iSFOeCzEjkyBpzxwXC76C5RHP07Be7MTwtFFkpQQiiuAid6ATVU2OwYu2eSlTV2TDzlDiEBTbvL1CVZ8P2n/QITVQheawGmuMIMFRf7UTO2nqUZVsx+eaQBs3B0WO1mJ34fnE10jI0SO6ngs6v+dDTbf3WaJx0lJZIrb7WgdPOChJHdTn1XQSYIPTRuc8us6KgxtbmyYbW4NEqKW6CGqG6th9IdJbdklMMe2GFcDr0TZJAHuIvTizI/Fr3IKf2yIlwX2U5So162I/nRhvReYnwVcgIi0Cotn322eJCmziiSDZgXySVSoroWKWIkdCeREcYbYX74bZ6fDc6kyRKDZQxKVBExB6miK3XQuTQeqAIznpLZ5prtgz5oajTYqGMDG2XVuZQhQm5JSZxzLFTSSKBRiVDvxh/RIe2vc6ojZpCOyoO2mA3d36uyT+BjkIGRLb9+6I2y0rtIj6G1ebyBOvoYPL6K5DGoKV7PTpYJWc/wRFggnCCT2Cf6z4bO/vclPOAGQFGoDEC3fcQZILAK48RYAQYAUaAEWAEjkGACQIvCkaAEWAEGAFGgBFggsBrgBFgBBgBRoARYATaRoA1CG1jxDkYAUaAEWAEGIE+hwAThD435TxgRoAR6DIEus9/rMuGwBUzAl4EmCDwWmAEGAFGgBFgBBiBYxA44QgCE3RexYwAI8AIMAKMQNcjcMIRhK6HpHtaoBsDKXnjmcjoAiC3W9wkKOuGGPbUNrXldNGFLp4IiHQpkVTasUDyVEdHy3QVwh783JDR5T+Hk8NJF0y5oZAfCTZjdzgggQRyefuixBFGS1asEnVPP3NSV3X/uOtl8nzcEHIFjAAj0AgBJgg9sBz25xZg0Vuf4LwzJyInrxB/rt2Mu264HGs378A3vyzHn1+/3S29+v7XP3DJLQ/i0lnnoF9SPLbuysaz/7kTsVGe++PbShu37car732BF+ffiwD/5qMJWqw2fPrNLxgzPAsD07vu0iYiKt8uWYFX3/sS37z7PPx1WpgtVsy48nZs2r4Hv33+OkYMHgDCftQ5lyM5IQZbfvusrSGK74vLKnD1HY+isqoGm5Z+0q4ynIkRYAQYgRMdASYI3TyDtJudcdWd0GnU+Oz1p3EwvxDT5t2OMcMzYaq3YMWqDXjw9mvx6/LVuGjm2bjmkpmoqq3De599j8079mD0sCzcdMUcqJRK/PbnWhzIK8Cyv9bj3luvxNjhWfhjzUbkFhSjrKIKiXHRuHjm2diwdRdWrtsCq82O8SMHY/L4kWLUO/YcwNjzrsDT//4nrrjgPCSPnoafPnwJw7IG4I0Pv0JoSBDWb9mJf1x9EdKSE7Bi1Ub8tXYzggL9MCgjlW4Jxtwb7kXuuh/FOBa8+DZee/pfqKiswdc/L4dOp8HqDdswZ9oZyBqQhlUbtmDn3hzRt5nnnIYJo4fiqx+XoaKqBklxMbj16ovw3a9/CJL079uvFYJ9+d8bcPZp4xEVHorlqzaIfhNGc8+bghsun43i0gr8++lXoFGrkV9YgtUbt6Foy1IEBfjBbnfgvgUv4qOvf8Y5p52CD16ajytvfwSLf/odw7P64/H7bsV7X3yPRfPvw+Zde/Hx4p+RmZGCGWediqde/h8G9e+HwpJyzL/3ZvyyfBU+WvwTvn7nOWzbtQ/vfv4DdFqNwJj6wYkRYATajwARenrR85BepIWkF2kzW7rTpf21c05fIcAEwVdItrOe0vIqpI6bjmsunomXn7hfqPhXrt2M+JgoPLTwv/hp2Up88t8n8cRL/0NtnR4fvPw45l53D/557SWYOGYYzrr4Fix8+A5MGjscl9zyL3z99rP44Kuf8P4XP2Drb59hxNmX4J/XXYahg9Kx+Mff8cid12P8jKvELr9Wb8TjL76JjUs+hlqlaiAID/zjavjpNPj461/w+RvPQCGXCc3Cd+++gNsfXgjq8+sL/41zL/sHVv/wHjZs2YX/e+0DPH7/rZh6+W3YufwLvPv599Bo1EJwz7n2Hlx90QxMPeMUzL3hPshlMjz7yJ246Kb7MW7EEKFtsNnsYof/5L/+IQjQRTfej1uvukjcpfPkS//D8i/fQO6hYlx/zwI8dMd1+Pjrn0U/Fi24F1t3koD+Hut/+RB3PvKsEOJrfnhf9PW9L35oQhB++2sdHnrmFTicLry58CEs/vl3ofUggvDIXTfg/KvvQu7aH7B2y05cd/d8nHPaeKgUCvzyx2pBlp5/4yPcc9MVuOux57Blx16s/v49zLz6ThBm/ZLjccVtD2Pfqm/FGDkxAoxA6wgIs6bTKV5e86TD4RDviSCoVCrI5fJeY7bs6/PJBKGbVwDtnlPGThfdyDVwAAAgAElEQVQCauW3/2to3Wyx4Jq7HsPSP9agavcfuOqO/2DZynVCaD6x6C08fOcNwgyRMm46Thk5BPGxUfhh6Z/48YNFqKiqxZkX34Qv3liIDxf/hCXLV4v6SXuQmhyPC66/VwjoqIgwIUxJeJP93atBIPJBmoV75r+I2669GFdecB5eeudTIcQ379yLvfvz8MJjd4s+HVj9PRQKuVC7l1VU49zLbsVFM87CgbxCfPLqk3A6nBh+9qUYPXQQPnvjaUFu6NZFEuxTLrxJmFWIWJRXVmPseVfip48WYVBGGi688T4Ul5bjstlTGwhCQVGpwOQ/d9+IxT/+hqqaOnz+xkLR94kzr8G6nz/E8LMuwTWXnI+XFtyLZ/77Hha88FYTgkAajK279+GRha9h3Mgh+Pi/jyNh5NRjCML6rbtx7d2PCk3DqKGZuP/xRUI7MGXiGKHNuP+Jl/Djb3/i6Qdvxx3/eVYQsymTxggtB+Xn1HkE2Hei89j1xpJWtxPZtlqUOsyg/xsnt8OBTEUwkjRBTUgAaRGsVivq6+uh1WoFUWBNQs/PLhOEHpiDMy++WajeF9x/C+68/jLRg9KyStw1/3ks+2stKnauELvZX1aswr/+eQ0eePwl3HzFXPzfI3di+pW3Iz46EgPSk/H4C2/jt89fE9qAyXOvx9JPXxWsPPtgAe6e/zwsZhuWfPpfTJh5NR695ybce/MVTUbb2MRw2zUXI37kuUJtTir1fzz4NPav+lYIRtqFf7BoPs665BbRZyIqlP5evxVTL/sHli9+E6fPvREfvfI4pp4+AY8++zr+99l3uHzuVNG3/9x1g+gTEQRy8iNtRElZJfpPmoXzz5mMNxY+LLQLeQXFwqzyxKK38cvHLwuTwS3/evowQViG6lo9vnjzGbFbJ63I5l8/FRqTs087BZ+99pQwCzyx6J2mBGHjNowelomwzNMxd9oZePXpBxGRdYYgCI/efRNmXHUHdv3xlSBCN9z7OKadMQF33zgPwUH+uOVfTwkTx7QpE6DTaPDDb3/i5ScewM0PPInxI4cIDQM/xHrgB8RN9loE3HDjS30O9tnrmhIDcop2OhHpVODayMFQSj0at2qnFQ9WrMUMvyRM9UuEyWSC2WxGUFCQ0CRw6lkEmCD0AP679uXgrkefx8btu9E/NQlDMzMwe9rpeO39L/Hnmk1il37zA08Ie//rz/xbCKkdew/ggduuxruffY9brroQg/qn4uKbHsDAtGScMXEMvl/6J5575E5ceNMDwmcgJ78Qv69cj09ffRJ3P/a8MF2QWWLKpLG4dNa5wtN/+d/rMf3KO3DjvDnCH+BfT72Cm+bNEZoGKjNvzjShcVi7eTs2/foJ7pn/An749U+cNXkczp48DoEB/ph320NY+8P7eOqVd7Fl516889x/hJAeltUfRmM9ag0GREeEYeSQgUKwTpkwGm8994gQrC+9/Sne+fRboZ349pcVuGTWubBYrUJQkwAfPngA3vxwsRgv+SrU6g345NWnUFdnwIU33Y8/Fr+Fzdv3CI3Dg/+8Bkv+WI1lf60TDolU3lRvxlsff40b583Fs699IPwmTjtlFBJGTUVacjw+euUJoV1Jio8Rn1Ne8jugfAqlAgP6JQkTwx3XX4bPvvtVzM3eld9gwQtvCh+LYYMycMaE0bjt2kuYKPTA74ib7H0IrDaXYnl90TG3TZOGwGmz44qgDKRqQxo6vtR0CAsqN+G+0KGY7pckNjglJSWCIJAmgQl4M3PcjSo3Jgid/I0dzxzRj6WyulbY1KVSCSLCQhAcGIC8wmIh1Ig0HCouA5kdyJRAu/rcgiKxi6UUHRkuypHKnUwWIUGB0GrUwrZfUl4pjvDZ7HbxWVhIEIymeiHo6XhfTGQ4QoMDRT3UB2pHp1WLMlQn+UKQXwQ5HdJOPSw0WNSZmZ4CvcGEQ8Wl4kcbFxMpnACLSsqRnBAr2qP/Q0MCced/nsOscyYjPjYaS/9cg/99+p3Y4QcG+ouxkEMiERTyQSgoLIFKpRT+C5FhIaBjiQdyC2AwmpCaFI/yyhoE+vuhpk4v+kXC3GKxChMHtatUKJB3qBhkx6TxmswWxESECQdLh8MpMKX2CEvCnZwZd2cfFGaK/v2SkV9YjNKKaqQkxAjsaV5Dg4NQWl6JAH9ydLSLUx25h4pEuwPTU2G12YR2g/pDzpPhocGdXEVcjBE4uRB4sXo7DG77MYOi356t3oyH48ZBJT2iGSCCkG8z4LrggfActgYOHToEnU6HwMDAbjvyfXLNgu9GwwTBd1hyTYAgIZ99+6sQ3OTsuGv/QUweOwITxw5nfBgBRuAkR+CZqi2wwRPjpXESPgZGExYkThLxViitMpfiJ2M++ikCcE3QgIbs+fn5QnsQEhLCBKGH1wsThB6eAG6eEWAEGIGTBYHP9TnItte2oEGox+2RIxCu0glNXVLOhyh21OOdqMm4IjCjocyBAwcEOWANQs+vCiYIPT8H3ANGgBFgBE4KBGxuJ16q2QHz0acXDvsgDHTpcGHcYDHWaYU/YY25DNuTLkS8wk98ZjAYUFpaipiYGGg0mr553PF47Nc+XkVMEHwMKFfHCDACjEBfRqDYYcJ6SzlqnVbY6YyzSG64nC5IzTZM8U9AcmAYbG4X6NSDSuI50WCz2VBUVCSIQWhoqDjFwE6KPbuSmCD0LP7cug8R6EXE24ej4qoYgRMPAYfbJWIgOBufZ3BDOP3aTfVw2xzw9/cXvgb0WU1NDWpra8VnRA44DkLvmHMmCL1jHprtBTn2kKc/eecfTyLvfDo90B3J6aTLn9CiapBOPlCgpc6mjl5oRRHauuvyq86OicsxAn0FAfr90okjinVA5gQKjESfqdXqBsKgUCg45HIvWRBMEHpgIuhM/xkTR4sz+xdMP7PZHvz8+9847ZSR+On3VSLAz9GJzgtToCKKbdBaIgH5yTdLcPmcaUJwexMdSYyNbt+lTB2BiI5EKuUKcdyxuUQxIDIzUjtSZZO8dGSzTm9sV9/pweMlR6yq7DTkXJAR8CkC3vsXvOGWqXL6fRKR997H4NMGubJOI8AEodPQdb7g7Q8txD23XIFnXnkXp40fhXVb6UKki8UdAZn9UzHjzFNxz/znkZ6aBLfLhQN5hzDzrFPFmf6SiirccNkc8Rndv3DTvLl4+9NvROCi1IQ4vPLe5yJWAMU/oDsTrrxwOjZs24X0lET8tXYL5s2dJgIAvf7hVyJU8Kr12zA0Mx2jhw0SlzpRfAGKH0BxDahvX//8u4gHQBcvZRyuIyYqTMQeuPaS87HvQB427dgjYg1MGjccFB6ZLlOiPiTERotw0dddOktcwhQbFQ65TI6isnJMGjMcn3z9C6KjwqFRqURcBSpHt0qOHDpQhHmmNojEbNuVLcIZU2yCPftzceq4kYiLjhBBloKDAkBXZavVSgwZmA4/nRYr126BRq0SLwo1TVEbs3PyxV0W1A4nRoARYAQYgbYRYILQNkY+z0Fx/s89/RQsWbFaCNXtu/cL4fX73+uFIw/dPXDHI/8nIvj9vHwVZp59Kr78YRkKS8qQkZoohDkJ0tc++FIEWCIBS4GESJBTQKQ5007H6x98JYQ0EYinX3kXeqNJlB2QliLaWr1hK+qMJhEymC4/OmXUECF8gwID8N93P8eUiaORmdEP2QfzUVRShsmnjMJPy/4WYYcLi8tQXVuHsJBgEYSJQiBHR4YJEmIwGuFyufG/z77HxTPPEtEVz548XtxZcOq4EWLMflqN0CLs2X9QRFykMMwZqUnIzS8S5GFAWrIISkSCPTUpTrRDJITe002UVqtNEAe6GyGTAhfZ7Xjnk29w+3WXivgLW3ftE9Eg6ZbIIZnpeP2DL/HwHTfA5XYJx6cT8mIldrDw+e+QK2QEGIHWEWCC0AMrhG4F3JeTh7EjBqOmzoDsnDwRAvnv9VvEznjE4IFYt2WnCCksV8gxfFAGtu7eD7lUKojAhDHDRHTBH5etFMKUwg2npSSKCISHSsqEkKTdNu2gzzp1HKrr9Ajy90NRWQXGDR+MmKhw7Nx7AH5arYgQSLtqIhxFpRUI8NMiJ68QdocdGanJKK2oRE2tAf37JYkdvbHeLK6aHpieLO5ooNsPSSCrVUoRpri6pg57D+SJNsh/Qm8wYtSQTKzftgvhwYGQymQgPwUKorR643YRvZFwoIuRVm3YCq1ajYHpKQKL4IAAJCXEwM9Pi/yCEkikEjF+6isRI7p2OSYqQmg8/lq3GSMGDxDtkZbC4XSIsM1ZA9JFGdJsJMdFIzg4EAF+uh6YdWqSpXwPAc/NMgJdi8BJ+tNmgnASTeyPy/4Su/CsgenYvnsfWfZw+ZypIhRzb0tFpeUgfwQiCFMmju1t3eP+MAKMACPQ5xFggtALl8BJxFl6Ibrcpb6GAP+e+tqM83h9hQATBF8hyfUwAowAI8AIMAInEQJMEE6iyeShMAKMACPACDACvkKACYKvkOR6GAFGgBFgBBiBkwgBJggn0WTyUE4iBNhwfhJNJg+FETgxEWCCcGLOG/eaEeg8Akw+Oo8dl2QE+hACTBD60GTzUBmBEwIBJjA9Pk08BT0+Bb2iA0wQesU0cCcYAUaAEWAEGIHehQAThN41H9wbRoARYAQYAUagVyDABKFXTAN3ghFgBBgBRqDjCLAxpOOYtb8EE4T2Y+WznHTdqd5gEtcWO10uUa/bDbjcnmj99L+b/nN77mcW16M2+tzz/eHklsAFTx2ezI3/eMoH6FSICvX3Wf+5IkaAEWAEuhQBtxsKhRwKhaJLm+HKW0eACUIPrJDyimrs3rsfFosddhLvLglcTsDucsPh8vwlsuBySuBy0/9u8b3N7YTT5YbTCbgkVE4K4hdOt8tDIsTryIC8tGFoWgxmT87qgZFyk4wAI8AIdA6BerNFXAInk8k6VwGXOm4EWiQIrLg5bmybrcBud2DX3p0wGIxwOiVwkDaACAIJepdTEAR6ERFwHyYLjsMEweFyevI5AedhYkF56HsiB0KB4DqsdYAbrsPqhEH9YjB9YjcTBF5AXbOAuFZGoA8hQLfDhgT3vsvm+soUsAahm2fabLZg3/5dcDlJ2LthFwQBQovgcLvgdJAW4YjWgAgEkQWXWwK7k7QG9HLDSaYFIgZUVtgcPGYI+k4QBZBmwfN/RlI0zhyT2c0j5eYYAUaAETg+BMoqqhAZHnp8lXDpTiPABKHT0HWuIKnNCg9lC0FPu37SGpCpgEiAg4Q/Cf7DBMEpzAceQe8mEwTlJ3OCywUHmRlIy0DvBSPwkAoq401ec0NybBROGTqgcx3mUj2OgFOQSVeP22OpD3a7HSqVqscx6WgHbDY7lMqm9mwaD12JTleOc+qdCJSWVyEqgglCT80OE4RuRp4Igr4ip0G4O1wOjw+CWyLMBsK/wOkV9hJBCJxuEhCkYTisWaDPXBK4iUiIh5zH94B0CA0EQZgdPGwhLioKQwcM7OaRcnO+QqCoqBj19WakpaX6qspO1WMwGLB3bzZGjRrRqfKtFaqqqkZwcBCkUmm76q6srERgYGC7SdPOnbsxYEBGE3t2aWkZlEolQkKCG9okAlRfXy/q5tTzCDBB6Nk5YILQzfgTQbAZcj0OhS43JG43HDYbDhZVIfvAAUyeOBIOl1wIe0EAIPGYHFxEHpwNvgakVRAmBjdpHbwOilRG6jkBIZJHSxERFoX0VCYI3TzVPmuuLxCEnJyDSExMgFwubxM3IsPZ2fsRHx8LrVbbZn7K0BxByM8vgFqtQmRkZEMdZrMZVVVViIuLa1e9nKlrEWCC0LX4tlU7E4S2EPLx90QQJPWHGo4uCjOB04n3PvsG2Tl5ePS+G+GGVJxScLqlgEwDqVQNuUIlBL/dZoHdVg+7zQC30y565znFcPg45OEzkEQthCeC243A4GjEJwz28UhO/uqKi4sRGhoGlUrZ5mCJwO3atRtZWYPazNvRDF1NEKxWq9hJSyStq9q7UoPABKGjq+IkzX+UczMThJ6dZyYI3Yw/EQSV5WCDWUBCPgdOJz5a/DNeefdzrFryAdzmetilGqiCEqFQ6SCVNj3m43I5YTUbYCzPhttcKcIlePwNSNPg9NTtckPqcgpSoQlOQHDi6G4e6YndHGle9u3bj4SEuHbtUokgbNu2HSEhIWIn3Fay2WziJEtoaEhbWdFRglBXp0dgYICol1T3FosFYWGhMJnqm6jTBbl0upCbmyv63NaZ895GEGitp6X1a5fWgTUIbS6zXpmBCULPTgsThLbw9/FxPaFBMG6DDA5IoYDM4QAkLmzduQcX3vUCvv/vfUhIGQhN1DBIZa0HCXE6rKjZtwJyUznkMgksDjfk5PxI5ECmgtNpF1oGZWQ/+GdMbjJSMldU1+rhcDgREhwAlbL1XTLl0xtNCA70h8FUD5VSIXacNB6zxSo+N5utCA7yCKYTPbVGEJpzGiSCsGXLNuHAl5k5oM3deE1NDXJycjFy5PBj5uXoc99EEMjmTsKQhHhbgnzPnn3C3k6puLgERqNREJeCgkMYPnzoMe3t25eNlJRkqNXqVqfNSxCozw6HQ/gLUF8JD2+fqQ1KCQnx0Ov1gpyEhoa2eZa9MxqEuro6DB06WGg/2krbtu0QJInwGDQoU5gWqK9sYmgLucPf+/g52M5WwQShvUh1TT4mCF2Da4u1kkDNXfMeEmJCoZWrAadd+BAUl9fi3698iwevm4P0SXMgV7cv8qHdYsJvn74NlcOEnEPFMDqkkEGCjMQYcWzSbLUjul8mJkyb06RPv/25Fp988wtiIsNxwYwzMTA9Bdt2Z6N/v2ToNGpkHyyATCpFWkoCCopKsHnHXvzw21947ekH8eaHi9E/LVkEMVn21zos+WMNHrvnRnz+3a+46YoLkJmRKqKgbdu9H/1TE4Vw2J2dg8ED0o/xJO9m+NvdXGsEoaSkFCTgBw48cjKkJYJANm0a/9FCrCWC0Fi4eztLBOHQoUKEh4cJrQMJxdaStw4SoJSfnO5aIghULwl+MnUNGtS6n4qXIGRlZQrtCgnX2NgYIXT79UsVhOFoglBRUQk6QZCcnNgqASGCEBwcLE4UBAUFtTo+rw9CRwgCkTfqH2ludDotEhIShK8BE4R2/yR6JCMThB6BvaFRJgjdjD8RhFFjx+PG80bg4vGDYKHzipCjotaERd+uxIuvvoaQ6MQmvfqzADi1Fa31lk2b8PL8h1FtskGpU6OkxoJgtRz1UMA/NAoTJozD3bde06TOx557E5PGDsemHXswYfRQLHj+TdidTkEY7rj+UvzryZexP/cQXn/mQSx66xOEhgQKQUcE4ZffVwkyAQkQERaC5177EK88eT9uf/hZZA3oh9MnjBLEIcBPJ8hCeWUNCopL8eQDtyIl8cRw/vIQhGyxEz7aEY6836urq9tFEHJz8+Dn5yeEuzeRp3xZWTmonqM1COvXbxSnFXQ6XQOp6CxBIOFP46BdPBGEvLw89O+fIfpDYyOBTI56JDD1egMiIyOECaIlD/6jCQIJWz8/nShLfSacyssrYDSaxHsiRx4yVYuYmGjEx8e1qFkhgkAOilSedvpUJi4uFhER4cf8QhsTBDLRUH9J+0GaDDKt0IkP6iuNx5taIghWqw0pKUlC20GmPPI3IUyIVA0fPqybnw7c3NEIMEHo2TXBBKGb8SeCkNy/PyL8tLh9zhmQ0CkEpxP5lXrsKKnFdz/8fEyP5E8DVw8G/jESGHLkmdeQz2DQ4+Un5mPz1m04WGMRuyQS5hSRUSZVYNbM8/DYw/c2qXfBi28jMz0ZazftQIC/Di+98xmWf/kG7pn/Am6cNxeFJWVYv3UnzPUWYYpYtOBevPj2J4IgFBaX477HX0RBUSneXzQfUy+/TRCJL75fiisunI6lf6wRPhUTxwxDQmwURmQNxGff/4pH775REIYTIZFgpSN9tEulHTOp9b1OfGTXLy8vR0ZGekNMAK8GgTQFJpNJCEMSjnR0z9/fX+xeKQ8JYBJGRBDIJ2DYsCFCoHp9BoggBAUFIioqCgEBHi1SYWGReBHJqK6uEcKWAm7165fSLJSkQSC1fklJiWifBDgJUhJ89Jf6QmYHErREVrwEgb6j96mpKUKjIJfLhAmK4gfQemqOIBAp8JgwgkXfSKDT2AYM6C/WIREpEvZEJIioBAeHiPyDBw8S+CYlJQpcCgoKBMEg0kT9IIyJIBCxcTodIE1ETEyMEOBEJrw+HIRVbW2daJfMHqQZoPpJwBMGNAaau6MJApEjcs4kQpKRkSbq8PS3RswXzdHYsey309HfKlkiDumBUA1QbQbqHUBqEFBtAcK1ns8qzUC8v+fuGfqf8hYbPS31CwZkjXxlmSB0dAZ8m58Jgm/xbLM2Igip/QdAJpUhOiQQgRo5Avz9kFtcganTZ+KJxxccU4fsac9HSUHA5QOB20cBIZoj2ejBOH/+U/j6hyVwOq1CkJFzooiC4JZh5nlTsfDJ/zSpd+3mHXj21Q+EP8E1l8zE1l37sHn7XqFNIJPDA48vQnWtAQsfuh3Pvf4hXG4XoiPC8Pxjdwsfh9nX3g2T2YJv330ew868RBCEV979QqiTb75yLrbs2Icde/fjxnlzsG3Xfnz36wr838N3YvyoIW1i1BsyeDUIJDhIMJNQ9ZoJSFiSsCVBTUKNBNrRBMEruKgsEQEiAJSHdu8k7Em1Tep/EqxEELxmAy9BIEGdmJgohCrtxEmLQHWRoKS6SOiTICdBRn2lXXdAQIAgJaTyp/ckbKmP3veVlVWCdFB7JGiPJghUhgQzlSHBTsKZ3icmxou6acze99QOzXVLBCE6OkrkJfLRmCDIZHJhRiDTREVFlSAIdFqE+hYVFdmEIBC5IW0AaQdI6JOmIDU1GZs2bRHtEhFrTBCojrCwMGH+oe8JN8KK+k6mj8YmBsLgCKkJQ1lZRcN7wohwJRMSzVdbpzt6w3rtdB987Fuwtwp4cQNwdRbw8W4gMQC4cRjwyibg7tHAJ7uBgzXADcOAd7fTvTPAnAzgqTXAxDjgmiGAutFJ1z5BEHw8B51eC80UZILgSzTbUZfQIKRnQiF1w2KzCmc/emBa3VIseOjfuPG6pqYAqpIIgjeyAZHrM5KAJRcB3gBwJCAenf8kvvj6M7hcSnGkgR5qDrcDcEsxe+YMLHzysXb0ruuy9OLfQLODbkwQSHCS8CGhR0LX+94jSAzQaDRi90plvBqExgSBhDppBMrKyoTQJeFLZYkgkFOj5+QJxA45Ly9f2OBJyJGKnHbj9DkJ0aMJAglOT3wMh+iD91QECWavsG2JIHjJTmMNgpcgeLUA3vZpt039oZ017czJv4TsS1TWSxBImBMRiIjwCFuqg3bn3s9J0Fos5I/hIQik2ietgpck0c79aIJAwp0Imkf7YBVaDCrrJSaNCQJhQ+15hT7hS6c5yFRjs1mF+aAlgtBcWSIIpIFITk5q08Gy6341J17N5fXAZd8Dj5wCPLnaEwn2l4uA+5cDT072kIePdwG/XwrM/xtYeJqHENyxDHhqMqA5KgxGnyAIvXiamSB08+QQQUhI6QeJlI43uiCXe9S3JFzuufsO3H37P5vVIJCApR/PJQOBm4cDI6KOZCMh8ezTT2DZ919hT4VNnEgQWjqJh1bMmjkdC596optHemI3d7QGgXacXnU9CR/aQXtV8h41uFN8doQgBKG2thbh4eGoqKgQ5IJU9N5dfmOCQMGuKFgPfUaxFIggkMBMSkpoUHk31SAEirqoP9Qvmn/qC60j0jh4CAKRmdJmNAgBYjfemgbhaIJAu31qg9ryRBn02PkbEwSvYCZSQSSqeYJgaRDyXoLiJVeNSY3XxEAaA8LQQy4sAlsS5qSBIc0E9aexBoHI1JGyHnJBpIbMDNRfmUwqiIm37LEahCPkjQhCbGyswK+90R1P7BXvm97n1wHPrAWidMDOCmBwBHDrcOCKH4FZGYDRCuTpgX+OBF7eBASpPN/PX8UEwTcz4NtamCD4Fs82ayOCkJia1hARUSKRChsp3clw5pQz8OG773iEe6NEGoT+ocA704BhEYDqKJZtt1nx4XMP4/3Pvsa+WgmUcoU4YeCiCxwEQZiB/3uaCUKbk9Mow9EEgYQU2eJJLU+2alK3kwAnlTYJ5mNNDB6CQIKSdvqkYSASQbt0EmQkXEnApaengRwZjzYxUL0k/KgfJHC9pxg8JgYPQRgxYtjhUNs4LHiloh2KMqjV6jpNEMh0Qbtzf38/scOnPlN9dXW12L8/RxzjpL+Ew9EmBi9BINOB53SE67CJwSPkvVqAzMyBOHAgR5hRWjIxEHYknOlF2gEiKvQZmRiaIwjUHhEx0hyQBo3aonxBQcHYsWNnhwnCqFEjmRx05EcDwOb0+BsEKD3+BxT6PUzj8TUg3wJ6dpnsQLAasDo8ecI1gNEOBKiE33OTxBqEDk6Aj7MzQfAxoG1VRwQhJb1/Q9hkeoAKLYJcJnY7W9avge6o8LH3LgfuG+tx8mku1ZQX4Yun78Tf2w5iyd4qsTvUKFXiDgdKs8+fgWefeapJ0eyD+eIYY1REGJwuF+rrLVCrlR5bu0IOm80hHrKbt+9GZESYOK2gUavEqy8kL0GgQEIkEBun1k8xKIU3fnR0tPAXIJU4kQtSk3t9EGgXXlhYLOzczZ1ioF0yaR6oDKXGpxhoV0xHCh0Ou1CBN5fISZECPFEbGo264RQDOffFxkZDo9GiqKhIEFMiKV4nRSIC9Bmd3GjO7t6akyIRAxoXqfRp3IQZkSDvKQYiOySwyVxB9RCBoHGRwCfNgPcUQ2MnRQreRGYHIj1kyvHemUDHE8nkQ0SA6iWtAH1Hc0aOjeTzodfXiTnwJnJSbKxB8B5zJM0F9ZWIEJEiKksBJWluxoxhJ8We/q0zQejBGXCTEpp+VZy6DQHhg5DW3+MjIOzWRBDk4j0JkGuuvAJPP/l4h/qz+tvz6rQAACAASURBVIdP8cVrT2FVkRQFVbWiLs+Nex5fhNmzZuL5hc80qXPrrmzk5B1CYmw0YqMjUF5VA3+dBrV6AyLCQqE3GIUn+/7cfMRFR+JgfhFmnDVJCJy+kFqLg9CRY46kLSANgveUAmFH80yCibQQzREE0ibQmvCqtn11zJHaGzIkS9RNApeI5PbtOxsIAp3WIGHdUiCm5giC12/Ae9KDHCKJGBABIFMGEQQiNRSIqfFRz6PXkJcgkK9BXFxMg3aipZsjSUtC9ZIGhtak10wntHFOp+hD48BPLREEKkeaCcrv/U3SnJEpqPElTn1hzffGMTJB6NlZYYLQzfgTQUjqlyGEBAkA2q14j8ARVSMHsHffekOYG9ryniYhVp2/Fy/dfiH26YH1h6wwmq1iRB4Vq4d4zJ0zC4ueW9hkpJt37IFKoYBKrRJH5ujIYlxMJCoqq+HvpxMagwN5hyCVSBDo7web3YH42CjExxy52KaboevW5lojCKTuJoc8Oh7nTb6KpEgCldTkjRMRBLK7026bdrhtBTTqTCRF0l7R0czWkpcg0BHFAwcOCns/aQ7Ix4I0HrTWvLEXvJEUSYgT6SAi0VrqSCRFqsdLENobSZEIAv22aK2T8CdNA0WnbD5QkueIJaeeR4AJQs/OgY8Iwonmo95zoBNBGDpyDOx2m1CJkgqbdurkyU6qfjqemJKYhPvuvgPnz5zRogc1lV2x5Eds+Pq/+HFTPg5WmmC3Q9zL4CUIRDjIx+GiC2bj5Ref67lBn4Atd+Yuho6EWiZhW1RUgv7909tEhwgCqdPT09t37wBpCrz3QXhDLZMgJ2JD4ZobJ9ptU9Akbxjn9hCE1q57pn4Sdh7Vv1Voycjs0FbqaoJAPgiECZkSiIARKW/5NkffEgR+OrY1+y1/zwSh89j5oqSPCIIvutI36iCCMGLMOKEGpR2X0VgvjoyRQ6FEJvWoOunEgkqFyRMnYMFjjwqb8NE7yv889X/4bckSuF1W1Js96lGvmcKrkfB+duHcOXhl0fN9A2AfjbIzBMF7IVBbdyVQF6l+0jocfe9Cc93v6GVNXu0U1eW5N8IT9Ki59ugzIg6k/m+rL73lsiavBiEiIkKYbtrStFH+jl3W5FuC4KMl2SerYYLQs9POBKGb8fdoEEYLAUGCnHZZtOuSymSQKxXiIS6BBHKpHA4iC1JgzJiRiIqMhsPpEBH89uzdB6dUBrfNDqcEcFosDQ9/EgheAeT9SwThvy+90M0jPfGb85yj17brtkCaT4phQOfmfZ06ShB83b63vt5GEMgMcHQY7JbG3jxByBd+CnTE1JsouJI3imNX4cj1th8BJgjtx6orcjJB6ApUW6mTCMKg4SMbdpBEEkhrQILdYXd4dnpOz86STAQkeBxOO+Qyucd8IJFATt/JHNAqwxAYFYfK4hy4LU7IlDK45UrYzXrYqI7D/qdzZp+P/7KJoZtn2nfNMUE4FkvyQTh+glDAPgi+W6ZdUhMThC6Btd2VMkFoN1S+yUgEIT1riNiVes0M5KntpqOGRtNhlTD5JTih0ejEe6vV4lGjSqXCR0F4Z7skcMjcmDT1Gpj0ddi7YzkCVBokDByPfVvXwGqqFnH0ZVIJ5pw/HS8sbHrM0Tej4Vq6AwFyXKSdLZ0E6MlEpxIo/gHdH3GiJXLcJB+OxmYU0hARIW+Pj8SJNt6Tpb9MEHp2JpkgdDP+RBDSBg1uOEpGGgLx0HK7YRJHCyl0LpkJPK5NarVGHIUkASGVy6BSqxvuWlDIVeg/eDzUfiFQaPygryxHTHJ/mEx1OLBjLWorCkV9c2fNwPNPz+/mkXJzjAAjwAgcHwI9TRD6uoMpE4TjW78dLk3nvEeMGQ+D0SiOfxEZkMqkgg/U1FQ3nH0nYuCNvkfaA8qnVKoQEBgEs9UCp8sOKaRQKJUIjohCQGgiklKGI3/PBrgUUsTGD0R5+SHs374Gc6dPwbPPdCy2QocHxgUYAUaAEfAxAuUV1YgID/FxrVxdexFggtBepHyUj3b0D/1nPt59/31hRqAoimRi8JxoMAp/BPJL8GgO3OI9EQVKEokMGq0WCrUKDrtVBJMRwZYcUijUCsQnpiHvwBayPiAgOB79Bg5FUEgkRgxKx7/+Mc9HI/BdNX2dnfsESQbRJzByJb0PAToCTndo+Pu3fUy29/X+5OgRE4QemEcKRfvJ519g7fp1sDsckEtlkMnlcDndsDs8xxzlCiWcFL/f5RLmB3JOpBvpyHdBrdHA6bR7nBvp1IOTovPZIJUp4KJLnt0SyKRySOUK+AWH4ZSxYzD7vCk9MFJukhFgBBiBTiBAplepDBqNZ/PEqWcQYILQM7hzq4wAI8AIMAKMQK9GgAlCr54e7hwjwAgwAowAI9AzCDBB6BncudXjQaAtu3tb3x9P21yWEWAEGIE+ggAThD4y0TxMRoARYAQYAUagIwj0OoLAm7+OTB/nZQQYAUaAEWAEugaBXkcQumaYPVdrS4TH5XaL6ImUKDqiiIt0+BKftnpLXr2eq6Kb9+6l45H0okBL3izsCdwWqvw9I8AI9CYE+JnV87PBBKEH5qCishLL/lwmgiXJZAqUlpeisqoKEkhhqK3zhFaGRHAGhVwOGYVYpsudZDKoVRpEhodi8qljMThrNCRS+ZERuF0wVpcjL+8QjBYz/LQ6+PnpoNX5ISImrgdGyk0yAowAI9AZBNyeW201nsixnHoGASYI3Yw7Bf944dUX8eOSb8RFMSqlFnV6A+r0ejjtTjisVrgp0hHd6CiXw0+na7j1UbzX+iM+Nho33HAZxo45HRKJ/HBQZsDlcKK8YD82bt0mgipFRYRDp9VCqdEgpf+gbh5pzzTXuomKDVg9MyvcKiPQcQTomnKD0YTAAL+OFz4ZSvSCxxUThG5eSGaLFWfPOgu1tTWQSgAXnHA6XHDYydwgEf+7nXQVtARqlQohoaEI9AtATW0trFYbdBodIsJDceYZ4zF71sUIDAqFVCYXJgqXzYrsHRvw55p1gnTExMZBp1YhLiERo8ef2s0j5eYYAUaAETg+BDjU8vHhd7ylmSAcL4IdLE+XNWWNzRJXNstlUhH50Gk/fEETaQ7If8DphkQqE3c1JCUm4PILL8CKv1Zi2669UCmUQqsQFR2C0yaOwMRx4xEf10+YJ6pKD2HVurVYu3kXyiurEBkeiaS4GGQNysKE08/qYE85OyPACDACPYtAT1/W1LOj7/nWmSB08xwIgjBiIGQKBRRKBZxuB2wWu7h1kS5fEmGVXRAEge5oGDooEwseegivvvkWVqxaI8KP6jQayFUSJMQG4fQJg3HGxDMghRLr1m/Cr39vwKGicqFpiI+PQ0hIEIYMHopzp87o5pFyc70NAdJAVVZWIjY2BpWVVQgLC+2yLpaWlqGmpgYDBvQXbdA9I3v3ZkOr1YjP2rIrU36j0YSoqMhm+0g+OW3VQQVzcnKRkpLUYt7a2lpx3bNCoegyLPpKxV2hEWeC0LOrhwlCN+NPBOGiC89DQHAIyivrUFFTDoPeAIlECn8/f7icnqud6fZGrVaLxMREXH3p5TDqDfj0669QVV0jtA8SORAUqEFm/yicNnY05DIt1m/Zg8279iNEG4ixw4chPliLL5Yux5DRY/HPf9zVzSPl5qqqqhEa2r6b6Ewmk1gDJEB9kfR6A2QyqRB+dIOoV5h6CcK+ffuRkZHWZlNWqxVkCyZnsY6kriQIZWXl4qKyiIhwQaJbSy0RhOrqGgQFBeLQoUJERkZArfaMjy4/s1gs8PPro3bvjkxyN+RlgtANILfSBBOEbsafCMIzTy1AWlIMcgorUVJZi5yD+1BbU4WRw0ahqqYO5eUlKCktQoC/P+LjE3DmqafhjMmnYsOmTfhl2VLszzsIp8sJpUyOoCAFIkK0kECJ8qp6KAHcc+UlkKq0WLZqFX75ax2mnHkW5v+Hr3vuzqmmHe6uXbsxaFBmm81S3u3bd4jrvElo0xHWnJyDSE1NabNsSxny8vKFz0paWipqa+tEnRqNpkGDsHv3HkRERIjTMeHhYcdUQ4SFhC/t5B0OZ4e1DS0RBHK0JbIRHBws2m1JC0DtEsGivNRPjzbgIJKTk7Bp0xbodFokJSUKEt0RglBeXiHGQtqMfv1SUFJS2kAQCKf8/HxB6uLi+NRPpxefDwsyQfAhmJ2oiglCJ0A7niJEEOZdcx2uu3gOIiIisWXPAWzfvhX+fjoMHzoUGzduQXbOPtTqq3Ha5NNw3dXXISoqqkmTZeVleP+j97H0t1/F6Qe1Wgo4AYvNDZ1GjWmnDAekKvyxYQvyiwox9dzzsPCphcfT7T5btr6+XviCkIClF2l2WopBQXm9Amvv3n1CMI8dO1pgR+VIGJOApGQy1aOiokIIOTIvbd68VQjkzMwBon4S4AMHDmjAnfJQou9aIwVUHyUiCCSkR44cDtImUN/MZovQUJCJYdu27R5rlsuF4cOHNlTpvVq8qKgEERFhIA1CWVmFIApDhw4WddCuu3//dFEnaSiaSy0RBJlMJhxw6SbS4cOHifFQm158vXVRe4WFxdDr9Rg9eqT4eNeuPaJdwqo5gkDCn+aKNAOEN10VTJ+RiYH6TWRj48bNGDZsCLKzDwgTXFlZGeLiYoUGgcwuREKIIFB/UlKS++y67y0DZ4LQszPBBKGb8SeCMGBYBuacew5OHTce6oBwSCGDxWJGRHgIqmsNyCsowKjRozBi+IhW7axr163F/KcWoKSoyOPc6AIyU5Nx8YwZCAsJwzdLf8XXv/6CGdPPx/P/93w3j9TXzXWFhbP1PpJA37Fjl/DjoBMmJGAqK6uRkBAnbNYkvOrq9IiOjkZpaSkMBgOysjzHSb0EgYQMCR8SpiSwqCyRBLLPk/qbBPjRBIHy0ncxMdFCuCcnJ4q/nt23Bna7rUElTm1RedoJFxYWYcyYUc0ShOrqaiEASSgSQdi6dXsDcUlP7ycEPQnF/PwCKBRylJaWY8CAjAaCUFdXJ3byRGroeG5gYCDo2nISts2RFiIIJJxJI0JCm/IWFBxCcwSB+k1jpn55zSztIQg0B4Qv1UmJ2vOYRFwCn9zcPISEhAhNBZEawn7//hykpfUTfSGyRKaGwYMHiTGQxoI+DwjwF3NL2oqwsLBWSZmvV/nJVt9Bmx57bTXkVoUouRYj1eEdGiIThA7B5fPMTBB8DmnrFRJBSB6QirT4OEwYPQYzp5+Hsopq9O+f4XFUlKkQGBoqhE570r7sfZgzd7bISg9ilUKBU4YOR1pqGlZv3YjfV63C3Fmz8OLzi5pUV1ZRhZlX34WrLjgPN115AeoMRsSPOEfYm2OiwjEiawAW3HszUpPjBUnxRGbEkf/pM5fnOCZFhRSRGyQSUZ7imoj/D5eRHi5fqzdg3m0P48s3F2LLzn34e/0WYVKhHWRBUSluvvIC/P7XOsy/72ZIpFKBR+yws7HiqzcxIC35mH40brc9WHU0j5cg0G6VBFx0dJTYlQ8aNFD0jQQbOdLRrpYED+VXKhVCO0C7WNIgkHCi8ZFgJyFOAouIBH1OdZEZgfJ6NQiBgQFit0sEgmzjZG8fNWoEampqRd00xyT4iDCEhAQLYUe78ezs/TAYjA0aC68GgfpM7ZJanQgCCT/qs0qlFBoEKktaD+oTkQvaWVM71C4JXxKUFLuD+uPv7y8EOREIcSTX6RRaBRKu9D2Nm2z3tCZoDNSH4OAg0XcK2EW2fZlMLr632UiDMFQId9q1U99ovFQvCW4aI5EQciKkzxMTE7Bnz74mGgQaB7VP5hDqGwl7IjL0l3Ak/In42GxWSKWkuZAK3wWaTypL+FVX1SAiMkxoSWhuiEh5CQJpEpKTjxCQjq6fvpzfBTf+WbYSb9fuhQNuSGixSSQYrgrDRzFTkKYMbBc8TBDaBVOXZWKC0GXQNl8xEYQpZ5+NEaPGIDExDkkxkdBqA5ASHwmNRguZQoO4RI+a2JsO6YH4gJY7+sGHH+DlV14SwoMCJ1nMVjgcVtQYDLBaLLhg7my8/OLLTSpY+ucaLPtrHXbtO4ifPnpJCLdtu7Jx74IX8eVbC/HYc28gPDQEpvp63HTFXHy0+GeQgL/qwhnYsG0XhmZmYNFbn+D6y2dj8Y+/Y/SwTMTHRmHJilWIj4nCGRNG4/k3PhJk4darLsKqDVtRUFiKDdt3C4JQUFyKdz7+Br/9tQ5pyfEi3PQLj96DD7/6CZkZqVi7eTsumz0Vk2Zdi8vmTEVcdCQumnEWvvh+KYymepx35iR8u2TF/7P3JfBxVWX7z7131sxM9j1pliZNuu8tpewgooCKsolFEBVwYRE3XFBR+RBBcQFlccXtUxE//bt8LiCoCB9l7ULbNGmbpM2+L7PPvff/e870ppM0a5NM0vbcn5h0cu5Znjsz73Oe9z3vixWLK3Hl2y6YVET7VB/1ZAgCDTWNP0lAnCA4hMFKJAiJ5IJGhztVGiEa9LgRKhsiCLyX/vlEgkBXA/ugkaVB53006DSKOTlZwhBzDnydCgF3+PydBIQqRHNzSwJBSBXuAs6TVyJBIIng3Bj8R4JAxaC9vX1oPiMJgnUv+7OIAO+l0Wf/wwmC9zBBiLsYGB9BMsG1Nzc3j0sQSBRsNk0oMD6fV8zRMvIWzlw3SQbXPiWC0N0jXCmjE4QsMT9LoZjq++dkbV8fHcB7W57Gv4Mto0Kw3JmJXxe+cVIkQRKEuX0XSYKQZPxJEM45czOycvKg2jVkZOVg1eo1KEj1oLJyETZsPv0oSbPqEeDzpwFXLgXso7igu7q68NgPv4/2zjaROKm27gD+/uRTiBpRGLqOyy+9FN954MFhK33wR7/CvgMH8ZdnnsOTv34YRfm5qKs/iJs/+1X88affxie+9E1cdO7p+NUf/orTN67Bdx97HNdcdhH+/q//w9LqCrzhjI14321fxNe+8FHcfte38Nlb34fqyjJ87aGfoKm1Hd/+8icFQXC7nMjPycLOmn2izV3f+oEgCMyQdsvn7sPB5lbx93Akggf+61N46Me/RlZmOv7wt3/iu/d8BuddfiO+ddcncd93H8Pnbrsen7/3IYTCYbz7sovxxJ+exEdvuBrXXvlWoWDM9DWbBIHGloaVRCErK0tI+4xBGI0gHDHy2SLIkAaTBIHtqWToelyhICngrpikhcZ+rggCT03QkFNhOaIgkCAEhxQEiyBYJIM7dyoF/JmeniFcGZaCEFcfwkPuCaoPIwkCFRm6GIQqMKGC4BHYW20lQZi5Tw51xi93vYS7Ol+J15gZ46qwp+LlssvgUcc/XioJwsw9m2PpSRKEY0FtGveQIJx+ynoEQyFkZqTBMOhHrURVaRHectnbsXbjpqN61+6ByLp4+WLgzjOA8jTAHne7iotGonHfXnR2tqO5rQN/+duT+Ns/nobfPyhk4MsuvRTfHUEQbvzkXWKnv3NPLa546wV4x4XnHkUQPnTN5Xjop4/jtI2rheHftHaF2MllpqfDMA38+Ff/Dz/4+hfQ3duPhx77tZCizzp1Hf79wiv40ic+iEd+9lt4U9xCkq4/2Ix3XHge/vt3fxEEgfO67rY7UVFaLPqievHwvXcIgvCGMzfhP1tfQ0F+Dr5w30P4zffuw0e+cB++8umb8fxL2/GGs05BbmamcFP86Fe/x68fvRc+z/jR7MfyyMYiCIkqwHQVhLiR1wV2YxOEQrHLphGkkjARQaCBZP6A8QjCaC6GmVIQ4upDjjDYY7kYLIJAomMZasulYuE7ewQhwcUgFYRj+WiMeU/MNLC8/lfYF+kf1sapaLjSV4l17hx8vP05sN3vi9+MN3tKxh1fEoQZfTxT7kwShClDNr0bSBA+8N4t2H+wBVlpmTBgQ2FhMUoX5OOtl7wFy1euGpUgWFy82Ae8dyXwhdOFS09cNGS/efyX+Mc/nkRTazNyc/Lhcqbg+RdfRH19Pa64/HI89OB3hvVL5eD0DasFoaB7sLqiFP0Dfjz30jZccPapeOHVnVi6qBy7ag+gfEEhdtceQGd3Ly4893Q0t3dg+65acc5+UXkpXt25G2ULioRasKfuALIy0rBm+WLsqasXhMLpsIsxGg61wOtJEeoDJ08SUFyQixAT+HT3int27d2HmK6LtmdtWoenn3tJtH/+5R3iJ/9NY7pyySL83ys7UF5SiFPXrUyqi4E7fqo2cV/19FwMJw9BGF1BmN8EQcYgTPXbLmIayKz9IcKmDo35XRVFkIH3py3B57PX446OrfjFQC2ipoFPZa7Bl3Pip3zGuiRBmOoTmNn2kiDMLJ4T9kaC8MXP3YbXtu9Gb18YS1csw0VvfBOy0tKwcNFClC6sGJcg+BzAfecCNxw5mSYIwh2f/yx+8aufw+lyonpRFUwd2LmrRviyr7ziCjz8ne9OODfZYDgCIxUESv2JAX8MhOMphtFjENJFgF1OTo6Qy60Ax5ExCEfcBPqQgmDtqI+oABMpCPphF8OAiGmgj55HY3myYqwYhEQFgXK95ZZIjEGwdvRWTMR4MQiJKgCVi6MVhNFjEBIJgrXeoxWE+L0kmzzlkBhoaMUgWHETR+49OkiRhFbUM0kMUhxXQZAEYarfCSQIvr3fB4MUr06tEqcW/hloxg8LzsE1LU/hD4MNQ13emL4UD+adIQnCVEFOYntJEJIINociQfjQh69Be2svIhEFZ515Cs49+xz43Clwe71YtOToxDp0MWS4gbdXAbdtAJaOyGtDP+6nPns7nvif38BUDSimAiNmIBiOQo/pgiA89MBDSV7p/BruWA5JSoIQP0UhCUKCP29+va3n3WyoDFTs/zlaYgGc7i7AI/lnoszuE8rBg707hXJgXfflnIqPZK6UBGHePcUjE5IEIckPhwThox+7Hv7+CDLT8rB+4xpUV1fD63bDiMWwfF38HHviteaHwP3nAZuLAeco31U9vT246WMfwkuvvRwPDDIUEVUvKkOaJt552ZW4967hiZIo4dMlkJs9firg3Xv3IzXVK4IYT7ZrLIJQXV0ldrEMqJuugsAAPB7FY2yBFYNwvCsIVCO4s+fpieFBijzmOPwUg1QQTqxPFZWDm1ufxaN9u6BCwanuPFQ60vDL/jrhdhi6TBN1FVtQavdJgjCP3wKSICT54ZAg3HDdu+Dx5WLj+vWoqipDQV4eNFVFv38QhQvKkXM4texkp/bc1mdx2x0fgW7GCYGm2GAaTOzjhKYAF59/MT52y+3DuqvZ1yAqPmZlpAvZtv5QMwpy48V7sjPTRX4CzmnH7josLC3CwGAAyxdXIv9wm8nO7XhuNxZBsPIgNDU1T5sgjHbMcSRBYHbEeA6FDHG2n0cIaVjp2mDOAp5eiJ9iGBBHEynFMx/FXLkYmG/gWI450sXAWJWReRDo2rCOkTI5UjyDYzzQ0HIx8F4GRfLfdJOMlgdBuhiS82l8JdSBa1qeRk2kZ9QBfaodD+Sdji2pVRNOSMYgTAjRrDaQBGFW4T26cxKE67ZsQWllNU5ZtxzZWRnIzMhCiseDaCwidpKr122EL3VyiUS6e7vwyTtvRl19LXSDhSBNKIaCdF8G1i5bA1VTkJ2dj5uu/8iwyWx9dScGBvxifK/HjebWTmRnpaO1vVOcrnC7XOL3Qb9fkAgmc+JpBgYgnizXZAgCd8tM1Uu/+/A8CPEYBPrGLUNGI09CQCNPY29lNqSv30qUxBMfNLCJJxGOTpTUIMgAd+dMlMSxaRT5GhMH0YgePNg0ZYLAKouNjY0iPwFdCyUlC8Q82N9oiZJotJknQKhVuj40JxJO/nu8PAg8qlhRUY7U1DRR/4BYjEUQmM2Qf2N/JEu7d+8ZIghMNBVPPJUjFB1mUpQEYe4/oVtD7bir82U8GTg0zK1QYvPijux1uC4tXuVzoksShIkQmt2/S4Iwu/ge1TsJwgevuxrli6qxYlklcrKy4BfV9jQsKi+GHgtjX0MDznrDJUhJGb+i3MBgH7701duw58AuxHSeh9cQNUyYugmX3Y21i1fDl5KCjJx8fOB9twybSzwzoiJOQsQTHlpe+hEZExPumkx53STDOavDJRIEGjym76WRp4Jgs9lFEiEaZ6YkZgZCGnerOBOrJVoEwTrHz6yEixYx9bBd/G20VMtMitTb2yNS/tL3z/4TCQKzHrLaJ4249TxooDkeDaVV+6G+vlEQhHXr1ojXaegtQsLARRaH4nPnvaWlC0QWQcr/zMhIQkCCsHLlCpGFkEmExsqkOF6qZWLFNM5UN+hu4FpGS7VsZVJkYSlmPKQKQFWECs14tRisTIpW0icqCGxP0kZixjwM6enpIicD1269RuLDufG5WKmWrWyRHFNmUpyZjxXdndtD3fiTvx66CVQ50nB5aoVwPUz2kgRhskjNTjtJEGYH1zF7JUF4x0WbkVpWjILsrHhlu1QWxQmitDAXAb8f/9n+KtIz8vDOS67GmpXr4UkZXhAnHA6gdt8O/O9TP8Oe2m3QYUd+5gJkZeRhf0Mj6puaEQpF4GRmRSg4/ZSz8dmP35nklR7/w5Eg0GBwp06jSUPEHSprIozMrme1pZrAi9UCSQIsg02jzjZWMScaMhowEoLJFGtizAOVBavY02joJhZ4sgiCVawpbjj7RVKm8Yo1MYEQx6FBZ7vEYk0sJEUjzzTKTC9NEkNjOxpxnEqxJiaHsvC11jWZWgwjqzkmFmsi3iQBJEEs1sT18CQJK0FaxZr4XJl4iipMYrEmEhQqHCtWTFyJ8/h/l8/vFUiCMLfPRxKEJONPgvDGN6+CkuYVyY+4hXc6U6BCh8OuIRoOwdBssKsa3E4nSooKsHHtqcjPzYeq2NDT14EDB3ahresgBvzdiEQNeJy5yM8uQv/AIEKRELr6etHY1IQYXQ66ifPPehM+/4n/SvJKT+7haKCoKqxatWJUIEgKuHsn6ZgMQZgMmiQR1m6aBIHKwdKli0WcBC8qF/ydhn/nztdFwiWOzToHIy/Wtr2C0wAAIABJREFUT6Cfn/5+KzOiVbmRa6MqMN41EUHg2Bx3vHLP7e2dQuGiG4PXRNUceZqH5CaRvFGlIUGwxqGbgmmZqbiMLPdsVXMkkaBLw8JyMtjLNrODgCQIs4PrZHuVBGGySM1QO1GL4ZK1UOwOmHoUmo0FlpgXPwbNYUBTFSH2OxwavCk2+HwaPG47Ulx2KAqLIjEK3IVwJCZKPYciOmB6YMSAAf8gPClpYtfX0tmOqE5fsIELzr4YX/rkPTO0AtnNZBCgWkDpvLLy6LwWI+9nW+5kadjoVpgJVw53zFQbKKuTFLD+gcPhFOOQINBAstLiRBdJBt0rlOqnco1FEBiAyFiHidZIBYEuBBrqkdfrr+8SigMN/UREZSRBsPrav/+AuJ84MQaECgIvfnbiBaKOHncq65dtZwaBk40gHMtx7JlBevReJEGYTXRH6VsQhEvXwWSuAgNwOlV43R54vU7YbDpihh+qasDlVODx2JCSQoXBLoIN48ECGkxDQygSEfUMgiEWvmH1vAhgMmuhGy5HGqJRAx1dXej3B/Cmc9+GL33yq0leqRxuviHAJEEWQaB7w3KHzMY8Z5MgcL5MnMQd/milphPXMxZBsNpYJx+kWjAb74Lp93myEYTpIzazPUiCMLN4TtgbCcL5l64VX2yGycA3VdQVWFBYCFMJwR9sh8NuwmGPwWYHoiQSMOP5+mMMRDTAXCM8URwNm7Cr6YiGFHT2dWFBQRk2L9+M/NwyUfHwhe0vYOv213DuWRfiM7d+ecK5yQYnPgJUK6zy3RPt4qeDRmJ5cKuf0V4bbwxrrtOdx2yuczpzk/dOjIAkCBNjNJstJEGYTXRH6ZtFmi65djMMPSqUAbs9hqqyUlSXLUNrdzP6Blrg83pg6H70DvRgMBSDTuXAjPHQAbwpaXA5vAjrA3DYbHBoPsTCKg51HESKk5UTS4SC4PeHEQ5GkJ6Wh/KFK7Hl8uuTvFI5nERAIjCEwHzTjo+TR8Pj1Xk54ydzO06WclxOUxKEJD+2WEzHZ+/+IOr2vYLMtFR4fG447A4sXbgWUTOMxkO74PWkon+wC83tjQhGw9DsNmiKAbtNQ1nRQuRm5GMw1A5V0xAJ6egZCKC9sxM9A92I6jqiERWxqAG76oLXlY0N687F7TffleSVyuEkAhKB4wWBpPKXKQzW3dMn8rLIa24QkARhDnDfW/c6fvDzu2HXTKR609Af9GNwwA+XQ4HTrcDtSkHvYBc6ejpE6mS7XYNN1QBNR0ZauohZgBmAw+FGT3cAPX0RdPcMIBgJI2boMHSIwLKYYcKIaTjv9LfhUzdJF8McPGo5pERAInCMCITDcZV15JHiY+xO3nYMCEiCcAygTfcW+la7ejrQ1d0KTdUQ02OIxaJQVMBmU0V8gjDwekzkL2JmOh73oi+VwVT8d0wPiVgEKgU6CQETJIlTk4qIZWTMgpUMKT01CwuKSqc7bXm/REAgMIUNoERMInBsCJj8LtTGzftxbB3Lu6aCgCQIU0FLtpUISAQkAhIBicBJgoAkCCfJg5bLlAhIBCQCEgGJwFQQkARhKmjJthIBicD8QkD6O+bX85CzOaEQkAThhHqccjESAYmAREAiIBGYGQQkQZgZHGUvEgGJgERAIiAROKEQkARhDh4nC+T0D/oRiEQAQxxTECcOFB4/iHZDgx9Q7dANL0y7T2RSZBUGVmkwYYhyqWogApXyKis+qSpUTY2fWmBGZrtNZFoMRKPQFAUuu138N6lLSraTgkk2kghIBGYRAdOE2+UU1W5PmGuC79b5+NUrCUKS33004n2DfuhqvJKjQoIgLhNqfx2c/f+HUEyFI6UANrcbg/YihOxFYHPBBwwdStSAs60XCvmATQPsNvFTVRQYKmCmemDYNESZEAEKXA47fIeL0SR5uXI4iYBE4KRG4NjNHmuH8PvS5XLOQwSPfV3zcDFjTkkShCQ/rTCLLEUiUEStZ1p9UygCRngQzta/Q9U70dTUhpLFS6Ha3YgpdvS4T4fdCMEdPQibqiPq98Lo0OLn0e0aTM0GRVOhqCqgajAzvFA8buimAdM0YLfb4HONX543yTDI4SQCIxA4Ob5w5WOfGgKdXT3IzsqY2k2y9YwhIAnCjEE5uY5YrCkokiKRFpAfmFB0E/ZACJppQrPZYUQaoYdeAGJBqHYnBjybkRbaDZsyCDhzERssQLjdJrwTTLes2xQoiiYSLVFJMLNToaamHi7yZIqEIz732ARBfjVP7tnJVhIBiUByEZDFmpKL98jRThiCcLwYuSGCwNSIJAgxHc6uQaiGCcWhQnW4WdEZRqQbRvf/wuEMwtR9UM3eeLyBwwuEixHtKxXloskKdCoHMKDZw9A8QSgeO0yHC1HNh4AtGy6nC2knki9vbj8zcnSJgEQgSQhIgpAkoMcY5oQhCHML4+RHJ0EIx1iZUYFpGND7B+Fu6hauAsVlg+p0Q3Foggyowf0wg/+EPaIjZlNhYhCm6oBdz4ARPgOmqcJQVBgkB7Y+2FIaYaqGcE2YjlSYZghB5CGcsRRZ3tTJT1K2PO4R6Ovrg6pq8Pm8M76WcDiM2tp9WL586Yz3ncwO+/r6hbrm8XiSOawcawoISIIwBbBmoakkCLMA6nhdkiAEYlERUEgNQT/UAee+FsDlgOZxQXW7BEEwbTbYzB4MKm1w+euhaABcpdCdC6Apbqi6CmUwDCUQhYFBqNoeqGYXTLsK2F2AgxXQooCpI5C6Ht685Ule6fwb7nhRmUYiFwwGRW0Orzdu7AOBAJqbW1BZWTEmyPX1jSL2pKiocFgbnqChgXeP4nKqra1DdnY2MjLSR+03GAyhubkZAwMDIvh11aoVGBgYhNfrEfVDRl6BQFDUGElNnXlyGolERJ7+0cad7DuvoaFRBMDl5eVN9hbZLskISIKQZMBHDCcJQpLxJ0EYiIREDAJJAlq74di+H06bHabbCc3rAlxOmKqCCE/4FOXCpTBmwQaoKfFCTNEYIoEAtJgBR68f6N4BaLVQDT8MzQ5FcwM2BdAi6BsMI+BZjqLVlyR5pXK4ySAQi8XQ3z+AzMyxA7GamppBY7toUZwQUB2oqanFxo3rp0wQaNAPHDiAlStXHHXvRASBxGDPnr2CeJAgrFy5HDU1e7FwYTmczqMjzfv7+wUZycnJmQwU8PsD4qwOq/eFQmGkp49d5vfAgXrk5+cNER3iwwJlFokaOaA4Wtw/IPo8dKgZWVmZaG9vFwSBBIZl2GdDbZnUwmWjMRGQBGFu3xwzTxCO121akp4DCUJvOCyqLmqs0hgNI+XVvXAOhmE67VCdLsTcDsQKMpBSWiTajXYxuDHQ2QN1IAB721YosQNA2BCBirDZAE2BoYTR1H4Ifs9aLD3/uiStUA4zFQT8fr+Q65cuXSwqdfKKRqPiuXOHzGsyBIEKQ2JZXEtBKCjIF31YO23K6jTqa9asQnt7xzCFwSIIbM/xRxroqRAEGmSOxZ1+eno6WlpaUFpaMub7mWMeOtQk1p6SkoLOzi4sW7ZkVChffPFleDwpKCsrFW15tbS0IhQKidc49uCgH7t378GmTRvF3xsbD4r5kAxQkSkuLkJXV5dQY0gqeG9aWhpaW1tHJU9Teaay7cwhIAnCzGF5LD3NPEE4llmcRPeQIPREgrAdzmygxEw4GlqR0t4pNv1RQ0OsvBApi0rE0cXxLsYw+Du7oTXXwNH/CpRIFIgFxPFH8HRDbIA/oC/YBMeStw7r6rmXtqG4IC6t1h1oxDmnbRj3y/skekQzstSOjk6kpaUOGf3ETmnM+Z/dbsfBg4fQ1dUtTrMUFhYgLy8Xe/fWiZ33ggVFgiRw50uDSaNGQ8b76usbhhQE9kUDWFKyYIgkWASBpIP3LFhQLKbAXT1VgBUr4rv/1atXJpCQgHAxkAiQUHC8xGskQaAxpqujomK4gsC5c8402jTk1pxpzK0+uV6uieQhrkjECUJHR4d4jYpAdfUiYcAZI8CfPp9PtEskCCx9TmJEY89x6B7p7u5BVlaWIAjr1q0Bn0VbWzs0TQXP1nNO/DuJAklSbm422to6kJmZiWAwgKVLl4jxZsM1MiNvrpOoE0kQ5vZhS4KQZPzFKYauXXBGD8EWMxHtV6F30+frEMccA7YYcs/eHM9pMImLX7T9e3YipfVfUGIBqNEgEAnAMGOImRE41BgGl1yF1OozhvX2re//AhtWLwO/YP/2z+fxyQ9di9/88UmctmEVUlLc+M/W19DV04erLnkTnnz2BaiKipKifOzcUyfue71mH84+dR2yMkf3V09i6id0ExpfGsPRAuCoGnCHm5OTjR07Xhc7Xhp5yvR0NfBvPT09QkKnAaMKQBWB7WnsaEBp6BctqhQGkUaa7bkDphGmAbR21ByfhpAGkfED3MUnEgTGEZCgULKnYpBIEPhvKgB0J5DILFxYNszFwDm7XC5hmEk0aKg5T47NdXDunF9PT+/QLp1GvqqqUjx7ukk4n3A4JNbOefB+yv808ryXu36qK2xL1SORIHBtFnacB10vxIDjkSyRINANwvUKxS6BIJCAcH0cJ5Eg9PR0i9f7+gawYcO6E/o9evTi5p/8KwnC3L4FJUFIMv4kCMbe78LmSoNiT4fWPwgcakNEr0AP0pFz3iY4vMOjqr/4LLBlGbAwPX7SceQV7etC5OXH4TIHxZe5GuiDEetFiMmX0hYiuPK98I0IVvvGoz/Dtl21IlCyrKQIF513Gu797k/QeKgFD979adz1zUdRWlwoUji/vqcObzn/TDz17FZcfelF+Oszz6O3rx+/fvTeE1p1oL+eZIkG0Gazw+nkbjwsdryJcj53zPGMby7xc9++/cLgkyBw50oJOzc37ofn/TRCNFBsS787fee6bggjSfKQkZExRBBaW9tQWFgojLtFEGgEuZsnEaCR7OzsFL54zpeGmUaP5IL3klzwdRpdBuWlpvoEAamurhKkgHENVBvYH9tQ4mefXB//4z2cD40vx+eu34pBsNwBg4ODQqHgWmnUOS7XOxpBYOrchQsXHt69t6O0lCpE81DAIckO50GyQAWmt7dPBEESt2XLlgrCsndvrVg710FjzjYcj+Nz/WxrEQQqMsSDikgiQeC9Fs6JBKG7u1soFSRglnsiyV8RcrgEBCRBmNu3gyQIScafBCH24u1wZFZBc+VCUWxQ/X7o3TH0xYqR/YY3HDUj7R5gaTZw0zrgxjVHT9iIRRF47W9IGdwGk7mWqSJEe2E4cxF0nwdb+UKkFOUOu/Gb3/sFsjPThYGvqz8IPRZDZ3cvtu+pwze/+An88vd/QXlJIba9XouGQy24/wsfxafu/jZ++I07ceWNt+PMTetw58dvTDJ6yRuOxps7Txopys00ljRKNH40LDRUPCFACZ8uAe5kuTPmTtsylCQIra3tPNGK3Nxc9Pb2CgNMw0lDTcNNUnCsBCF+L9WH2LgEgTv67OwsYdwpm9Ogk7RwDXHDqQ0RhPiOOkfs3Gnsea9lSGk4icVoBMEiJjTI4xEEukw4bxISzoEGngoH52aRmrEIAkkQgzo57/EIAskMFRM+B5KdSCQsjnxKgjD7nx8GUf+9HliRA+zsANoDwNurgN1dwJo8YFcnsK0dOK8MiOrAjg5gWTbw7KH43C5bDDh5YuvwJQnC7D+z8UaQBCHJ+JMgmC/fA0dqNmx2Jwwno9fdCPV3I+KuQEb15lEJglWx4cwFwINvBJYnBIaL+g6vboO3bzsU/SAUMwJD9UF3LIHhcgDFlXAXlA/r9wf//TusXlYt8jH86/mXhfvggR/+Eg67HXd/+mbc8Mkvw6ZpeOiez+AzX3kQqqrgTedsxgevuRz3PfwTnLFxDc7ctDbJ6CVvuDhBqBGG0jKujBFINLY0pCRY9LfTcPEeEoa4CpAuDC9dOPSr0/jFd7iUz7uTQBDyRcAdFYTRCALVEFEb7HBQoKUgWASBcyWpYaT/TBIEYsL3EmMBSBA4biK54LhjEQTr3kiEKsfYCgLXYKkP0yEIfO7l5WXD1KLkvQOPj5FGOiVeagG+/B/gYxuB77wSJwW3rAM+/2/g7rOBh18BGvqBT2wCPvMMUJ4OvKMKuP0Z4OplwNurJUGYT09eEoTZfBqjuPRIEGz/+jQURwyKMwOmJw+mmo/Ona/Dt/F8+CpOHZcgkF2/bxXwwPnCth++THTveBWpfTGg5mUoWS6Y7lYovigUnw9m7npoecNjEMZbds2+Bmx9dSeuvvRChCNRfOG+h/DVO24Vt+yuPYDH//h33Pjuy5CXnTmb6M1p35aCwN0o/fKU8WlsuTtO3I1TirZ2tokEgXECVAx4xI8EwbrXMn7DFYQjMQgkFyPdBGO5GI4oCLqoehd3McQJSH7+5AkCjS1JDnfdvNeS66kGxNWQuMtjJhSE8QjCRAoCkxqRkI1HEEaSi+kRhEyUl5dLgjCFT2J/GLj7eaA8DXiqATilEPjIBuD2fxwmCK8CDX3Al84Ebn8auOtMINUJfPQp4CtnA+54vKpUEKaA+Ww2lQRhNtEdpW8SBOXxC6G5PFBdaYDTCcWRjYhuQzRnE1JXvWVMgpDhAh66ALi4EkhJqN4sIsIbm5GqOqC01MHW/GcYKRrgc8FM9UHNWQMt92hlYqylU7aO6bpQE3gFQ2FRepUXd8q6YcB5+EhekuFL2nDElIGG9G9bvv+RCgINKGM+SBJGVxBswqAlhyAwBiEeR0D/vUUQOGf69Ue6GBIVBIsgsA3vnT8EgfEFRwIc4wRBHdfFMBMEgeSNz5R9SYIwtY/ci83AdX8GbloL/L4W6AwCT7wduOhxoCozThh+thN4+M3AH+uA/90H/P4y4P6tkiBMDenktJ42QZh/ca/JAe5YRyFB0H5wFuweDxSXC7rdAdi9CIc19KlFKLzs7qO6zv4m8I7qOOvOHyUrrKHr6DnYDJ/NCZgGlKb/QOl/GSFnADGnBkf+ZqSUXTqs30F/QLgQJiql2tc/II7VpZxktRwsgmCdm6evnpK4FaFPPziNL10KzGPAOAKeKuBRvXicQvpQkCKBJ5lgdD2JBHflM68gTI0gJMYg0PBSQUgkCDSQVA5ILmZSQWAMAt9zHI9zIE6Maxg9BmE4QeAJDbpExotBoFEnqePPY41BsAjCKafEcyjIa+4QkDEIc4c9R542QZjb6R9/o5MgqD84F3ZvOpCSCl2JwWYqiMZUdPYEkHP1D+BIGx5Q+J9DwNr8o+U3a/Wh/gH07W1AWvrhYw5mDFrDDxBGJ0zVhKNwM5xV7x4GVt2BgwiGQsjMSBeSbUt7B3IyM+KVH70e9A8MCmn11R17UFJcIBSD3OwM5JxEpVcZzEf3gXVygWSAJxZo5EaeYiC4lPwnOsXA++kjp1E8corh2FwMR04xdB0OUhxdQYi7D6xTDPEgxSOnGCrR0NAwRBDixjd+ioHrZL4F6xQDlQUesxwtSLGkpFgEZE7mFENFRfwUAw34+KcYhhME1n7ge5XKzlgxCFwnU0JP5xSDJAjz53tVEoS5fRaSICQZf1Gs6amvwOc/CLgyoNDF4G+EEgogEBhAu1aF0vc8MOkc86Zhou3V1+H2h+H2emHYbTCdNtg7/g5EagDFgFqwAWr1O4etdOurr2Pv/gZUlBajurIMPb39cDrtaG7tQH5OFoLhCELhCA42tSA/N1vkPeARR0aCy2tiBKaTB4FxCNZRRRpk+uYnzoPQK04E8Fgmd9otLW0IhYJil04yQnWgqYnZDBcclQeBcQf799cL4844BCtREv/NYELGuvB0BgP2ElMtW3kQmMdg1ap4HgQqDsyaSFIx2jFHGl8qLbwmzoMQP17JPAg8KWIldbISJXFt8aRThlAl2JaxH8RuenkQ4vkXTr48CBO/r5PdQhKEZCM+fDxJEJKMv8iD0NwKR7AHZrAZWufL0AbrYQZaYQQC6PGrCL/jIRSWLZqQJBgxHZ0v70KspgGZOdlQnQ4YDk2QDjWyA2roBSgwoBRshLJ0OEE41NIOm6aKXWI0GkNPXz/S03yg64H+aW9KCrp6esGSUi6XQ3wJ8+/pqfFsdvIaH4H4kULfhJkU6ZJgW9YgYDAid+lMeRw/y18MTWMmxX6RKbC4uPhwTob4zt6qxUAjSQPOXASWsmFlUqThZM6FiTIp0rCTSCQShIkyKZaXlwrScXQmxYiY85FMiswdYRe7fqt4FNUTxjuQ1FgppeOZFJkIKi0hk2JQ3Mc1WLUSEjMpWsc0iSHzVTDAs6uLmRQzhzIp8m90+0w2kyLzLTA/BZ+fvOYWAUkQ5hZ/SRCSjL845tjaJRIQqVED6D8Ee82DMAb2A8EowjsMtJ/5FihnXIuysrJxZ9f85PMwX9mHzLQ0qG4nFJcDhlOD6U6BTd0BxXgJmhGFmbce6prrx1+pDCZJ8jshPpxVi4F1B2hEeTFOgddUajEwsDSxsqFFEBgnQWNs/c1KtTxaLYa6un2CIPCabi0GjslYgGg0XouBBCRZtRg4Nk90jFaLIZ7XIrEWA1UWJmIKCWJCUjNaIas5eXPIQSEJwty+CSRBSDL+JAh6Qws0ux1KTAd0HbbGfyK66+swDSfsGakImUVoX/4eBPY8hQVrzoKzaAVUVzpMHmuMRhBu2YvBne2wt4SRGmPBpyhM6sAOGwyHAjPVDUfmP6DZw1CCfUD+Wqgbb0nySuVwk0GAZICSPiX5sa7JFGsaee9Y5Z4Zf0B3AlMQj7wsgjBWueepFGti31Ot5mjFZVAFYawGM0aOdR040ID8/Nyhao7xktiGMPajXYnVHK10zoyBiFdzTBPJpsaqBDmZ5yjbzA4CkiDMDq6T7VUShMkiNUPtSBCir9VCc9jFrk7lqYNICNFtHwcQgEOxI6y5ECs8B86G/2DAUwGj4ioYbp9IfKCaOmxdzfA0N8JhWwizNwCj3w8zEEEsqoOJFLE6Ex73H2EaYaixMJC/Hupm9i+v4xEB7m7pRrDqOtCQNje3orJy4ZjLGYsg0FAyEJFpoadKEBj8RyVgYKBfHO9kHQcSDs4rUb2w+uVOPRaLzkrRI66BCsto4072GTONNAlCXl68aJm85h8Cxx9BOLGk2GkThBMLjrE/IDO1ThGk+PTL0Bw2qOILzgabGUW44RsI9O+Gw04e4IZTd8HmXQC96gMw0wqhaBoMuyq+EJWIDrT3INo3CFvHINDRB7MngNhgCNF8DyJbzoB9YDc8O3+OiC8VWsWF8FS9af59+uWMZg0BBtnR5z4bu2Lu7qk20Fd/PF/EiCSDMQ4n5zVT32qzh97xRxBmD4u56HnaBGEuJn08jymqOf7879DcTticdqg2DXYFCPd+C91NryPV5wUGAnA6MoHiLdBLzgBcdmgOB0w7AxDtgGHAjEQRbutGjxPwRlSojZ0watoQ27IJsdxMBPZuR7CtCaENm1Hoy0Yp+z3Brvn/9XaCAX7SLUe+w+b6kUuCMLdPQBKEJONPgtD3pZ/CluKCze2Ew2GD0xaEnvY4jGAERsiPcCCAUF8a3FW3QMnMgupxQeMZe55QsGmAPV7NxIhE0cWyzhluOB0eDH7/z0i79lRkHPgTepv3IyM7FWFfDqJFZyO77GQrXZvkByuHO84QkMb/eHhgkiDM7VOSBCHJ+LO2QfudP4XaxQyFChz2AJxt/Yi9rQ3IKYHRvgc9rXsR6zDh9X4CWroHtnQXVJF5UYMpVAceZ1ShKSqCho4ujwlPfjHC259Frv8Z2Lq3oakrgrLyLCjuPBhlb4Cj+rIkr1QOJxGQCEgEpodAZ1cPsk+i5GzTQ2vm75YEYeYxHbdHHsHqeLkG/vp2qC9+H7bga4DLDXX1Amh5C+FUUlG37Rns39aAU9Jvhp1HFtNToKV5oHhcUNwOcZwRrIXgUEW1xo6cFKSkpcN84RfI6PotOvsBX4YTLm8q7OkLgAVnwbHwrUleqRxOIiARkAgcOwJM0mXChMsZrwMjr+QjIAlC8jEHI8l7+/vR+8xjMBU/NK8XcNF14ISqOaFE7dCC/ehrzkPUtKMzFkZVTh4UuhaEm8EG2FQRuGi6HAine6AqCuwNz0FFB3oHdKSn2aEzJbDTC827AFrmsjlYqRxSIiARkAgcAwKmKQrEsUqpvOYOAUkQ5g57ObJEQCIgEZAISATmLQKSIMzbRyMnJhGQCEgEJAISgblDQBKEucNejiwRkAhIBCQCEoF5i4AkCPP20ciJSQQkAhIBiYBEYO4QkARhzrCX57DnDPoTcWD5djoRn6pck0RgThGQBGEO4OdRx5bOdtTv3wePbsCumrArToQMFR2hASg2BVqqArtHQ7hbB6BCdZrQwwbLMUB1K0BMQWzAYJVgaOkKFNWEEQKMGKB6FBghE1BNIALkpOeisrxyDlYqh5QISAQkAseGgN2mDVU0PbYe5F3TRUAShOkiOPL+SezkXn71Vdx692fQ3H8I5/RFUWC4wUI4LVo+/jKwE85UB0ovyoOtQMeh3/fCMG3Q+8IwMsKiYp3La4e9UEWkWUFwZxRaPuBerCLWayDYFYO3zIHBPTGoKYDRqOCKt16BB+99YKZXKvuTCEgEJAKzhgBrfjidDrC6p7zmBgFJEJKMezSm4+pbr8LvfvkHuCtyURSJYoNWCbvPjsxyN378l2eA0zxYdFoJnKkqXn1iDyItOoK1QSh2B9T0KEy3AnumCmeOHdGBGEINUdhSVdgKAUM3ETkImKYBW4UK1QVcveY9+N6nvp/klcrhJAISAYnA9BDo7ulDZsbYZb+n17u8eyIEJEGYCKEZ/nswFELZ+UWIhEPw10fhzEvD8pxi3HzmcjhDfmxt7MPPWp4HfCk45do1eP57ryPo7oXRCYTqDRhBHWbUhGmYUPJNaDkKNJcCIwAYPSYUqgYBBWbEgJKnwpYBbHnLFvzgQ4/N8EpkdxIBiYBEYHYRaOvoRl5O5uwOInsfEwFJEJL85mCxpowl6Yi1xeAo1hDpVZAuCJwbAAAgAElEQVRemolHLzgfqjOCUNCG+596FvXePrzpU2vw/KMH0NzagpIzs9HyfDcG94ehhFgTOgIzCihuFVqaDi1dQ6Rfh9kMpDhSENZC0G0GtBIFW956NX70cUkQkvWoGWPC/1iamz8VRRE/efH3qVzW/VO5R7aVCJwoCMhiTXP7JCVBSDL+JAipa3OA3jDUlFTY3DYgGsYbq0rw4XPPAHQdf9peg192vIS33HoaXvlbI7Y/VoPKdy6AM82Gun8eRGhfDEaYAYqKCFrUilRAM2G4TZjNJly6C9GMGIw+A/qAiWsvfzd+/L0fJ3mlJ+dwNOg1NbXiuRQXF6G/fwButxv9/f3QdR3l5WUijsQwdNjt9glBamhoFP2cKH5YYtDT04Ps7OwJ1z5Wg8FBPzyelCmTrWMeUN44ZwhIgjBn0Mc3NKa1tZnbeZw0o5Mg+FZ7oWoqDIcJNarA6NVRYMvAl657G6oKC9Hc2Y47/v4bFJ5eCNWRgf/8+GV409xYesViDHT2YOcfa2G3O6ArYbiK7AjVRqE4FThWAf6nDEABnIsBvUOB3gpcveVqPPbtH500GM/mQjs7u4RxotEf7eLHaevWl5CeniYMe1tbO7xeL0Kh0BBB8PsD8Pv9yM3NGXOq3d09yMzMwGQIgqjt0duL9PR0oVqMddE4cx4ej2fUJhwrIyMdqampswYhA89qavZi5coVQ2P09fWLYDSXa3J59197bTuWL186aoQ7g30DgQCyskaXpdvb2wU5ScSJ2k6IZdj7+sC5VFcvmrX1y46nhoAkCFPDa6ZbS4Iw04hO0B8JQv5ZBYgGI4j2hqF3mLBnZMHpsuHmC9fjvBVLhIrw/O5teFJrwcYzzoD/NTuqFlUhoywdXeEOPPWPv6GmvwYtdW3IKM7Aod81w+ZR4Xm7DeF/G4jsMmFbYsLgCckG4F1XbMFj35cuhuk+6q6ubrS0tKK8vFQY2VgsJgwulQASgZKSBcKVkEgQWlvb0dHRgYKCfPT29mHhwjJxYoVGPT8/b9Qpsd89e/YKI5hIEDo6OtHU1IzVq1cOu4/tqVpwXikpKcP+FolEBDEhoWF1vM7OThQVFSIajcFut4F/d7AyKIDa2jphPEkSpnpxDjS6YxEUrr2ubh9WrFh2FEHYt28/0tLSkJ2dNe6wxDYQCGL37j0CAxuLlo24SOCampqwZMnioXWxCe/lHEkuSPBKSkrg9R4hSryPykYwGBxGXqaKg2w/swhIgjCzeE61N0kQporYNNuTIHhzvUDMAOwKFJNfqm6kLHFhbVUqvnjq22Ay70FqEWxLVmHlsg3wOL3DRh0MDeKlvS/igZ88iGd2/wM9L/WKL+bym/LRvyeErif6YabGgCwF6LLh6kuuwmMPS4JwLI+OrgFrR01j3draJgy30+lEe3sHDh1qQmlpCZqbW1BRUQ6fzzcmQeC9mZmZ6O7uFsZQPLPyMjEtGnGSDxrvxsaDgnBs3Lh+XILAewYHB0HiQtKh67Eh40aDR7cEd9NUK8rKSgVBiUajYgySAa5hYGBQqB0kK/v3H5gSQRD5PFpahRLCn8SJc2C4BXfwNLY06EzW0dXVI9wsFkEgTpwTYzImSxBIZkiEqEKQIBAjzjvR/cJ1s7+SkmIUFBQMPXKSAz4/KjPjEQS6LxYvrhpTITqW99D075nE2enpDzIve5AEYW4fiyQIScafBCGt2guj3wBS3HAVZEHv6wfcAThT7PjGOZdi1aaNWHHBdXC4R5eCrSn3+Xtx1cffib/+5knADWSv8cBd5cGhX7bB7DdhlpowG4FrrroWjz00PAaBfnBFVUSZ6Jiui5+8+LsjwTeuGwYUKFDV8YPr2C4W00U7m6bNjX94hr9HaQB37HgdK1cuFzvQgwcPCUNIgkAFgOTAijGgAeKOfNmypXjxxZfFjpiyf05OzpCCkEgQUlN9oKth/fq1AncabqoGNOZ0LdCQ5eXlCiNYWFiAnp5eYXRpAKurq9DV1SXmxH9bCsHAwMDQvfn5+WI+vOJ9ZoodPN0eJAjbt+8Qhpzj0mAuWlSJ+voGQRD4VqDhtojRyMBKqiY01JaxX7iwXGBB5YFrospB4kPyQcLAuVtuFuueUCgsdvBUNvhe5BoWLaoAVRKXyznMzcE5cp3Egu+vSCQqlBKui0TBUkC41pEEgQSJuHINmqYKFYXrdbncKC1dMEQuLAWBuBNvYjSeuybJXxsn7XCSIMzto5cEIcn4kyDknlqGyGA/9MEQEFGhxhQ4limINNixvqAEf/nLU0jLKZzUzJrbmnHR9ReiprUGDt2O/EvT0PZcD/pe9ANUsPcrePcV78ZjPxyuIHzr+7/AhtXLcOq6lbjnwR9h09oV+M+L2/DP51/G/3vsm9jf0ITFlaX4yeN/REXZAlRXlqGvfxCVZcXiy7axqVXsDqsqy6CpKn7437/DH578N5wOO2667kr4PCnIz8uBy+lAS1sn0lN94rhS7YFGpLhdyMvJwqHmNgwMBpCVmYb+AT+WLCqf1JqT1cgiCDQkBw82gUZ9PILA9jRWNFzclXPHPh5B4G51yZJqsfsnwaCRGosgUKHIyckWagHVh7ghdQmiMhFBoF+dpIMEgEafqgN9/mMRBO70uU4SFBKgqqpFoj1/j7slomhsbASJAXGhcjKSIFBVoMJC0jAeQSCJsAgRyQMx4MX3Fg05DTxxb25uPezCGE4QODaJKTGhkmARBBp5js3+iR2NfSJBIPYVFQvhdrsE2UgkCByPGJxyysZkvdXkOGMgIAnC3L41TkqCMMMbzSk9QRKE7PVLET3UCj0agZJiQrGpcBcBwV0qfv/4b3HRxRcN6/P5JuDUorGH+fvWJ3H9tz4IXYnCuzyKzh39GNwdRigQAxpNXPOua46KQUgkCJ+95zvYtG45vv+L36F6YSk4R38whMWVZVhSWY70NB/u+Op3cMYpa3DHR64Hd38P/eRxvLqjBtde8Ra85Y1n4ke//D2K8nOFwXpt11488ccnsWJpFVYsrsCzW7ehMC8bH73hanzx/kfR0d2Dn3z7S7jkvR/DwtIiNLd0IBKN4tt3fRKrllZNCc/ZbGwRBBoqGmTGEVguhtEUhOEEIX1CBYHGi33T4NLIU/KfiCBwHmlpqcJYT5Yg0CdPZYAGeyyCwJiElBS3aJdIELhrJzGhQbViFjTNJuZrrbeycuGkCUJ8vRGxk6eCkEgQiC/nSHJFIsR1kmSxHd9zJAAjFQSLiK1atULgZxEEvs45k7BFImGoqnYUQcjIyEBqqhd5eXmSIMzmB2kafUuCMA3wZuDWk5IgzABux9wFjW/6qnwYzX6Yig1mNAwtqgFlOhamVKFmx56j+rbdA9y8HrhpHVCRcfTQPYO9uP7rH8D//s8fkH2eA/17dMQiIQQaDKDJwNXvvwaPfWu4i4EEYc3yxUI5+Ow9D+LUDavQ0tqBxZXluPIDnxKvkxj87MG7xA7tvbfdKf597+duhd8fBO9/cfsuvPX8s/DBay8XBKEwP0cYu121B/DQY4/jF9+5G9/83s9xsLlN/O3uT92Erz/yUzz93Et47v/9GDd+4sv49C3vw4M//jWMmI5N61fiw++54pixnekbxyIIxcXF8Pspn+vDXAzjKQj0ldPYWjEI3KXSONKoWSqARRBouBgwl+hisBSEqRCE1tZWQWqoBnCHTeM5FkEg4aALg64AGnBLQeCcrfn4fF6xs4+7LhThnuDum4pE4pxJosZSECwjPxpBsNbLeUyVIJDEkFxY9xJfKicMJh2PIFAZ4bjElTETdDFIBWF6n6SOAOBzAAMRIKwDBd7472lOYDAC9IWBHDdgAOgPA6kOoCsUH7PQCyR6MyVBmN6zmO7dkiBMF8Ep3i+CFEtTgLACM2aDEtWh2lUYTgMfuvEWPPiV+4/qUbtHfB9jaRZw3UrgvSuB9IQTYdFYFLd8/WY88rVHkX2GG3rARNCMItphwmg38e53XoMff234Mcf7H/0Znvr3VqEScHd23pmnCIKwenk1fvvnf6Crpw/vu+oSoRqEwmHcesd9ONjShl89/FUcbG7FzXd8FYvKS8SOnwThB//9Ozzxp6fgSXHjthu24F0f+gye+MHXhBvhkZ8+gfNO34DNG1bjti98DYP+IJ7+zaNxgnDr+/Dgj34NQzewcc0y3Pzed04R0dlrPpIgULam4Uw0QokxCDNFEEaLQUgWQaCBpHEnMRAGu7UdGZlxwnIiEgSuKzc3G21tHUOuDosgMI5i5JHI2Xu3nRg97+sBvv0ScPVy4Fe7gDwv8ME1wKOvxTc5v94N7O0Grl8d/52E4ZIq4GsvABsKgPevBpgaxrokQZjb94UkCEnGnwQhc3E2wr1B4btnymQzaELNduKBbzyAD175vlEJQjwPX/w6vRh4ZssRpk3DdMv9N+HBnz2EzFI7nLqG3tYoYl4DSpuBd118HX507w+TvNLjf7jpEYTJuRhGUxDmFUGYpIKQOOfjSUEgQbDUB2sNFkEgESwvLx8KZJxL1+Tx8mlq9QOX/hb45nnAZ/8VVwueuwa4/R/A3WcD39gKPPwq8MJ7gLv+A9x3LuDUgI88CXzl7OHkgGuWBGFun7wkCEnGnwRhwTnL0b+/FYY7Brupwmb3QrfH8PkbbsenP3r7mASBH6SLK4Fb1wOnLzjSjBL1Rx+5Bd/7xSNQVRNZiz1o3zEAPQWIHVJw7eXX4IdflomSpvqoxyIIllxPHzllbEbiM8hwMjEIierDWC4Gy1DRLUFjW8jkWc3NwpDFXQxp4ImFRHLBOfA1q3+eYqCLgaoH1YfJuBjYhtL+MAVhGEHwiaDB0VwMx0YQvGLOI9d7xMUQPwlinYCw2Xg6RhUuEMYyMMbAikGw5jzSPTGRi2G4ghA/gjoWQZjq++dkbN88AHzrJcChAXU98c0M1YT3/Ql41zKgaQDoCsYVhK9vBSrSgS3LgDuflQRhPr5fJEFI8lMhQSg6ZxEi/j5oC0IIH3TBprgQaurGOy54Bx7/xa9HJQiVGcDXzgPOLon79xKvcDSMmx+6Ef/z9G8Rbo0i9TwTvXuiiDYBpl/FlvO34Edfl6mWp/qoJUGIH7M8EoNwchGE1atXCRImr8kj4I8C9b1Avhfo4SEtHeB3F8kCSQO/uzoDQGlaPC6hOwgsygTaA0fHH0gFYfK4z1ZLSRBmC9kx+hXHHM/Jgb0ihNDrKiJdOkyvAbMXyLPnob72AFzO4Slnr/9f4K4zgbwx0iIcbD2IK+96O7rTBgBfP/prutDxVx1agQJ7joLLT70aP/zCcAVh7/4G2G02FOTliCC5MDPq2e3iCCN3agxM5O8vb9uFnOxMEWTotNvhcExcPyDJkM7acGMRBB7vi6f09c9rBYG7YaoOzEswWQUhKytL7OqpOlhBgxMRBNaVYF4BnsDg0UIredJoxxyHBynOnILAvAVUGxg0yXGtExATKQjDTzH0DlMQ5DHHWftoTbpj6WKYNFSz0lAShFmBdexOSRDKP5SNgV0RhJt1INMA2lWYfg1Qgc984pO467N3TWlWP/3Tj3Hv3+9B2OVHtLMXzf8ThLKYGXIUaNnANW99Lx665ZFhfW7fVYsDB5uwoCAPuTlZaOvoQqrPg4FBP3Kzs9A3MADTAPbuq8eConw0HmrBBedshtczPJXvlCZ6nDUeiyBYiZJoeKfrYqC8Hk8odPQxx+m6GOgKIMlrZWBldtZQtsPR8iCwjkO8hsHRBGHBgiJxTJDHH5lPgH1S3uexSLpWmE9gsnkQrPoUzIZI10Gii4GZFVkrge6S+CmGybsYRh5zpKuBmPJUzeSPOUqCMN8+osMJgowCSfbzkQQhyYiTIJReWIn+rjaYGQaMBgVGhwk1AhiFBpwLNPzhvr/gDae+YVIz27tvL975/Teh6bU+bLrKg3/d2w1/VwSOFQqi9TocGU68/8Pvxzeu+daw/l54ZQecDgdcbicCgRAONDahrLgArSQKqV7k52Rh774GYQwy0nwIR6IoKykSbU6WKzGTItP3suZCYqKk6RKEiTIpjkYQmHSIr3OHP1EMgkUQSAisTIrjJUpiKuKRBIHHEZl6OPGaTCbFySVKGk4Q1q1bI4iBVe2SGRU5PsnLnj01Io/ByBiEY82kSIKTeG88UZIkCPPtsy0VhLl9IvOEIJw8zFBUc1yfCm+hF+G+QUT269DcKtxLVOiuGPRuDUuKluD+99+Fs8+7EIqqjf4OMU3UvfA0bvjOh7GrpxGDNTGc+5kc/PnzbfAudEBLc6LnxV64Spy48abr8Y13f3tu32nH4egkCHV1+0UKYF6skWARBBInGmkaNAbK0dgzuI27aatYUzy9r21YquXEIMXRCAIlcqYn5nHDysoKMQblc57RpzzPmIBly5YIOZ+GlMWXqEBYQYosBjU4GBA7/USCQIPN+ZMAsL9t27YflUnRIgg0zDxXyyyDo13Mf2ClgGZlxpGplin1l5aWCnWArphgMCAMO4mFlWqZhp/zYCIjVlFk4SUWu+JaOO/EaplWzQkmTaJiwyBF5nfgHKjmjJdqmW0Z6MlnSQWER3oZ4Ei3CV0oVjpliyD09vaIQk78m7zmHgFJEOb2GcwTgjC3ICRzdBKEjM0ZSMl0o3/PAHzVaVDzIoh2xBBpMOEq9sLmjKI66MGW096Ed916JzLyEo4sAAj2N6PuqS+h899/xh9aQnj4930ImzGsvc2Fupc1pJX60PlCH4J9IfgqPHj3lqvwwHsfTuYyT5ixaAypHIwkCDTkrIdw4ECDqGNw4ED9UAnisao50lBZBIHGkUaKxooXDRgNKA0jDR8le+6ox6vmaFUopBFmnQgadhIUXjTAJCgkEFQQSDaY5IjGmGOT6NBPz1MRubm54l6qJCQQU6nmyLF5Lw0sXQ4WVjTaNOxWxkWunWNZBKGiomJo7ZMv1hTF3r17hZHn7p/PhtkkE2tFjFWsifMgrlR9xi7W1CvcLCQdiQWgTpg383G4EEkQ5vahzRxBmEgEmOjvc4tD0kYnQchhkCKcyKzOh3+gB/2N/VB6dHiq3XCWGQhwF2UzUKDZoTcpKF94BpbmlGFpZg60cDPy1X+gwH0QuqHi1Vc0bH8hB4/t64KyRoVvrRdONQ17f10HNd2OtIWpuOzii/HQhyd/zFE+qtHfDjS0NKw8OsjgN+uioeLOloGAo5V75s6VxICyNtUIGm/2NVa5Z/a7d2+tqIGQSBAogTMAr7p60bAJ0vixEBNJwHiGjbtpKh7cfY92sY+pEoTJfnBoeOvrG0XdBqoOK1euGLo1XiPCJ9wgk7leeumVMcs9MzCTGC1eXD1qVyz3zLF4DJSExrp4H/GlMpM4t8nMR7aZPQQkQZg9bCfT88wRhMmMJtuIOgcFby2ENycVxqCCYFcfnEUOuLNtiBkxwG/C1CJwpwXhP2Ais9XERp+ODVVuLFqQiux0E6muXphGDNu6gfZ2BeUNNjyz24vvF8Sw6A1ZqPtNF3obB6Bmq/CV+nDpBRfhkVtluedjfvslMKZ4HgDHUKXEkX2OJAjctVrn+GnImZ2PSgF33uPt1Pl3SvyJBGGs+Vvqw8jd9GhzY82FsU6ikORQDZjNo30MThxJEPgaiQ3dDJO5WKqabo3RyBCDJknYEl0UiX2SAFD9GVmhkvdxHlQnSObkNT8QkARhbp+DJAhJxp8EYeF7FgGKicziTMQQQW9DF/QBF9weLxzZUfi7mjCwTYd5yIY3pai4flUIhacosOfZoGoGYFfR0RfGc90OFKVGsSikomWngpuiBkpOqULtE43obw/C9ClwL3TgqjddgUdulXkQkvGoaawpY9MQMWKfagHz/ceD7+IEYSrXZAjCVPqbD22J0UgDPR/mJecw/xCQBGFun4kkCEnGnwRh8SeqoQ7aEGwPI+QfgM2twJ3nQsQfRqA5hHBNFMag4BA4Kzsf78pqwZLTVLiLVQQ0G1r6VfSGVPSl6ShXDBQrEbR0qLgtoMLTkYq6f/RCKXMiFgkjY40Nl556Ob77EakgJPlRy+FOdgSkr27a7wBJEKYN4bQ6kARhWvBN/eZgKIzNH9uE9r5W2D2A6dYR6hhEoDaGcLsLencYRiTGsDXYFQ0r8/NxPppx5iYbDjoVcToh1a2jsiyMA4FUpERCKLBH8K8WFff7Y1j5lANPhaMI6ipUJYa01XZcuuGdeOTzkiBM/WnJOyQCEoG5RKC9oxu5OdLlMxfPQPBbk3qfvJKGgG4YuOuP/4XH//VLtO9pxuDuAMIHYzDtKmDXAKcOVTFg2gBXiobqSDYuDLZi01kOtKbpKC5UUVaoIBZS0BhNhz/shj/kwb7ePfhzi4GivQpe6nNjsDgAxaNADxu4/NR340f3SIKQtIcsB5IISASmjYBhmCKwl3lZ5DU3CEiCMAe4N7e34OGfPoL/+/f/IRrSAdUAnDYoNgdMPQLFNGDPccCMRpEx6MLaSBCnrDThKwYcLhWqQ8VAJBWH1ApsrY2hu70Hi4sbMBgwcahVga560LtwAIEDJuBRcFrZufjYDR+dg5XKISUCEgGJwLEhoIhcHM7jO17lOHczSYJwbO/dad9lmIaogYCx9BvlyBCMRVCU+H/WZYL/UECWzUtho4TL5J8Pv8SAMKbKldeJi0DC4z5xFylXdlIhkPB1d1Ktez4tVhKE+fQ05FwkAhIBiYBEQCIwTxCQBGGePIjjfxrHuZZ2/D8AuQKJgERAIjCjCEiCMKNwys4kAhIBiYBEQCJwYiAgCcKJ8RzlKiQCEgGJgERAIjCjCEiCMKNwys4kAhIBiYBEQCJwYiAgCcIcPMfOnj78v6eew/aa/YjqhjjGo0DloQRxMkH8//AjCzCtIwnm4d9MnoAwRXEgnogQv/NUBNsZ8dfMw6+vX7kEWy65YA5WKoeUCEgEJALHgIAJqGq85LhMy30M+M3QLZIgzBCQk+2GRxsfevAB/OrZ3YjafYIOsCa9oqqHiUH8Z/xKPOhDo28KIsD/LFIQJwO6IAcmf+okCwZMQ4duxGAaJi4+dzPu+tgNk52ibCcRkAhIBOYcASaVC/iD8PmOVE6d80mdZBOQBCHJD5zV4m695AwciqQi4EgHipZA1Wxxliz+RyVBiROBhItKgfUfaYNh6EJTEKqBIAj8uwFDj8XvNZhngQTBwJvPPAVfuPU9SV6pHE4iIBGQCEwPAZlqeXr4TfduSRCmi+AU72expg+fVwV/BHAZMQQqzkMwdwlUhxMmExopCkWBIfXAchOIYSySQIeDIAYWaYj/zqRJphknBTD0w2TBwBs3r8VnPrhlijOVzSUCEoHjFYET5dCxLNY0t+9ASRCSjD8JwofOWoRYzEBumoIAPOhf9R5EvdmIiwfKYS9CgoIgEi7S+Ovib8qQi8EiCUfIgm7oIgbB1HWhIDBt87kbV+AT7700ySs9voejWlNXt0+UbHa73cMW09bWjp6eXixeXCWyYTY2HkRZWemkF8xS0Mwxn5eXe9Q9L7/8KtatWzOpvvbt24+KioWTastGkUgEnZ1dKCwsQCgUQm1tHXJycpCfnyf62L//ADIzM5GenjbUZ19fH2IxHVlZExfM6e7uEffSZTbzV/JN3v79+1FWVjZL65l5hE7EHiVBmNunKglCkvEnQfjgWVlwKCay0nLQE0uH6cpEZPmFMFKzoTo9hxUEigLCiSDcB0JAgB5Pnyw8CPyd8QiMPTgSmyBIBAmCEYu7IXQDZ69bgluuenOSVzoPhpuGTSGmNTW1KCkpRkpKChKNcWtrG7q7u7F06RJBEOrrG7FwYdlRC6Y7yeVyitcbGhpF2/LyMkEOBgcHBUEg2bAMNNtt3foSNm5cPyp47e0daG5uEWSkpmYvMjMzsGhR5aSBDodJEDpRVFSIYDAk+uCc1q5dLfogIcrKykJGRvpQn729vQgEAnC53PD5vBgYGBAkYrSLhIPrYxti5nTG104so9EYHA47+vr6kZaWKl7v7x/Avn37sHLlCui6Lv7Ntjk52Ud1n/go+SyIwZ49NWL9vb19Ys52u31MLHbu3IUlS6qhafGU4/39/fB6vcOMfzgcFrhYBKmujuspH7pn0kDLhjOGgCQIMwblMXUkCcIxwXbsN5EgfOCsLGR7bUj1ZSCmp0Dx5aDfvQh6yTIoeVWI8VSDsPlxV0JuqgtZPu5iTXT2BdDeF4AhFAVTtGPAoiJOMPAeKgiAftjVwNdPXb4QN15y9rFP+iS8czIEYcGCYhw61CRcOzSGlZVHdvO8f+/eOlRXLxqVIHR3d8HtThGGKlEFOBaCQON68OAhcD6WARz5yGj8uMMnIRiPIASDQUF8rH5IENraOgShoTEmqdiwYd2Q4ef8fV4v/IGgIEFUVUhkHA4H7HYb0tLShPFvaWkV4+7evQdLliwW9+/Zs1esf/36tQLH+PsXKCsrAedBY00SRLWD67PI0EsvvYLVq1eKufC1pqYWFBbmDxGSWCyGSCSKlJQjys9IgrBr1x7xvDhP6yJ5IgEjYeElCcLcf/AlQZjbZyAJQpLxJ0G45qwKVBRoCDoXwh3th5G1HsjOh3PZmTA1FxRTh6aaqMxLx5vXLUJ22vAo3q5+P/68dTd2H+pGJGawZBPcSgyaaWAgpkA3SRDiwYtGNIaNS8pwzQWbkrzS2RtuGsLApCc1FkGgseOun4aTO//a2n3CBUG1ZsWK5Whvb0dGRoYwVq+/vgvLly8Tu+fm5mZhnLOzs8T90WgUAwODQronQaD839XVhcbGQ8JgUqa3KrHzd47b0dEpDCWVBxpcS0GgQaTaQTJis9lE/5b7gu4BxrHQVVBXt1+QCBrqbdu2H45lHa4gdHV1Y9WqlbDZNNHXaASBf6cawPXQSC9cWC4MPN0XdI+QINCok5Tk5uYKVwaxKi0tAQ1zVdUiNDU1CRJA1YDrra9vEOPx3zTc1nq59uzsbKEWsG++/uqr24YIArGjUS8oiBMEtvf7A52YMJAAACAASURBVGhsbBRqBdURPpPe3v5hCoJFEKjmUBmh+nA0QdgnFJGxSNek30zHccNkfNbGg0cShLl980iCkGT8SRBuOLcYDruKwtxKdEdNZOQsRCynGK6C5chcUA6324EzlpZhcUnusIOOI6e6u7ENf32lFoMRHdphN0OMwYkkCEYU4f4ehHu6cOrGtbjyjacleaXH93CjEQRK63Qv0DjS+I0kCNx501AzxoBGk8acRu3AgfrDsSWm2NXSJZGa6hsiCGzL3TQNPe+lAefvLpdLGDv+nS4NGmsaYUr0NKQjCYLHkxKX3nfXIC8/Vxg2GkAabBKRpqbmMQkC+6MhJUHIzc1BIBBEVVWlmA8VBO70aeCpElCap1Jw8GATBgcHBMEZjSDwXsY40PhbBGH79h1ISfGgp6cHXq9HYJBIEIjv4sV0Bag4dKhZEBv2z3FXrVoh4j2ohFgKgtfrE9jE5xwQ69N1xoXECUJlZYW4h0pBoovBIggkWiRTxFoShPn3mZUEYW6fiSQIScafBOE9b6hEZno2It4CxA7uRqrei6jmhqe4GoZvCT78uTtQWVY0Ljmw5Nimzh488ewO2J1OIXUbZkx8QbbV7ED3jqdhttdh80Vvx3W3fmHYSmsPNOLmz34VA4N+fPuu27Fu5ZJJI7G79gCuu+1OdHb14I7b3o9rL3/LuMlMDja34isP/Ajf+OLH4EyQdCc94Bw0JEGg0aZB9/l8wrjSqNOA0djSSFE+p9GmgsCdLY0UX6dhpB+bvvFNmzYOEQTLUNPIJxIE7lJfeeU1sQPmvTT87IdGleORMFiKQSJB4Lw4F/5HYkLfP8fbvbtGJJjhrphBrzSQVC54r6UgvPbadoGqFYPAXTkNNsflOqhC0CCTCJEg0KBzziQsFkGg1M9YA+74RyMIVDwYG2CthQSD4zIBDuMhxiIInCuDQDkO8eU6qTYwuJIqC+8tKVkglAM+H+Jszbm6ukqs2yII7CMcDsHpdB1FEHJzs9He3inupWJCUjbcxSAVhDn46A0bUhKEuX0CkiAkGX8ShIvO2YDcdB+0WAg+vR6V6TYEwgYCYaDqnGvxvju+PmxWbX4gb5xcIa/U1GNXc6dIthSNhNG44wXU/PE7cDg0uB1enLJ5Da791PeG9Xnvdx9DdkY6sjLT8Ldnnsd177wEv/nTk9BUBTdddyWe/s9LOHCwCReddwb++s/nkZ7qg9Nhx9WXXYQ9tfX42Bfvx/13fhSfu/e7+K9PfRi//N3fUJifjXdfejF++sSfUN/YhI/csAV//Pu/UH+oBY1NrXjk3jvgch7x+SYZ+ikNF1cQ9grjYxlXytg02Na/uZPnLpUEgcaF93CnmkgQuKNvbW1Fenq6MLo05tylWwSBpIBGmgRjLIJQWFgoXBSJ43LHz12vdS/nQIJAI0wjFz91oIg4ACoZ1r2pqakinsDpdAgXA8ddvnwpdux4XZAaS0EYjSBQiqey4PF4UF5eCvr1SRBoXKlW8F6ul/fS+JMQ/X/2zgM+rupY49/u3apV75JtWe69N7pxgACmE6rpBAgQQgsdEggd8mgBUoBAePQXQksgIYTQHALGGBt3y5JlSVbv2/v7fef6WrvSSl61lWSfSxzLq3va3N2d/5mZM0NAoLLXLAixAIHQwja8N1JGGoBRydNlwXF0Or1wx9BaQuuIBmIaIBBWeE9dXZ14Npyrz+eFXs856gVccC6EF66Hc2NQJOeqgRmfDS0mDNjc310MvfrQDMLN+z4gDLUTp+eHNjiAMLzXPAhv4/i7FEGK5x+LDJsVUxYtQ7h6Hezbv4SvtRL6tGLc8Ke1sCRF08DiPwG3HAicOAkwxDhB5nC58Z/NJQiEgO9XfoRdq99Hc9VWBMIGeLxtWH7cKbj8ly9ETfKXD/8OJx69FJnpqbjx7sdwwRkn4t0PP4XD6UJhXo6AgtTkJCyaOxPbyipw+zU/xqN/eBkvP3UvyitrcN7VdyArPQ0HL56LLdvLMX5MIVZ/vxmP3HmdAISX3nwfP7v4bHzyn29w69UX43///LcRBwi0INDE3RkQqDi4k40HEKh8qIyolCKVH3fFqqIeWECItD7QYkDFqQKDOmcNELTgPMZCUDFTuWttNWVLxc3dP++lBUEDBLpYjEYVhAgIXIcGAlpb/h0JCJQhIYmw0tmCoI2rnerQIKonQOC4kSAWOS6tDoSn7gBBgwttzhIQ4v/+SvSd+z4gJFqivRtvcAChd3PYr+4mIFx/wZGYPutAzD36ZLTt2oF/PXMLjMFGTFx4Mi6///Uu8lAeBPQ64IJZwP1LgawkQInIwsyUpBu3l6GhqR7vPfcAKkrWwWZLRTjogdVfhyVHno9Lb386qt9nX3kLVdV1SEtlBLoHC+dMx8t/eR8NTa344eEH4Ktv1+NXN1wOi9mMn972IF568h5cduO9+N/f3I2dVbW44e5Hcck5p2B7WQVqG5rg9viws7Iat197iejnu/VbcfSyA7Hqu4342cVn4s33P8bvH7p9RFkQGBhHJdMVEFQrQH8AYbAsCJ3dEzTLExA6WxAiAYEKkxYJzXXSoWxz9wRdRgICrRK0ThAuNEDoDBedAYEWBVoBFMUwqIAQaaHpPyBkymOOvfx2dgeA59cBR40DPi4HGt3ANQuBTyqA4yYAn1UAK6vU77J6J7CqBlhWBLyyCbAZgesWAUkRp1UlIPTyAQzw7RIQBlige+uOgPD6U3dg3OTpGD3tALjdDnz5/qto2PY5DjvxUiw99YqYgKClTRqfDlw5H7hucUelBpq2v/rkHVhzirD2P/9A2Ybv4XI0obF2F8wGFw5Y9iNc9PNHo/ptbm3DXz/6Qphcjz/qUKzftB2PPvMyzjr5aJz7o+VY+fV3WLdpG4467ACs37xdWBs++HglTvzhUrTZHfjXF6tw7A8Owj8++RJHH34g/vzeR8jPy8bhBy3EG+98KHzg0yePR3VdAyp21WDC2NE44tAlMOw+h743OQ3177UYhFgWhN64GLqzIAw1IGguBir5DkDI2hPwR2sHTyBopzISAQhazEV/LAhDCwjSdLq1Cbjqn8DdhwIPfgVkWoHfHw3c/hlw/+HAU98C/y4H/ngccOcXwKlTgDm5wA3/Bq5dpP4caSWVgDC034QSEBIsfwLCl397HnljxiAjr1j4SwN+H5pry2G2ZWL6/KU9AkKyEbh3KfCzhdGA8NHLd2PcwiOhhx7ffvEJPnv/f6EYDKiqbsZRy0/CFb/4XY8r3Vq6EyVlO3H8UYclWCLDc7jIGARNyXM3zmDB+AAhXQTYMYq/oaFBHMPTAhz7GoOgzYOmd7u9XQTedY5B0BSkpmy7syDEAgSuKzIGQTP589imCggp4qRATxYEtuE6u1oQ1DgCxip0uBi0xEvRQZnxAEJ3MQgdbVNF/EisGIQOF4O6LgYrMhBTxiD0/7PoDwLvlAD/qQIcPnUjMzULuPnfKiC88D1QlAr8cDxw9UfALw8GsqwqIDxwOGClcSrikoDQ/2fSnx4kIPRHen1oS0D49PUHMW7iRKTnjmMpR+gVBaGAHw5PCJNmHxoTEFLMwBFjgV8cDMxVM+PuuYIBP/758m2YtfCHwhXx5b8/QMmmtahusCNbacNBJ5yGo859oA+z3X+bDH9AsEfFL2hBih2AQCCpFZH/sVwMEhCcIl9FNCDwdIoaQCqDFPv22d/SBDyyCjhzqupKqHWq1oS7VqogMC8P+HspcM0iYF098GkFcN9hwF+3A+fNBExqoss9lwSEvj2HgWolAWGgJBlnPwSEV+8+EzNmz0f2mOlQDMbd0dkKdtXW4YDjLurS08zngHsOA44eF+2f0250OVrx3/eewqQJc+D0eFFRWQmPvQlr161GYX4OLPkzcd7lN0f1W1VTJ+ILsjM70urGWgJjDOg/zs/NinOF+8ZtEhDUZEvq6YL+WxC0VMiMCxi+FgQJCMPt0ysBYWifiASEBMufgPDgivEYXVAIdzgJtoLJMFvMMBl1cLXV44hz7kLRpOm9mlX51tX49xsPwGIxwO5ywu9zimyMbqcb6RYF4+YfiyPO6pQHoawCDc0tyExLQyAYFEcaR+XlQK/oBTQ0NbcKc/D3m0owfuxouD0eTJ5QjFH5Ob2a20i9eaAAgUqWLoa8PDWnQX+OOUa7GGJbEHgPTy9wPJr0CXfMUdD9MceAKEjEQk3aaYbu8iBoLgbGlzA+gcmLGKRItwOPG/LEQ+RR0L0fc1RdDJprQ3NP9MfFwPwIPAbJvAnduRjUmhIOcapCWhCG9ydUAsLQPh8JCAmWPwHh5pMKYUsOw+0NIGg0wGLUY1RKEswGC1qUcfjZPX9EavaYuGZmb2/BA3f8DDU7voUfbiDgRLrFC5Pih9MThsWiYOGhZ+K8a56P6m/VdxvQ3NqOvJxMZKSlorauEZkZaahh1r2MdJEtsL6xBW3tduRkZWBXbT2WHbxI5EPYHy4NEJjfgDtonqtnyt+eYhCoLBn0px6/U2MQtOx/PHYXCxCodKlcmYhpb3kQOgMCkwSxX+1IH5Utx2NKZfbLWIHOiZKo/DkOswYyD4KWKIlVJHkqo+c8CGoMQudESfn5uUIZE0yYU4FgQPnFCwgzZkxHVVWVyCcRKaPOxxx5RNPjcYvAWkIFgYTKPlaipMrKyihAYPIkrp3JxNgPs1uqeR+aRJwIgYJypMWEkMEEUQQsmQdhaD/tEhCGVv4SEBIsf5FJ8ehxKMpLQW6qGZkpFqRajHD53WhwumAPJqFo6vFYcfnNSLIl9zg7Jor51T33YP23HyPF4EVGegoCOgtaXDq0tjnhdrbB7vBg+fLj8OtHnozqi/UBmKpRLS8dFglzFL0iFIZOrxM57YOBoGjDf7OCJC0KTDYTde2jgdtaquXRowvFLpk7bB4N1ACBhYSoGEtLd+ypxcAUwazNEAkIWiZFypOwwb6Y2bA3mRSZrpnKkPkGmFNBDVK0ix0/0xCrNRE6Z1K0xgSE7mox0MpAhdgdIPA0h5bLId5MimzD/AuMgYidKEm1IHROtcxaDbyorNkH4ygIGwQJFlBilczZs2eKYlgE2Z4AgW0pM0JR51TLEyaME8+Tlgv+njJmQqqOYk0yk2KCvx67DCcBYWifgASEBMufgPDnm5cgGPRilyMMuw/w600IhjNgTh4LxZoMry+I7PxCnHLa6ZgwceKeKnXaVLm7qSgrxd/+8iYqKqsQ1BvQ3NqKmtoKmBQXsmyAog/BGdDB69Fj+fITcMV1dyV4pSN7uO6KNTHzHpUWd9KdazFQgXFnyrZUclqxJlofuOslhHFnz2RBLAOtFWtirQXuvmnuppKaMWOa2M3SVM4MgDTpM08Bf88dNqPtOQ8CAqsZdi7WRGih8uPF/rg7pgJkOed4ijUxGyMLJ3GXHlmsibUZmDyK6x49epRYZ2+LNTH7IlNHE0ho4ehcrIlyoOx0OgjlTRAjBDEnxbx5c8T9XIdWi4FZJinf/Px8MWe6VJgOWrMg0KLCZ0LLQaxaDByPLg3VqtIUNyDso1w87D60EhCG9pFIQEiw/AkIt5w5CR4lG2FDOvTGZFiTM5Celg27hyVuA6LQEnfsJrMF+aNGY9qMGcjLzRGxAjyXvnHDRjRU7IAZrLsQRFCvwGK1wpaahYbGetQ1NsLjccHnd8DnasSxxx6PW+58IsErHdnDxVPuuTMgsMohywyrJwTCewCBkqDVgM+KClpT9qJct04nFCB/JhCsW7ceixcvjCk87oSpWGkCLy0t6xYQ2E9kGWN2xp16dXWtUKBU0HQxsBiS5mLgPVS8tCDQYkFlyysWIESWe6Z1gPEIjP7nz7NmzdjtYmDrsDDfc2wtDbRW7pnWCsYwMGgx0oJA2KFZnwDGkwQskMXaIlo1R/a6t3LPBGi2NRiMwm3CZ8K1xQIEyp9r5d+9AYTu390SHQbyky8BYSCl2fu+JCD0Xmb9akFAOO+MU0VBGbPBiMLRoxAMhtHY0oJAMASLwQAWcGZNBH7VOL2qK2DMqELxpdkglL8fJoMBuUl62Ax6uH1e+H0BhBQDsnOykZWRhY0lJeJEQ7sniIMOPhC3335bv+a9vzWOBxBYvZEKltUZx48v7iIiKhzuwiMBgcqPriG6C+gTZ6VDWhC0a9Wq1T0CAmMVWAeBLgXNghDvs6EVg2BAQODOnLv/zoBAlwD71S4CAsGEVojx48fv2b3HGpNlnbk+jpGSkioSMAlMCIcFFFFZb9tWIqwevAg5tHAQSAgQlAvnQwDq6WJhK7oYOH/2RUsDYY1WgO4uWi4iAYHuCcqRn0Pt4lxooZk+fap4iVAhYxDifXcNzn3DCRD2R/QboYAwch+VKPd8wQoRX8Ajju12F7x+H4yimIxO7GTo66eJ1R8IwxcEjEYFY0aNgtftQkMT0xp74WMGPKMeGWYDzAadWirY64PPH4DBZEJ6RpYw4foCAUybNQdXXH3t4HyC99FeOwMClQdN+7yoRLhj3hsgRIqGO2UqPypfDRCo1Kh4GZwXDyDQdM4ESenpGUIJs62mbON5DLEAgTERdB1oCjEWIAQCwT2g09M4tG7wFAPv1wo47W1eWlIlxmhw50+5073S00XYYHAiwYXuAQaG0mLCPrq7aHmjNYOfr3gvCQjxSmrw7htOgDB4qxy+PY9QQBi+At3bzAgI559zFtwuj1Deer0BFpNBBAhCYaIQ5qrXwx8Iwe3j75l5DkiyWAQ00HxMGHC4PeDXYbJJgc2og4kWBx5t9PoEQIREcKFBQMgZ55yHM889b29TG7m/HyRepJxVWItWKnQV0KetZhSEeB6aST4eIVIJEhbYd+crlnuguz77My7nwPZ8r2nz0P4dqWg5T149KV9tfrw3nvvikdFwuKe38h0Oc97X5jBsAWGQvnOG2/OTgJDgJ0LT7jHHHA2/zy/SLBuNepgMRh4nEBkVrSYzAqEgfIEQAv4wDEZFKH4Ld0g6HYIhKqcQXB43Av4QjIoOFiUMi6KHTseywWrpYI/XK34OhYEjjz0ed9x9T4JXKoeTEpASkBLonwTqGprFUWx5DY0EJCAkWO7+QAA/uewnWPvdGhgN6g6SVgQmKKIrgf/5ubsLhnfXsNchGAjAYurwlRIAfAE/fIw74K4NQVgVBUaFYWFB0HzAcbw+P0LBMJafcCLufujhBK9UDiclICUgJdA/CTS3tIn8LPIaGglIQBgCua9duw633XorautqoBAO9HpR5VDkHgiHEAwxsEuNrmZcgt/nQ5LFLKwM4ZBqJeB/Xq9fnGwIBgMw6PUw6cIw0Boe5v/CwoVBM+nyE07APQ9KQBiCRy2HlBKQEuijBNxuLyxmY0xXXB+7lM16KQEJCL0U2EDcTv/vrupqbC8tQygQED5uzc9N1xYz3PFSX1ejwAkPQvfvVv78IRQOi9/xNf6O96pnH0RrAQnhUBg5uTmYOGnyQExd9iElICUwYiQwsh3lRoNhT5zPiBH5PjZRCQj72AOVy5ESkBKQEpAS6L8ERjZe9X/9YpsZ5hZUXlICUgJSAlICUgJSAlICERKQgCDfDlICUgJSAlICUgJSAl0kIAFBvimkBKQEpASkBKQEpAQkIMj3gJSAlICUgJSAlICUwN4lIC0Ie5fRgN/B3AXtdifsHhd04lSCegpB4UkFnXpaQa/XQf1PLbesnnJQ/62edAjtacc2vETpZoT39Clei/6/AV+L7FBKQEpASmDAJSBSbpvFH3kNnQQkICRY9owJbW13wB8MQNHpREpkanrmQWCiJKHQeWxRp6a3pdLX0tfyb/5Rjzaq6Xo1MBANxMWjjepPhAz1b7UfeUkJDBcJyAjxeJ7E/i0lZoPl95bZZIpHWPKeQZDAMASEfftDweyGje1tQmmzQJPY9YfDIBoQEqjoBRTszoGgKna1LLAGC2oe/aCaByEUhk+kXxZ2BTXREjMt7W5n0OmQlpwCc0QmxkF4H8kupQSkBKQEBlwCjU2tyM7qqC464APIDnuUwDAEhH37ibFYU4vLAToSqPqNigIDiyrpFQTCVPZ6kRnRqAShgx56XVikZFbYQmRbhGohoPUhFAKNCIEgUy6rp1UdPrfIsOj2++HyeWE0GDE6Kw256TKf+b79zpKrkxLY9yQwbIs17XuijrkiCQgJftAEhHqnT40zEJaCMPS7YwiMeh0M0MMTCoqaCkadHiaF5Z/VinvifqZjDgIeYUEA/CH2E4aiYzHIEBQGNej0+K6kHBvKd4mqkJPH5OPoxbMTvFI5XCIksG/b22JL0OFwwGazoampWZTgjqwgyRLYLIudnZ0Vl/hZYtpoNO5TVSjjWvgIuUkCwtA+KAkICZY/AaHK7iMeUI8LJU9bAr/oaR0w63Uw6wATiyoI5c+KjCHhOqAbwpZkhV6nCIuBXs90y2phJrfXA0/AD683gG8378DK9VvF7xi+OG/yOFx0/OEJXqkcbqRKoLq6RijM/Pw8sQSPx4P2djtyc3OilkQL1o4d5RgzZjRMJhNaW9uQmpoSU9k6nU5x7+TJk8Tffr8f06dP65NiXrv2e8ycOR1bt27DpEkTxdja1djYhJqaWsyaNSNqrhpMdI7FqaysEusym2Uw3HB8v0pAGNqnIgEhwfInIJTYgyJAUR9mXEEYin53HYXd1gQTYxK0okvhABwuJ0yKHgGEYNTp4HD7UZiVBqvZBF8gCLcvALOioKSqBi9/uBJ2h0ucciBxMEbhgJmTcfmpP0zwSkf+cFQ0WVmZe4I8acXpfFFJlpdXYPz44oQsWAtOjTWXWBNg5U/OkbvkyMvlciMpyRr1mmaN2LmzQlis+KetrR05OVlijQsWzOsCCFTShIeFC+ejrGwHxo0rFkXGeHFcEV+jKLDbHUKhU3Hzb5/Ph/nz58UEhPr6BjQ0NGLGjGkxZbp69RrMnTs7ChDYn8fjhcvlAudfVDQaBQUFYnzCyLZt2zFt2hSsWbMW8+bNEePX1dWLcWbPngmLxZKQ5ycH6Z0EJCD0Tl4DfbcEhIGW6F76EzEIPgKCejRR2A8YgMiIA10IgWAIwYAXfr8HFoMRFrMZDk8AVrNBuBj8gSAa251oabcL18OO2mZUt7bBEAqirHwnWhw8OqlWfeR5R/Z7yLyZuPSUoxO80pE9HBXL1q0lKCoag6amJqF4pkyZLJQQTdw0TefkZMNut6OtzY5x48aiqmqX2E13vhoaGpCdnS2eM9vxT2pqqlBe7Jfm8s7Xrl3VGDWqENwRa2Z0KuK6ujqkp6eLseO5ODZhYOzYIlHZk/PNyMjAhg0bkZKSIuZLEKJpfuLECUKRNzc3CwVqtVrhcDg7AUKHU4MA0BMgsC37SU9PE0qbu/ieAIG/J9jSOtZbQOAaKioqBdCxHw0Q3G4PysvLReBuJCAQGIxGA1paWoVVg1aSlJTkmM8iHjnLewZHAhIQBkeu8fbaZ0DYH32f8Qq1p/sICDx9GGXqZE4DnkwIB9HS7ka724VkiwlF+QXdHk/k/X/97CtsLK+A1+dDdV2DKO/MqEWjYoDHGxT/TrKYcOCc6bjstOMGYvr7TR+RgFBdXS0UdWFhgVCmVEJUfDTBl5SUCmVdVFSEdeu+F6Zq7nxZ4YTHTKlsqexnzJgunmV9PXetTcJETgVbVlaOCRPGdXnOmzZtFiZ4KtbRo0eJXTh31tylE1o4l8iLfUX64vk7ms/5OoFEVYJeATsED5rpeVFhb9myTYDDAQcsxrZtJcLawN11bm4u2tvbxXq57smTJwo44UX50DpRUrI9yoJQXDxWAAnbcd0FBfnifvZPJTxr1kwBFV4vLQhzo0r5cr5U5LRsxAIE1fWhQ2XlLthsSQJeaEmgi6E7QCCAcX2UPYGa486ZMwvbt5eKdRIQcnOzUVfXINZHeOLcN2/eiqysDIwbN06WGx7CT70EhCEUvizWlHjhExAa21oQDIVgMCjiFIPZaERTux0tTheqG+0oysnErAlj1WOPPVw+vx8fffkN3vr3F+LkA/vklzZghM/nV2HBZMTShXNx+ZknRPVkdzjx0edfw+Fy4ZjDD0JudvynHN7752dYdtBCpCR33flqgzS3tuO1t/8uYiaOO/JQ5GRl7FEsH3y8EsuPOARfrVmPScVjkL37d4l/Gt2PGAkINTU1QmF1BwjcaXN3zjZmswlZWVnCNG+1WsRxVO7iaXpn8Bx3rVS+hIK0tDRs2rRF3EeLAkGjtrZOQMbOnTsxd+6cPYDA50nlTitFZ0Dg2FS6tHBo5n0NEETejdY2ATONjY1izN4AAoGGSrOlpUWsn2MTjjgP7tSTkqioHXtcDBxfhYscATQZGelCCScn2zoBglcACO9nv4QY3k/rQWdAINgwYc7atetEIjGOrwECAYSWEFpAIi0IeXm5Qo5paaldAEFrq80tEhDoaigv37kbjLLEc4vXnTOc3r/7ylwkIAztk+yzBWFopz1yRxdBio11aHe74fJ5oA8rqG1xoLqhDTtqGmBCGPf85GyYOvmMu1sxFdBvX30DqzdvE8cd01JTRZZGDy0VYQUGo4LDFs3HFWefEtXFi3/+G77ftA2HLZmHyROKsXFrqThvPGlcET778lsctGgORuXn4t0PP8XieTOFYvvv6nU44ailuP6uR3D6CUeBgEIT7jHLDsbOqmp89tUaWC0WrDjlGGzZvgO33v8U5s2agtLyKlxzydnYvqMKBy2cjbOvvBWXnnMqtpdX4tAl8wTUHHHIEvznm7VCyR56wPy9wtFgvwNUQNgmdt00PXcGBCo97qZpIYgEBO5mGZBHszoVc05OjgAEKmgqTs0ETpM/lej69RsR2p3HggF+WjBdc3OL2NHTgqDtkPl7zeVAhTpt2lShfKnoOFcqcs2ywN02/3AM/k1oIWBQKScnJ6G6ulaIUJyO0evFDp9tOUeeANAsCLEAgVBDJU3fvgYIXB9lxPXFAwiUK6GBLg3GL9B6oF66KEAgMFRWVgowqyiZMwAAIABJREFUoYWmMyBQznwOfA9FAgLBgPJnfEFnC0J3gEBZ0XpAeWuWE2lBGOxPWs/9S0AYWvlLQOiP/PvgZyEgbKiqhNsbEIr8k283o77ZCbfbAZMSxCPX/BiFnfzLj38DnDENKLDtzn/Uac5llZW4++nfC9cEcyroQjoEAwEo/FnR45BF83DVOWdGtbrz17/H8T88DIvmTEdFVQ0OOOEC3Hb1j/HuPz7BvJlTUV5ZjZOOORxP/+n/cPeNV+DxZ19FanISfvfgbTj5outxxCGL8dq7H6J4TCGevPcmXPPL/xG7aFoiXnzibgEIN9/7G8yaOhE19Y2YOG4M3vzbv7Bk/kys21iCn150BrZsL8e20p2ob2rGjVecj5/cdB8uO/dUXHPpOUixJfXnyfS7rQYIVDJUmJ1dDFTk3PVTkfQFELiLp8LfsWOnAASa1rnjJVww5oCAMHHieKHc09MzQDeHNg9aAajQeT9dCLQecQ6asqWC9vsDqK2tFSZ+1S2iAgLHpGlei/zXlDz7Y/9cFxVlLEAgKNF9QFikIo8EBG3OHW1jWxAUxSDcBDT1a4CgteWun+uhAmdQJC0qfA60DhAoaHGLBQh8Rtq4GoBpgEBw4ZoIQZqLoTtAyMzMFMBHGamAIC0I/f4g9bMDCQj9FGA/m0tA6KcAe9ucgPDHletQU1WFml01aGprRyjoF7kMJhZk49EbrurSpfIgsLgA+OlC4Nzo01viXvb56+eewzcbNwqrgdVoEdYEs8kAbzCIQxbNxXUXXBDV78O//RMy0lKx9MCFaGltwzk/vR1rP34Dp158PR656+f4xUO/xT03XYFX3v47MtNSMX7saPzto89x69U/xuU33SsA4b/frsfs6ZNw0tFL8do7H2JUQS5OPuZwTB4/VgDCFbc8gCsvPAMLZ0/Dr3/7IuxOF5KsFtQ2NOH5x+7CE8++itOWH4FX3vk7lh28CJu3lQloeODWnyEzI623oh3Q+6MBIVuY5yNdDP0FBJrFaZpXlXxsQKByo8uhsLAwbkAgENBUT8vFSAQEzYLCNRCEWls190TfAIEBoD6fF3o9T2WoMQgSEAb0oxLVGWNvVlYBU7KArU1Akxs4ejxQ2gJMzwZKWoDNjcDBo4FACNjSBEzOBL6pUVPMHzsRMEd4ViUgDN6ziqdnCQjxSGkA76EyP++hZ+Fub4HP60JYBxj1evi9Hpx55KG47PRoV4AwAz+oFmjidWQx8NxyoCi1Y1KMPfjNH1/Ap9+ughLyQKcPISstA6GgD06PHYcuWoIrL7g6ahVlO6tw2U33or6xGXf9/HLc8dDT2PjZX/DKX97H7Q88hRuuvAAWkwn3Pfk8Hrj1Kvzfex+BbT75y7M48yc34wcHLxIxBLOmTcTxRx2Kp55/A+//ayUOXDgb77/0G2wr24lHn3kFf3jodmEpOeuKW5CRmoKc7EwRc/DqWx/glGOX4awTj8br7/0TM6dOwF3/8wfMnTEZzz1yJ1KSh48FgTvZzi4GFRC407T3yoKg7VIHCxC03Xh+fr4ABEJNpIuhfxaEFHHqYjAtCJFumA5ASBbxC32xIEhAGMAvrzi6+roaePC/wLULgd99BywpBC6bC9z5BXD/4cAfvgNqncBVC4HbPgXybMCKacDNnwJnTQfOmgaY1VOy4pKAEIfQB/EWCQiDKNxYXRMQTrrpLuECYAbFcJjBhH4EvD789Mwf4Yxjux5HjAQEox44bybw7LEd7gbudp956Wl8s+5f0CkB+P2Ay+GDNRUwmRUsnLEMPznnpkFbKc3CN97zOCaMHY2augbcfdOVI744VKQFoSsgqOZ6mrHVYMSOIEUtBiEtPQ1tETEI3NnTGqCZwOMBBJrcqTA7LAiqJaOriyEoAh3pYtAApDMgaO4JukVUy4VJnLSgm4A7aoJOZxeDNr4WpMg57w0Q2Ibr7BqkSCXvRrSLIVm4SiJdDNGAoMYRJCcPFSBk9v8UQx/ckIP2QU1Ax21e4I7PgUX5wHslqtXgzkOBm/+tAsJv1wAbGoDHjlQB4b6lQLIJuP5j4IHDAWsEHEhASMAD28sQEhAS/AwEIFx7nTAJhMNBGIIu4Vd1eTw4+/hTcPnZZ3eZkQYIaWbg18uAU6cAmRE5bqig//DSI1j5zT8BXRABP9MyhmAws46DDgcv+CEuPeu2QV2pw+mCx+tDWkry7h3moA436J33BAgdsQDdAwID52ge14IUOwMCd/JU6B1xBMEuMQidXQwaqMQGBMYg2PcAyPAEBM/uoEgtBiEaELT1dsQRaC6GwQIE9XSGdoqhawzCAADCoL9Th9cAa+uAKz4EVkwHPiwDvEHgT8cDJ70JzMkFpmUD72xTAeGtrQAtDi+dAPz666EFhP2M4+J+00hAiFtUA3MjAeHSK6cgyWqFXgFMzJekt8Ab8KFozMG446ZnuwyU/qjqx3t4GTA2hmve7XHj4d/dha+/+1ykcE62mWAw8nibFyFfGEcuPQY3XHFXVL9ujxeKXg/TXqo8Ol1ucaKAO8796RqpgMAdPN0hPK0Q6WIYHhaEvQMC506LhWYpUWMQJCDsT5+9yLVKF0Minnz3eCQBIRHyjxiDgHDV1dOgGI0IB4IIKwYRqW0y6qAL2fDAff9Aenpu1Kz+th1YNhawRWfL3XNPSWkJfnzDFXC42oTrwmI0wO3xo93hhcmg4LSTT8b9t9wb1ef2HUyw5EdWZrqIeGcsQmZ6qvDzJicliYBCAsR367dg9Kg8ATRZGWniz/5wDTYgcLdM1wRPGKgnEbpaEHgGnzkYMjOzRJBiPBYEphGmiZ/ug5EICKrLwyaOLBJqeDKG78++xiDQ1cGjoLFPMUgLwnD/LEtAGNontA8AwsgyDglAuGoq/EE/dAhBFzYjJdkMs9kIfwDIzpiPX/7qRXGMLN7r4acewfOvvgB9WA+fnhUdQ/D7wrBYmGpZj1OWn4x7b7k/qrtVazdi09YyTB5fhBlTJqC13QGjUUF1bQPyc7NBywG/mMsrd6EgNxvrNm3DxWefHO+URvx9GiAwxoCKKjJIcSBcDNF5EFRAYDIgHkHUfPJaHgQqN2Yl7AwIhAEGS3I+TAvNY4jMF8CL+RMIH1qQojZnrTARd+i9jUHQEiVpWRijjzmqRwR7jkFgJkW1FoOaB0F1MTAPApMTMWkS5xSZKInwxLUwQ+PA50GIBgTNtdFxzFG6GIb6gywBYWifwD4ACEMrwN6OTkC4+ba50EGBOMIAI5KMmbBaUqDXWeB2B3DYkSfjiB+cDqOx5wpzfr8Xn336F7z4yqPwBHVweMJwun3wBsMswwC9wkAHBccfdQJuuy7agsA8B3QdGIwG+H1+NLa0Iis9De0Op1BUqSk21Dc0i2BDq8WMQDCIrIz0/cyCoNZi6JxJkcqWiYq0VMudMymqkfM+EVvCRERMlEQg0LIr8ggfizvRlM6Uykz5yzZMqUxFyf6YqZDFkbRUy0xIRX85QSF2JsUSTJkyKWYmRUJEfj5dD00iRoE5GKhsqYw1hc0gxc6pljsHKUZmUuS8GEDYOZMi19J9kGI0ILA+BYNxqPy5PgJGrFTLDIzkOLEyKXKOVOgEjshESYQpvnf5++4TJUUDAlMtR2dSlIDQ2++3gb5fAsJAS7R3/UlA6J28+n03AeG6mxbCqsuGPmRBWmYODIoBfq8LGZm5qG/YhYbWKhx++AqcefpPoRhi+xW4s3rnvcfxycevwmhScx7ownoECQYGE7weHwKhMHxeCxYsPBaXXjy4QYr9Fsww66CnVMudAYFKl0GIVERaLQaet2d8B087MGsh6zNQYXHnXl/fUamwtHQHiouLulRbjFWLgVaM0tKyLoDAuRJYOHZkjQ9mJ+TvaJ5nISYmHKJS7w0gMAaAwXs8XcDETfxZ1A0JBOH1elBRUbXHCsA6EYQcnpKgwufxSkIUlb6a7KgDELSaCAQKbc6EIvbbXS0Grof30jKi5TIg4HDdnF+sYk2xajEwAyULOJnNlqggRQICA0DpkmCtBlmLYeg/lBIQhvYZSEBIsPwFIFx3IEy6TKSl5CC/sBgNdZVA0I2UjAK43XbUNpXA6WrDqNwpOOW0q1BUNHk3KIQRCPpQU12K9957GvV126EzeuBnXQdaJEKKqORoUgzCtaAY9Kz4jNnzjsHZ50RbEBK87BE3XCQgMN0wd/8s8qMVIuLfo0YVCGXCn1nNkcqbirjzxV0/d99UblSUVJ50I3AMmth59LDzRWU7fvw4oQy5C6abgWNVVVWJAES+Fs/F6o+sAcG+6BJQixPl4PvvNwhLEefLrIXM4EhlS4Boa2sTylx1ATj6XO6Za1OrOWagrKxMyLCnao5U8gRf1erSu3LP3VdzdGP79jIh+67VHFmsiRkrJwio4ckTWiPkNXwkIAFhaJ+FBIQEy5+AcM3lRyMjPR9FY8fC5fWirnoHdH47bBk5SLZlweN3orqxHC5HJcJ+K/LzJsBiSUYw7EYA7WhrrYPBHESyMYVnJeEN+KE3hhAMh+DzBkXJXO7a/L6Q2JEddOCpuOKKxxK80pE/HHe0WlllKq3IQkja6qjQqGDpMkjEpQU0cucdz0Uo4HuBMBB5EQK4W451cSdOIOF61XoSWWKNdHlEXnsr98y4CkIQ+6ECpoWlJ0DQ+qYLpreAQEsB4ze4XrWg1WgUFBQI4CDssGpmJCAQfGgd4Tis10DXgryGnwQkIAztM5GAkGD5C0C4bDlSkpMxftIUMH/AjrJNMOgDIj++2ZyClNQ8OH1OrF3/CTJTjEgym6FHCqDnFy5dCHqEFB/MFsBiSkIwEBZ+65AujGDICUVhNUcPdPCJY44LFpyCFedFBykmeNlyuBEkAQ0Q6C7gReVLUIhVYpoBh7RO0MzPWAcWjupcdpp99AYQ9iaq1avXiDLPHHvSpIl76kqwHWtm0JpAEIm8aJ0g7HWeG2MpaI2RgLA3qQ/N74c1IIys+Pg+PUAJCH0SW98bERCuv+JU5OZkIzc/D06PB63N9fC42uFyt4uTCAVjimE2p8IfCGJX3RY0tpbBqrPCZjNB0dngDzsR1oURAo/GJQM6LxSdEWGdDwjqxJeg1+uHojPAaNBj0eLlOOf8+/o+adlSSmAYSYA7f1o/NPdLZDlmgghdGYyziOeie4g5PmRJ53iklfh7hjUgJF4cCR9RAkKCRU5AuOHKk5CVk4eszEz4QiFU7yqF398mjjy63AGkpqRg9OixsFiSREno8soS1DdugdkURIoxFxZTClr8NUA4hDD0opaDxcIAxTAM+iQEg17odUkw6AzCmjB3weE4/4LoREkJXrYcTkpASkBKoNcSkIDQa5ENaAMJCAMqzr135vX58OCvLoPf7UNOYQHsdifKdmxFONSMlNQMWJRkeL2sepiK/IJiuNxOOD0O1LfUobl9B1KMBpiUZCiKCcGQH/6wBzpDEEa9CWG9DiF/AAYjrQgGBAIhhPx6LDvidKw49469T07eISUgJSAlMIwk0NDYgpzsjGE0o/1rKhIQEvy8GbT1z3/+BR9/8BpSU7NgNFvQ2NCMraXrkJWVgrz8UfDZXSKi2qAzQ9GH4fI44XB50dTegEZHKUxBJlayIsmUgrASQkjnQyjsg9FsBELMgaCmUPYHvAiHvDjk4LNw4Y+liyHBj1oOJyUgJdAPCfh8fgRDQVhlAGk/pNi/phIQ+ie/PrVmdPeWLd9j6+YNMJqMoNuhqbERbme7CLhikiKD0QSjwSyyGzKRUSDoF4mPmttb4Qs4YFGswoqg6A1guWcef9Tpw9Abg0gy2+D1OhFGGKGgEcVjp2PB4iP7NFfZSEpASkBKIOESCDPw2oIkqzxdknDZRwwoAWEopS/HlhKQEpASkBKQEhimEpCAMEwfjJyWlICUgJRAVwnsB2fr4nrsUg5xiamfN0lA6KcAZXMpASkBKQEpASmBfVECEhD2xacax5okf8chpH7cIuXbD+HJplICI0UCifygJ3Ks3fKXgDBS3ohynlICUgJSAlICUgIJlIAEhAQKWxuKRx0bmlpQtasWwRCxEGDhZxUQdeo/1P8TtRbUG3Si4AzbsowwqzDp9MzHrwAIQRcOAkEeC/Lv7iUsmup0QHp6KkaPyh+ClcohpQSkBKQE+iCBMKAYFFGSXl5DJwEJCEMg++83bsX1t/0PtpVWIBzWiQ+CYAGdDgqVfjgMk9EEfzAkqjGy+FIorENIr4PJZIZBZ4HOmgmjOQU6YwbCATf0vloE2nfB5/cL0gj5XQghJH7+0YlH475fXTMEK92HhxwCc98+LE25tH1dAn34vDAPAouMxartsa+La7isbx8HhD68Kwf5ybC64orLbsbbf/scOr2CkA7Q69TKeUE1cbLY+Rugh4E5DhASgGA0WRAEYLQkw2hIAUw50DNzIu0H3haEPbWAxwlLchoCoRBcrTXQBYMw6BX86KQj8Iff/WqQVya7lxKQEpASGFgJNLe0IzOjazn0gR1F9tadBPZxQBh+D97t8aBw+tFwun3CFRBWFJEQSa8YoNPrWV5B/GzSm6Hz+xHQUcnroCgWwGCE3mCDYk6H0+dBdlo+vD4ngs4qhLwO+LxOmCw2eP0e6EMB+Dwu6AGcecoR+P1TshbD8Hs3yBlJCUgJ9CSBuoZm5OVkDpqQht8WctCW2qeOJSD0SWx9b8SsiRkTlsFgMAE6PcKgi8EkXA2sn0AXA0sw8d8pFhO8gbCwFBiNyVAsKcINkWRhzQYLgkEPWu3VCNjrYNCFBFi4fC4Iu0IoBK/HBZvZipOWHywBoe+PTLaUEpASGCIJyGJNQyT43cOOKEDYF2iPgJA68UhhNRDBhnQx6I1Q9CbodIoAB71egT8UgpEWA70FBrMFVlMKQuEQTIoFNlMSvN5WeN0NcDgbYdAFoA8bEAiF4Q25oAuHEfL7EQ6FoA+GcPqpR+C3T945tO80OfqgSaClpRUZGem96t/t9mDr1m2YO3d2r9rt7ebKyioRSFtUNCbq1hCB1euF1WrdWxfy91ICeyQgAWFo3wx7BYR9QSkPrYijRycgZM44AWApZh1PIuhgVMzQ6wwIMQLBbGa0IrwhHZJt9L1ZkGRJhc1oQ9DXDn3Aj9zsQugVP7aWrYLL0QSz2SwAweP1iHoMOl0YYboZ6MQIhXHyST/A00/Iao59eR+0tLQgI6N31eQaGhqRk5Pdl+H61Gbt2nWYO3dOr9omGhCcThfKysowa9bMXs2zrzczwK2tra3Xz4EQ097ejpycnL4OLdsNoAQkIAygMPvQ1V4BoQ99yiY9SEC4GGaeCMVggUExspwSDCGDsCgEwGBEK4JBwGpOBmxJGJuThwPnTsS4wgyEgy6U76hBfV0I7V5gU+n3YNBCKByA39kiTj3wQETY6wLCPgEIHo8bZ/zoh/jNY7fJ59JLCdTV1aGychcWLpwfd0vunletWo0lSxb12IbgUVq6Y0/fLOBVV1ePgoJ8cZy188Xf8/VYEd09AUIgEEAoFBbVPSOvRAOCw+HAli3bupUloSorK7PL+ijPpqZm8btYculOyG1t7di8eQsOOGBx3M+ON7rdbjQ1NWH06NG9aidvHhwJSEAYHLnG26sEhHglNUD3ERCy5p4GRTHCaDIjHPDDoiQBYT0P/kJvZPUyBYtnF+OCM36AZQdMRnpqUtTodrsH33y3Ey+88Tm+2VCDUMCJgKcFIb8P+qAPBp0fHo9THHOkm+H0k4/E44/eNEAr2D+6oWKiQuMudPbsmeKUCSttxrqovF0uF1JSUoR5nYAwc+Z0WCwWKN2c4+4MCH6/X4w3Y8a0mBDQ2NgklHxqateI7p4AYdeuajidTkyePClhgODxeDB+/Liote8NEEpLyzB2bJGQc+RF18TOnRUoLh4rAWH/+OhFrVICwtA+dAkICZY/ASF/4ZnQMeYgBFiNZhgVKwJ0MTARkt6IQxdNw1N3no38nLQeZ1ff2I6f3v4q1q7fBr/XBYsuBJ+rBXUVX8NksiEpbRR0ejN+dOJheOKxmxO80pE9XCQg5ObmCMWcnZ0Vc1EOhxNUcHPmzNoDCHRLjBpVAJvNFrNNIgGhqmqXiAkghFABFxYWYKAtCGVl5cjISANlUV1dg5kzZ8Bm6wDbeACBMiNQpaV1QNDeAIHwwHEIYzxCnJ6ufmY0C0JeXm6v4EJaEIbX5zaxgCAd6p2fvgSEBH8eCAhFS85HWEe3ggGGkAKjMQk6sxW+sA4Zael47bGLMHNyYVwzq6lrwYrLH0dVVR1CHjuC/jY4m7ahpbkcWTmTkWQbg1NOOQKP/s8NUf395f1/4aU3P8CE4tE4YP4s/Ob51/HnZx6GZpIuyMtG5a5asWu98Jo7ccMV5+Gz/67BrVdfDKfTjZY2O/wBPx588gXcctVFKMzPweaSHbjjoafx7guPISO9L2eXh88HlIDAIL7WVtWPzcDRcePGora2DikpyaDiojLJzc0Fld/27aUiDkCzIFBR8Z5p06ZGyZ27ayovWhxoOtfcF5oFwWw2ITk5WQQdRgb00YLA8ajYmRlTUQxiHrRqrFmzFhMmjIfRaEBSUhLa2+3gOIQBtmHgYFZWljCd5+fnITU1BRUVVWJeHItjUsFynXa7XYxBy0lhYaEILOQ6FEW/JxaDrzHuJfLavr0MmZnpYKwBrRazZs0Qc2Nbo9EorABc78SJE0TyG47HfngP175jx04xDyr5oqLRQo4cg+23bi0R70OusfNVXr5T3Mu10lLCexh/UFlZKZ4dwY79am2bmxlTki6sERyXf0daLSgvPmO2o1tDXgmUQIyPf2IBIYFrHSFDSUBI8IMiIIw98CKE9EYY9HpY9GYoOgvMtjQEwiE8cttpOPGouVGzWl0LLOwhU/I/Pl6N627+PfR+P3zeVtTVrIbL2QiTKQlmUxbOOvsU/O53v47q88nnX8e/V67CpeecgrUbS/Din/+KX1x7Ccora7BmwxZcfOaJePDpP+G4Iw7BXz/6HL+47lL867Ovcc0lK3Drg0+isakFRx12AD79cjXycrOQlpKMFJsNb/7tI7z4xN1YOHdGgiU7sMNFWhCoOOkjpz+7J0CYPXuWUKxUaOnp6WhtbRVtampqhdtATZMNlJdXCCVttzswevQoEXfANlRYVHLcSfM13sMdOZVWTU2NUP4EhbS0NKHIMzMzkJmZibKyHQImfD4f5s2bg82bt8JqtQjFzCsSEKj4CDRUmkzIxTHZL/sbM2a0WB/7VeMhCtDY2Cgggm3oaiHcNDQ0wGg0YeLEDoUdCxDoeiEEcI6MB1ChxSjGnjp1ipj3qFGjUF9fL8ajnLk+Wmo4L45fUVGJUCgIj8crxuPaqdQZSEgQ4N9sw7b19Q0CgChXg0ERgEALjs/nxZw5c1BVVSWe44QJ4wQAMMbE7w+I8SgLAhdlTehgv9OmTROv9Sb2YWDfhbI3CQhD+x6QgJBg+RMQig86H4qSJOIQzAYLjIpNuBZG56Xi4zdu7DIjw4PArQcBVy0A8mJYrJtb7Lj250/g2+9K4Pc50Fy3AV5XIxzuVpGM6cILL8QLLzwX1W9TSyv++Nq7eOalv+D0E47CN+s24uUn78MTz72Kj774Cmcc/0M8++rb2PrFWzj+/Gtw1cVn4m8ffYFbf3Yxzr3qdrGje/23D+Cq2x/CQ3dcgytvvR/nnnocnn/9XXz42tMj/ktVBYStQiFqgEClTQU6ZswYocgDAb9QRjRjc3fMNtwR83caIHDnSkCg2Zx9UcHV1tbuAQR1lxxEMBgSO2YNEOiCmDRpIqqrq0Ubmu2pyCIBQdthUxETEDRo4C6ZipJ9URFyR69ZEDRA0OIpIgGBO2a2pUuFCpvWESpvAgsBYfLkiSJOgpYKvq+0trQGcKefmpoMr9cv5sw+qLC5W+cxzORkmwAEWj6Y18Pr9YnXxo0bJ+7nuihHjst50IpBedMyo7ZVrQ2EF66NcEEAoKVGs/JwPP6ea6C8IwGBpxIIb+yHLgn2xWPGtKrk5mYLqwufGZ8VwYyAwHlwft3FkST4q2PEDGf3ARYD4AkAgRCQZga8DLze/Zo7AKSY1DIz/Jn3OllCBkC6Wa0fo10SEIb2sUtASLD8CQjjD/sxDASEsB4WkxWK3gK9IQmnLZ+Lu35+YpcZKQ+qH5r5ecDl84HTpgCpERZe7oLuuvs5vP3XlQj53Giq34qArxmt9npRAur888/Diy/+Karftz74Nz76/CuUV1bj/NOOx/1P/hGnHvsDfL1mPQrycjFtUjGef+1dbP7iLVx56wNItiXB6XLjjmsvwXHn/gyHHbgAhy6eD7oqHr7jGlxxy/345fWX4bKb7sUfHr4DS+Yl5jjbYD2+zi4G7jw1QKDiIBCoisQulDNdM7EAoTNcRLYlXPQECJrCpKmfSrS3gECY4Zyp9OIBBPbPdcUCBCpXbf2dAYHwoIFAR9vOgJAsTtR0BgTKjoDDcSMBgf8mGNEKowECFTXhgvVI+L6m/DoDgibfzoBAFxHdJAQTAgItMx1zzkZdXQdcSEDo+6dqZxvw9LfAWdOBN7cA6RbgivnAi+uBn8wD3toKbGoELpkLfLAdaHQDJ04EHv8GmJ0LXDZPBQkJCH1/BgPZUgLCQEozjr4ICFOXXgIoVlgUMwyKCRZjMqzWVFxzyVKccVLX43EEhN01HWHUAz8YC7x/Bms4qANSMd19z7N4863PEQq40FC/Hg57E/x+NwJBX0xA8Pp8cLu9YjdIn7Dd4RSV04L0N+v14mevz4+01GS4PV6hAGkmr2tsxk9vfQCTiovg9HjwxN03IslqhtPtgc1qQbvDCavFDHM3Ef9xiGhY3NJ3QDAKP7xmQRiugBDLxdATINCiQXO7y+XuYkGIBAQqeYJJVwsCAYEWBFXJaxYEKnlt1x8vINC1QLeIaqmJtiD0BRA094Q2DwkIff8IVjuA094GfnMkcPtngMMPfH4OcPMnwP2HA499AzyYITqwAAAgAElEQVS3FvjP+cA9/wHuOQxIMQLX/gu4d6m68Yk85CstCH1/FgPRUgLCQEixF30QEKYvvQSKwQyT0QYDQcGcCovBjCvOPwQrTj8gpgWBgGBSgMPGADcuAY4a13Ebz7nff98zeOftlXC6G+HzuuH2NKK2doso9HT++ed3sSD0YspRtxIgGHeg1+mw9MAF+2yltViAwOh/7sY7dvKq26BnC0KO8NnHsj50WBBCYhetuRg0RUVTOpWtZkHQYEOLQYjlYtAUZH4+3SG14sRCpHsiVgwCd9S0hHQGBE1h08WgAkKKCK6MZUGIVPLxA0JyF7cI23Yoec2CoMIF4wroFmCshWYF0ABBs1z0DhDUddHFoFoQ6GLRLEPSxdCX74gGJ/CHtarLoLIdOHYCcNIk4LK/A5fMATY3Ab4gcO5M4L4vgcUFwPETgV9+ATxweLT1gONLQOjLUxi4NhIQBk6WcfVEQJi99GKRKMlsIiAkId2WCaNOj6OWTsEN18d2MRSnA3ceAhw3AcjqlK3W7/Pjnrt+j39++CXa7LWorPpeRN3bnc27XQwEhBfimt++c1P/TkRIQKjfY/InINAnX1xcJAIsBxIQCCWMnWAMggZEewMEWjIICWrcgGpBkIAwPD65rR5gXT0wIQOodagxBgsLgNU1aqxBthWoaAdm5QJNbqDaDiwuBOiamJzZYRWVLobh8TwlICT4ORAQ5h96HhSDDSaTBTZDCmzGZKQkpyA304Lf/O4nYqcUeQmT3VFAYXLsydbW1uPGax/Croo2bCz5HMGgCw5niwgc8wdiuxi2lu6ExWwSxxOpDHm8jG4F2vfoYqClQAcdvl23CVlZGSgqzINiUNR79oMrFiAwyp8WBOYU4E6aSoomd+7sGVxHxUkTuhbwRv85o/V37dq1+yQAgwZTxI5eO8XA0wZ03TAoL9KCQOvCpEkTxL2MxGegYWcLAoMDeXEeWpAid/2Ml2CAIXfd9N8zD4Jm9eirBYFuhClTJqGkZPvuAFSd2M1z/klJVhH8F3nMkcpei9PgWhgUGOli4Lz5WnFx8Z4gxUhAoAti1KhCESjKUxRsyzVSBoQBnppob29DcnKKiFPYGyDQCkMIYT+0hHDOtNrwNbalW4gxCXy+XJOWbpkJmmJlr9wPPgLDYonSgjBEj2H3/koCQoLlT0A44LBzoCgmmHQGpKfmihgEm8kEe1s1zj7vKKy48ORezerll17DL25/CBPHHoyS8q9gd9ShubVmTx+xghTXb9mOiqoaFObnIis9DdWMOE9LgdPlQW52Jlrb7SLwYcv2HSgalY/q2gYsO2SROM64P1yxAGFvxxznzJkt/OIbNmyKOuZIBUZlyj69Xs+eY44MlOPRPcYrEAAY7c/2aqS+esyRipcAwCN5VFRU/pqLgQqVZnEqUS1nAjMxqsccrQJYeESPRwXjAQRmW+SRSI5L4CEQUckTXAgILOxEIKLLhDEAHF+7mCiKCjYyD0L0McetQjlzTjZbsjhqyLHy8ggSTcKVEnmKgickKAMes6SFgG2ZU4KKnWvicUTGxTQ0NIl7NEDgnCkv3h95imHevLliLTzCOHXq5D1HRgnRWqErAlfkMUceW+Vr8pjj0H3iJSAMnew5sgSEBMtfAMLhK2A1WGDRGZGanIWw1wODEhBHx3bVluL5l5/ErLnT4poZTb5LDz0KTocLM6ccgVZ7JSp3bUKrvUkcn+OX23nnndslBuHrNRug6HXCl+vz+7GzsgZjRuUJnx8DE3OyMlC6oxKhcBgZaangvCdPGIsxhR1KIa4JJvym/rkWtOl2BgTu4rUdbryJkhixH5krgH1TIVF5cefKY3mdEyVxd8tnQiUdmYyI91Px8cQKEyVRQasBf3p89906kZiIEMJIfVqD7PZ24WYicEQCAvMuUClv2rRJHDOjUuZOnqZ6jkelbm+3o91uF+vleJwzd9VaQiH+u/OuOhYgcI6UIy8CEKGDkMG2/KP1wxgaFnJi3gb+PHasWglSu4dWC/ZF5d/5osLnvDkOlTtTPBNitERJXBefndaW61FdJGpwr/gSjDhXxz4IHIQTLY9Ewt/CcsA9EpCAMLRvBgkICZY/Fe1hh/8IqZZ0GHUs56xD0O8RlR13NZSibGcJzjntUlx13YWYOWeKqPYY6+KX25dffoXLL7sS9jYvWloaMH3yEjQ1V6O1vQmNbTUIh4NQ9EZccMF5+OPzzyZ4pSN7uEhAYKAfzdzc2ce66G7YubMS06ZN2ZNJkTtaKmLueGNdiUq1TBcFgxVpyueOm1Ch5RkYyHLPtABQEdNaQhCgJSMyE2Q8qZYpM0JNZIrmvaVaZp4Gs9myO2tjcE9qay3VMl0EdLvEawWQqZaH1+dWAsLQPg8JCAmWPwFh+eEnQlHMaGppQ0qSFRW15UhPy0FJ+fcw6k1YPOMwjB8zGoctW4LlZy5HRna0Yqqva8Bjjz+Bt958GxU7q5BkTYLT3Y787FHcdiEtOQMbtn6HEHywGJNwzrkr8NzzzyR4pSN7uEhAWLBgntjNdpcwR8R6+P17drIs1sSMhtxxd+e/TiQgqEmOElesibLo7LuPBxBksaaR/ZkZjNlLQBgMqcbfpwSE+GU1IHcSEH54wGGorK6GLSkVdq8LLe2t8AU8IjOfSbFg8phpmD56AnJTMhHUBTFp1mRk52cjGAqjrqYOn36+Eh+v+QThUBiKXoHBaEQwGIASNiCs6JBiTUZdcw1ENaiwDhdddAH++Hx0JsUBWcw+3gl91vST0ywe70WwWL16DRYtWtBjEyYeonuIBZ54ETJ4xI4JjeLd7WoD9FTNsbtJDHSxJm0cyosyYCBn5LU3QKDlgQGUnYGKfTFgkL/rjVzYhumr9/YcOstHWhDifacn5j4JCImRc3ejxAaEgXHjDu3KhunoBIQpY8bD6XEjIyUdlY01ws8fCoaoJoTfc0zuaCybvgi5SenQIyy+cHmmoN3nhS8UwLfbN+K7svXCfZCRkYnWtmaRl4AwYDQZYbOmwe5sg8tjF1I4//yuMQjDVDzDblr04XdXkbG7yfIUA2MIEnWNBECg4mWBKJ6ESMRFdwpjEXr7HNR2rphltRMxbzlGtAQkIAztO0JaEBIsfwLCqOwCuLweBEJBhokCYUa4h0S8gVUx4aAp0zFj1AQk6XTwIYjCjGzYvX6sKd+G8QVF+MfaL7F5104oegNMeiP88Iv2YPloq0WAg8PlQDCkJjiPdYohwcuWww2iBGjS721AXaItCAJyafFS9IMoCdn1viYBCQhD+0QlICRY/gSEjNR0BIIhhEQQdVjkGxA2Ah1gUUyYMaoQBxePRyCswy57Ow4dPxUlDbUobWrE1Pyx+GDdKpQ21ULRKUizpaLZ3tgRFa5TkJWWBafHCZfHKQEhwc9XDiclICUwcBKQgDBwsuxLTxIQ+iK1frRhXYPCgkIR7d2RdVw9qWBkKtkwMDW/AIcUj8HH23eg2e3BZQcdiq92lsLlDSA7NQ2fbl0Pu9sjwIJH20Lh3aXQRI9qMqMwwggEpQWhH49KNt0PJSC9q8Prodc3NCM3J3N4TWo/mo0EhAQ/bGYovOjCH+OVV14WgWnqpZpdGUfAL6gUkwkHTx6PjzaVISPFhrxkK2wmI5w+DyzmJHxfUSlyF2iXTqfGKXRcAh2EVYLXvuJikF/eCX6zyuGkBIZQAvxOa2t3ID0tdjxPf74P+tN2CEWS8KElICRc5MCO8p145H8exZrv1oiz6aolQVXpvJJMTKEbgscXEFURGb2dkWSBSdHDEwigts0uAhs7Lg001FfYEy9aEXgdffTRuO22W4dgpXJIKQEpASmBPkggzE0PYLGYhiDVtcSHPZvPcPTWsw9PUjbpiwSYa56R3ZoSj+yja2okTeWrSj8SDeIZ22Q0RiWtiaeNvGe4SmB//PLaH9c8XN9//Z1X/M+SG6PeHG3t78xk+64SkBYE+a6QEpASkBKQEpASkBLoIgEJCPJNISUgJSAlICUQnwTiNwDE15+8a1hLQAKCeDzyXT+s36VyclICUgL7jATkt+3IeZQSEEbOs5IzlRLYPyQgNcj+8ZzlKoe9BCQgDPtHJCcoJSAlICUgJSAlkHgJSEBIvMzhdHvwVXk53lj9HZpDflH1z+f3QWdQRHZEkTM5EEDIF4AuHEZAH0JRWhZsRjPa7A4EQmG4EUTA74fX64UOISjBMAKBIMIBv2gOswk6i1n8fFBxMS5desgQrFQOKSUgJbBPSSBR1p1wGAaDAqvFIk8yDOEbSAJCgoXP5Egrt27F62vXYF1tK75prEIwGITeoEBvNCIcDCLEo4zBAFKTkhHy+WEMh7C4qBhOrwsOfxBVDS0IBv0Ih0JgMaFgwAdjIAy/P4BQwC+KOFqzMuE3KDAFgRULFuD3F52X4JXK4aQEYkggUQpGCn/ESyAQDMLj9iI5OWnEr2WkLkACQoKfnMfjxRurV6Gstg6fNjTiqx0lYsPPYjs+jwfhYBgw6KFXFCSnpMDj82F6dh4OyslHKBxAZbsdJW12WA16tDQ3o621DQ6/BwYfLQoBBMMhWI1mpOblwO10wWw04cwli/HE2WckeKVyOCkBKQEpgf5JQKZa7p/8+ttaAkJ/JdjL9izW9O6qb6F3N8Eb0mNlQzN0YR0sRmBbcyO8bg8agj40hQGbP4xkmxVT8vKRa7DAZjKhsqUJ5Q47alpbYNUZhAWh1dkGvz8Ev9cPndGEbJsNNpsVTqcD6alpOH3+Atx5ykm9nKm8XUpASmBES2AfsNbIYk1D+w6UgNAv+ff+E0hAeO2rDchPNkLvccHld6HdHxTWgXRbKhQYsaqhEmUN9ZieNxoFKTYUJKegvL4OTV4ndDojSurqUd7WhCSDSbgnWpwuVDU0wK/XIysrExlGEwJ+D3wBP0Zn52LZlKm4+fgT+rVS2bhvEmhra4PRaEJSkrVvHQxwK4fDgbKycowZMxoZGelRve/cWYH09HSkpaVGvd7S0opdu6oxc+Z08bp4z7W0IDs7O+q+8vKdol9FYRxN9OV0ulBWtkOUe2aBsWnTpvS4Mt7vcrmQkxM9RneN6usbUFNTi3HjipGaGjt3f7yiJHRv316KOXNmx9tE3jdIEpCAMEiCjbNbCQhxCmqgbiMgvPPNamTZkgGPFyaDEW1OLxRdCHqzGR57GxAKIGyxIOR0w4EAnA4H0qwW8XNKUio219VifWU5ctIy4fd5RBGnyqYm+ExG5CRlwKzXweFxCsVUmJmN+UVFuHb5cQO1BJk2oheSpFJMTk5Gbm7OnlYOhxNU1Hl5uWhoaEBubm5Uj1SMJpNZBGkN9NXe3o4tW7YhLS0NU6ZMEt37/WqgbGlpGbKysqLAgXNpaGhEY2MTFiyYJ+73eDzYurUEc+bMippeScl2oaDZV+eL6+W4hAe9XrdX5cv7W1vbhLJPTY0GllgyIRxUVFRi4sQJSElJhslkirqNSj8pKQl2u0P8vrsUvsw8z3G3bSvBkiWLBlr8sr9eSkACQi8FNsC3S0AYYIHurTsCwn9Xf8MwA5R++znyJkxHRuYotLfWQ5+UioDXC4fLJSqYWRQD3F4nNldsx/wpc1DV1gqrLQXVzU2obW9DSnI6FPhRXlOJisZmICkJhoBauMlkssBGi0Q4iKXTZ2DFsmV7m5r8fRwSoHI0GIxxK++eAIHQsGNHOSZMGL9n5ObmFqGQCwryo3bCPp9PQAUV3NixRXHMNPoWnnax2+0gnHC3rQECg2Y5h6KiIuzcubMLILAseV1dgxi7MyBQeRcXj92jbAcaEKqqdqGtrV1ABy0JPeXl1wCBMmUBtEmTJgoBcL02WxI2btwsrBZr1qzFvHlzYkIM76ecKiur0NTULAGh1++ygW8gAWHgZdqbHiUg7FVavXcj9NQlAWHbhu/hCfhRseZDOD1+jJ1+MFLNQFNzIzyeEEZNmY2gtw26YBizFh4Iq80W1WW73Y4v161Du8OFgN8Fb8CPVTtKAZMVzsYG+KFHekYOUtNTEfJ6ccy8BThi0YK9rnT/uaHvz7S2tk7sQG27nwl3nDTBZ2ZmxBRfd4BAZZ2dnSVM2enpaSgoKBDtV61aLZS3BghU0Pw3FRbdFQSEuXNV0zfH1pRm5M/aRCJfa2xsxPbtZWI3TmWvAQKVKXfLVKh0MWgWBLalcq2trUUoxJ+7AgLbanOhZUADBAKIXq8XfzTLSXu7XYzTkwVBqxvHNXE8AgJ387S0EEQ2bdqMyZMniYBeWjToCtHcGXwuVOx0sbndHsyaNUPIZ8OGTfD5vNDrabnQg6BFYCAQJSdHf67o1qivrxcWElpalixZvP98JIbpSiMBoe+f2ojFDUgnw1RYgzAtCQiDINS9AcK6td8jFHDDmpKNyu1rYUsvhN9eDWdDBZrrdmDywmMxcfocjB7bsbPs3Ce//KpqavD9pnWoqqlFVdCL5nY3fPZ2mG0pyMnMRZLVgpA/gEOmTMXBC+YmeKX75nCRgEAF6XK5UVNTI3z39K939st3BwiVlZVC2ZvNZoTDIYwaNUrskjsDApX26NGjBIR0BgTGBYwaVShiAqhMeV+k/5/ui8zMTPEarRJ0IWiAQMDheIwlYHsCSlNTkzDDs01zc7PYiVdX1yAjIyMmIFDZsg/2PX/+XBFjwN0+AYFKlrvxadOmiv43b94qXosFCIQAs9kkgIQWDQJBLEBYt+57Eb9A1wZhg1DW3u4QwbgEHloRNEAYP74YFRVVYg3xAgKhQ5VRigSEYfLxlRaEoX0QEhASLH9aEL7dWg5vazUC9hZ89eVK5BYWI3d0ISzmJJSs+RDHHr8CU+Ys2WuCEEJCTW01Plj5GRyhIBqbW2D3h5Cfm4uA3YmiMUUiuVJRRioWz58ftdKrf/EwLj7rZNz2wJN44Laf4RcP/Rbvvfi4uIdf0g//9n+x4uSj8cIb7+HU5Udg5tQJ+P3/volpE4tx+MHd+2Y5hx9dciPa7U7k5WTiiXtuxJQJxT1KuXRnFV57+x+49tIVuOneJ3DvTVciMyMtwU8mvuEICNyJUkZUfPw3d7RURAzOSElJEX5wbWcfDyCwL15FRWN2WxTS4XI5heuhqqpaxApEAsKECeOwY8dOWK0WsfPn2IwJ4H2R/n/uqGmJ4GtUfrRWUPlREWs+esYfcEdN0OGOnBCSk5MjlDwtHHV19QIQuKMeP36cGIvz5U7b5/MLoKAyX7hwfhyA4IaiGLrEIFAp8+KcCE1ct9/v62JB0AAhPz8PtKxwx09rDmVDSwXnSkCgdSYvL0/EJBCEYgEC40L4jLgeAhEvykICQnyfg0TdJQEhUtKJN39IQEjUO333OASEj99+FdXbN6KlcjMC/nb49EYEdclwet2YuHg5rrr6+qhZtXiADEv3E1317VfYumUDvAYjdra0Yvq4iWhraYOimJBmNGB0ZhoOOiw6BuG2B54SSv/uR5/BilOOxedff4cHbrkKH372JY5ZdjBeffsfuPL80/HIMy/hoIVzUN/YLBTD4nkzUVVTj7qGJphNRhx/1GF4471/oqGpBT8++2RMHl+EHRW7cOw5V2Hluy/gi6+/w9bSnTj+yEPh8/vx/r++gN3hwu3XXoJX3/oAybYkZKan4u7HnsWNV5yPP/3fX7FwznTMmTEZs6ZMxNv/+ASzp03CxHFj8NKb72PZQQuxrAdAGczHyR0xd6lUKjT5qztNO6xWq3iNwEaLwKRJE4SsqPBoAaDJe/r0qUIh1dXVoby8QrTVLAgabHAXTaVHhcydPXfSVHqFhYWorq4Wu3X65MeMGSUAgWOxLRU7xxg3To0HYMIs9k9AUF0FDqEEecpAsyB0BgSug0DAdWnKVhtfmw+VMUHCaGQQIsfpAATCDdc2c+aMPRYEroVz5rhUyJ0tCGzP2AACCmMvqPgJXFOnThHWmM4uBg0QNDcBQYfuGVogIgGBa6BM+Hp3gMC22ro4RwKRZjmRFoTB/BT1rm8JCL2T10DfLQFhoCW6l/4ICE/ccApMlmR47HUiuZE34ENaahE8fh9uePRV2JKjo7aPeh34+WLgqGJA0XcdoK2lGX99+3UELUlod9iRm5kBvTEJ7W12ZNosKCrIx4KDlkY1fPqFN7B+cwlSU5Kxau1GocAnFo/Bb1/8P2EGnjZpvACEe3/zHP6zai1efvo+vPfhp5g7cwr++elXWDBnOh575mXcfOWFeOcfnyAUDuPhO67B9Mnj0dTShkNOvBDv/OlxXH3HQ7jqojPx7oefiX53VlUjLycLSw9YgMeffQW1DU34w8O349lX3sYjd16Pa37xa/x4xcl49a2/i0DNnVU1MBoMuPayc/CbZ1/FC4//CoX5HScCEvX4GAXPXTgVGHep3QECFS+VsqaAaV2gqV8LRAyFgjEAIYhgMCTM7HsDBJrzaU7nLlkDBFoyNEjh33QPHHDA4j2AQDcBYwvoQugJELguKuq+AAKPTHInz0BGzcXAv7XXVUDosCDwOCRhh+vhPZGAUFhYIORAi0xkDIIEhES924fPOBIQhvZZ7DuAkHjrS5+eHAHh8WtPgDEpDa72Gtrz4fN7YTFlY/ycA3HONb/q0q/yIKDXAZfPBx75AWBUuH/ruIKBAFZ+9i9U11Tg/9s7E/C4ynKP/2fJTCZLs4e2kO50LxUorQhCgULZShGoKBeQ7YoKwsUiiAIuqKACPlyfykW5XPQqKFrhspQdC7VoKVhaSmlDaaVLuiVp0qyz3+d/DqfNMklmJpNZ/9/z9Akk53zL7zsz3/+83/u9b9DbgdLyCnR6gwj6/cgvKMa0GUdjwsSJ3er9zRPP4Hv3PYSn/ud+nLboWry17H+x+Pv347NzjsbTL63ArJlTcMn5Z+EXjzyOvfX7MW70SBQXFeLoGZPx2orVWLRgHr58yw9x+43XoG5PPRbOPxlTjhxrmN8tgfD0bx/Adbfdje/ccDX+8PRLKC4swJFjR+G8+SfjtZWrseXjnbjg7FON/BJ33f8rPPSzO4zr773zJnzj+/ejuNCDK7+wEHOOmYGNH27FAw8/ht8v+XFc3OO9iW/ofCvnVgEXe2ufuz+BQDFBnwSawWmup0Dg27FlArfujceC0J9AoGiwxIv1Ns7FlgKB1gEKnO5bDGZ4br7B04KQCIFgiQv+7C4QCj+xIJhbDF6vz7AqsM/0JegqEKwxWFYAHgMdPboG77233vBBSJYFgaKKPhWR4jrE+zxl+308RPXoOmDuaOD1bcCOFuCm44CVO4AzxgJ/2wEs3wZcPh1o8wMrtgMn1QBPbAQcNuDmOUBB3iFKmSkQMmQxiuJhzB6BEMVg0+ESCoQl31wER34xWvfvNBIt0dQaDIVw2kVfw6nnXxFRIPCRY5lcDiyeA1w185BI4BvryldfxM5tH8DtKUZJ9Ugg4EPIH0RBURmqR9Zg/ETzzLtVaD146oXluP6qi/Hgb/6ExV+5HM+98oax2LPQrL9uQ63xtj998gQ8+fxrGD+6BpMmjEbtlm341LSJxtZCVXkZnn35DRxobcNdt3wNJx9/LNraO/DArx/DrV+/0thSePvdDfj8eafjvod+h737GrBrbz3++udfGVYDt8uFKy4+D79b+hxKhhUbJuyFZ87F0y++jrmfORa//dOz+NT0yZg59Uj8bfW7uPyic5M2jexLbW2tEaeAlgMuskMjEBJjQYhOIJinGCJtMSRCIHBbgqx6C4TuFoRYBIK1PcG4EMkVCOUYO3asBEIMn7gN9cBNrwDfPRH46SpgRCHw83nA7a8DP54LLHnHFAtL5gN3vAGcOQ6YMxK4+TXg+mPN/+YRcKtkpkCIAViaXyqBkOQJokC49+tnw2F3GV88fn87/AEfgsEAzvjCjTj5nEv6FQiFecAdJwDf/HR3gfCP119F0/69xhl997BqOD0F8LY0oqy4BGXVNRg95vAhGekHH27FKytWoaSoEOec/llU9IjO17XRl5b/HRs/2ooxR4zEefPnDkl/Elkp3/zpCc99br65822cAsF6Gzed+g5080HgwhvJgkBnwZ7bE70tCG7jXuuNmo523Nfv6oMweAuCKRC4nREOm455lgVhYB8ECrj2iD4Ih/rcn0A4dIohOoFA/4Kmg/4LgxUI9GtguxxvND4IFEwSCLF9orwB4PEPgI0NwJ424N9nAnMOB259zRQIj6wFSvOBiyYDN1JInACUe0yBcPdcwNMjxpYEQmz8E321BEKiiQ5QHwXC3deeDsCOwsJieL0dCAZ9CIaDOGbu+bjwqlsiCgSa3WaPBO4+2fzZtdAMvnb13409Xi4wnmEVyMsvgN3vRdjuwPAjalBzuHnOXiV6ArTMcGuBTmx0+OMJhWQKhEPbBIecFKMXCBQkuw1R032LIfMEAv0muC1BJ8fBWBD6EgjV1ZVGMKieTooSCNF/Vqwr39sLfPdvwFUzgFc/Bna2AA+cDtz0KlDlMS0Ef6k1X3JW7wJe2AIsOQN44gNzC9XdI3ioBELsc5DIOyQQEkkzirooEH705dPoegBPfhECtB6EAoAtiKKKEbjt50t71TLpIeC244ELJwPF3SPIGtf6vF6sWf0m/Ez5HAjA6XLB5c6HM49viXZUlxZj1Pjx3erdvbfeMDPzBIFVeFKBJn+Px43WtnaUlx46asi9av6urMv1UQw3ay7h2z/3vgcjEPj2TZHB+AWRTzF0tyAMRiDwNMHOnTsN60YyBQKjFXKx5WLc20nxkAXB4ykwjony+GTfPgimBcEKlDRYJ8VYBcKUKVP6DcuciQ93pu2OSyCk9imTQEgyfwqE719pHjm0vNBNRzigpb0Dt97/Rxw+xgwTG21paGzAujVr4IQNAX8biioqEXR44AoFEGprQvXoiRg1ZnS36j7613Y08BhYvgdbt9ehsCDf8AHgqYGZUydix649xpd8fUOTcZxxTM1I43ennjjbcETMxcJz9QMJBJru6aBIMcAgRrt37wWjGITM8T8AABWkSURBVM6ePSuKY47RCQRuedCpsOcpBooOHsW0wgRbxxxNgVBp9MM6xZD4LQYzuFLXUwy0dpAFj2z2POZ41FEzjH7yGCj7HfmYY11KBYIiKab+Uy6BkNo5kEBIMn8KhNsvPdHwP6BXPMUB/9Gc7Q8GUVAyHDf/5GGUVw2PqmftrS14/fXl8HiK4HIXwOYIw+UuBrh1EepEW9MudOzfi7P/7bpu9b215n3srW8wjiXWNzYZAoDOh648epnbQQtDeVkp/D6fcaywvrEZhQUezJgyYcAATlF1PEMvsiwJXKDz8/ONo4M94yBMmzalW6Ak8mSoYBbex9MMgYC/WxwEPgOWr4P1Rs3YAmaGwtHGW7nLlWfcw/9nYCSe8acfBIMV8bpIgZKYRZJHKNkHM1BSfFsM5omMSnR2Mmyx3TD3d42DwDgPFCQMhdw1kiJDGnO8FEyRIinSmtLR0WH4BHDcPGnBOnjEkUGiIlkQ+LkxBHVLa8Q4CFboawqUrnEQuloQyIRsWAcdKungSasGo2IqDkL6fDglEFI7FxIISeZPgXDHZZ81Fhd+0fJL1gqUEw7b4PUHMP3T8/ClG+5AQVH/aWvb21rw+1/+CNs3vYviYeXwFJXC5nJj5qmLYIcTDf9ah/dXPY8JM2bhomtu6zZS9oPH9xx2OwLBIFx5efD6fAgEgkaIZgY1smL50zmMX6g8WsnofelRUmMspUCgkxvnjwseFyEubgyURE5c3Pg3q0QbSZF77NOmTTWSCVEoMDYA98RptaBQ6BpJkXkGaCng4hp7JMXIAsEM+Rw25r+qiqc1zHFakRS5gDLvAq+hox8jDnLLJbZIipFDLbMuLuRmWGS/IYDoS9OXQKAYYYIpfn74DHcN7kS/AZ4+YTApS0RZkRS7CgQ6flIgcDxW9EkyViTF9Ph0W72QQEjtfKROIETx/R7FJamlF0frXJh/8pXTDC9ynkOg/wH3YvllGwwCwVAY7R1+jJk2CxdfczNGjhqHPJe7W0t8q99Ttw1PPvoAtqx/y/iis77k6HOQX1gCd34hmuq3GV+i0+ecikXXfjuO3uqWngR6JmuiuGPEPy7iB0uXB7cvgUCzvykOg0YiIVodWJiLgQJh+HAzmyPrZp4Emul75mLgCQpaENgH/o3m/K4ZDylc+GzwGTgUarl7siYKAFpBeiZr4gJNawdFCP0mIiVrYv+Z84DWDVovuLhauRj4PPPvrJficsuWLcaJj/6SNbFNLtjcjjBzMXS3IKxbt94YD+skV54M4aJOYcExsq9WLgb2h0GWOL5IAiFSsiYypvCgRUjJmtLjsy+BkNp5SJ1ASO24U9a6eczxDDicprtuwNcJm/FuHoY9DITCgNcXQps3AIe7EJNmfgYTph2DomFlCCOMlub9+OiDdah97y10tjTCnec0nA35xUuR4AAz/DGTnhO+oGmdOOr4eRIICZpxLkhcQPLzD4k2vlGbgq93GSjdMzMs8m2XdbIwIyIXSUsgcKGlSZ2mcC5gbN/KoBjLkLjg7dy562DoZSubI8Xppk21vQQC6+YCb2aRPNBnNkemTrZ8UqxsjuwzhQr/WdYULvgbN9b2KxC6jieSQOCCT/HEemlBIRerbSvdc9dsjqyPAotzVVdnnuigAGBOCW61mCGjDxUKDXMLaI8EQiwP1xBeO7BAyMbXyCEEGmPVEggxAhvs5cYxx6+eZVTDhaDD34FggG+RQJ49DG4zIGwzUuwa8f1teejwBY3rff4gnIwiEgrDlWc3vmwN/4UgzdtOY5FxFxYi3+EwopKFDKFgx+RjT8LCK28ebNd1fxwEBhIIXLCsMMxW9bW1m43Ii7QgJLpQKHChtgQCn0FaF7j/z75Y6Z6tdukDQJ8CChQ6ILJwa4Xme2ZV7FosgdA1YZT193gFAvtLB8+BiiUQGMKZ7Vtppq37mPaZJyzWrFlrCKxIfTRFUcBIREVhMWdO30nJBuqP/p4YAgMLhMS0o1osAt0FV3oIhBwSgRQID317kbGtYPgeMOJhKPRJsh8gFAwa6X9Z6IgVCNvgcDoNq0A4yL+HjKiLwbD5BsU9Y37J0wJBweB2FRpffsYbHMJwOtyYNvsUnHvFYn0GUkDAPGrIFMplB1vn2y//0XTP/XLu9SerWAKBRwdHjx7VrVk6MfYUCLQiUEBwS8QSCLQQ8PQBTf1DKRC4RUKhFE2xBMKkSRMNK8NgCv0tNmzYKIEwGIgJulcCIUEg46wmPQRCnJ3PxNsMH4TrzzUWervDAZczjDyXy9iLDoX8hi8CHbUcdifsDjuCwbCxR02LQiho+isw6mIwRAHBrYlPtifsdthtdhQWeYzESRQZ4WAQJSXlmDLrFJxzefcMkZnILhP7zPniPKXL0VD2hycRuCXS8y2aosXYpnJ0j1ZjOg+aDoksljNjTxM97+d2V1c/CGvOKIJpeeDzysfW2lLpa04tx12K4GgKhQw/N9xOGGzuBPpMsK/RC7ccesOJZjISeI0EQgJhxlGVBEIc0AZzCwXCT2/4HIIBP0LhEBw2O2zgVoAN4XDAsARwT5uLPb8c6cRobCvABn5vOx08URBEIGQ6ZvHLmv9vemMzVr3DsEZQRPi9XhQWD8PMz5yFhVfeOphu614REAERSDqBPXsbcFh1RdLbVYMmAQmEJD8JjHT45yV3YMfmdeYxwzwgHAjDFuKGgJk5kOIBMLcdrLch0/vbFATGlkTI9Evg78NBM44CC6Mosg6es6dvA/0QJs86FRdc850kj1TNDZaA3ksHS1D3ZzqBhsZmVJQPbsso0xmksv8SCCmg//HmDXjlsfvh62iB39cOwz5AvwMbTyAAgUAIDkee4UVuCQKKAloU+DtDFHyS75liwBIIhl8DszzY7cZRsVDQrI9bDKd98aYUjFRNioAIiEB8BNraO5Hvzhv0llF8resuWRBS9AzQR6Bx327s2/kvhIIUASGEmZzBKOZJBi7y3IIwj0Dy4EIYdpvN+Gl4Hdg+8UEw/BN5AJK/pxXC/D0dGz+5EcVllSgfOTZFo1WzIiACIhAjgTBPauUZ0UNVUkcgZy0IMt+m7qFTyyIgAiKQcwQycNHJWYGQcw+nBiwCIiACIiACMRCQQIgBli4VAREQAREQgVwhIIGQ1jOdgTaptOapzqUXAT3f6TUf6o0IdCcggaAnQgREQARiIiBhExMuXZyxBCQQMnbq1PGoCOi7PCpMukgEREAEehKQQNAzIQJDQMCIX8Hjp6FDR1DNkMtmlsNoSosPaOoE2v0MmwUUOIGSfKDEbQbYVhEBERCBoSQggTCUdFV3ThJgRsC29g54fX4EggEjjwaFgcPugCvPiYICD/L7SA9NYM1e4Mla4C+bgI0NwK5WIBgGDisEJpcDZ40HrpkJFOiIeE4+Xxq0CCSLgARCskirnZwg0On1or6x+WDo60iDpgWhrHQYCj35EZlc+wLwyFpTFEQqdhswazjwxqWAq3tepZxgrEGKgAgkh4AEQnI4q5UcIMDcGRQHzLcxUKFIqCwv7WZJCIWB25YDP1s10N3m3xdMAB49FyiLpDPkexEdRF0lAiLQJ4HMFAj68tMjnWYE6HNQ39iETq8v6p4xnPbIwyoP+iQ8vgH40rNAwIq6PUBNtB48swg4fUzUTerCdCKg77F0mg31JQKBzBQImsokEdA3WLSgg8EQ6vbsi3i5lZLbaeXH6HJVybAiDCsqNETB114EHl7bu4pjhwNjSoClm3r/bVol8N41/feyrq4Ob775Js455xx4PJ5+Lu57vp977jlUVVVh1qxZRp6QeMqyZcswb948uFyueG5Hc3MzSkqU2S8ueLpJBOIgIIEQBzTdIgI9CRxobUPzgdZeYCgO9u3dY2TiLCvvnde+sCAf5aUl2N0KnPUEsHZvb7aTKoCvfAq46dXI3EPf6n8+Ojo60NLSgjVr1mD+/PlxTd727duxZcsWHHfccSgoKIi5Dt67YsUKLFq0KK772eA999yDSy65BKNGjYq5fd0gAiIQOwEJhNiZ6Q4R6EVgX30jOn3+Xr9v2r8fzQeaMGrUmIjHG+moWF5Wgk2NwNH/DXQGI8P9+WnxCwTW+OCDD+Lqq6+O++193bp1eOedd3DppZcaYieWQpH09ttvgxaUSZMmxS0QNm/ejEceeQR33XWXUgDHMgG6VgTiJCCBECc43SYCXQnQ/6Cj09sLSmtrK/bt24OamlFwOnsvrJZA+Gg/MPs3wP7O3lyPqgYWzwa++qIZE6FnGciCsH79eqxcuRJz5841FuhYC50vN2zYgHfffRcLFixAWVlZTFWEQiGsXr0a7Me4ceOMfkQbC6JrQy+//DI2btyI6667Lu5tjpg6nsyLtZuXTNpqqyeBPp4/CQQ9KiKQAAKMe9DYdCBiTTTvd3a0o6r6sF5/t7YYGjqAC5YCK3b0rmJsCVCaD2yoB7wRLAwDCYT6+no0NjYab+5HHHFEzKMNBoPYtm0b3G43hg8fHvfizK0O+h84HPGdzVyyZAkuu+wyDBs2LOYx6AYREIHYCUggxM5Md4hALwI0o+/cvRfhPmIX9IWsvIzxEDzgEcfFrwEPrI4N7jnjzZMMKiIgAiKQaAISCIkmqvpylgCdFOmsGG1hVMXqyvKD5va3dwEn/g7w9eGH0LNexj949iLg+NiNAtF2UdeJQHoQ0BZMSuZBAiEl2NVoNhLgXjsDJXl9A8dCcNjtGF5daYRg7lqe+RBYuDQ6Ol89BvjP0wFHViVm0EoQ3ezrKhEYegISCEPPWC3kEAGf34+m5lbwJ7cdIhVXXh5KS4rg7iMewL2rgF+8A2yP7NKASg9w2XTgJ6cAzvhCEuTQjGioIiAC8RKQQIiXnO4TgT4I0JLAiIrtHZ3wen1GVkd67VMY0CnR7XbB2Y+jnj9kJml64gPgqVpgS5OZl6Gm2EzUdMlUYPZIoIfxQfMhAiIgAgklIIGQUJyqTAREQAREQAQyjUDkrb00Fwjaj8y0x0z9FQEREAERyA4CaS4QsgOyRiECIiACIiACmUZgaAWCDACZ9jyovyIgAiIgAiJgEBhagSDIIiACIiACIiACGUlAAiEjp02dFgEREIEeBOK12MZ7nyYg6wlIIGT9FGuAWU9AX/BZP8UaoAikgoAEQiqoq00REAEREAERSHMCEghpPkHqngiIgAiIgAikgkBiBYJMnamYQ7UpAiIgAiIgAgknkFiBkPDuqcLsISD1mD1zqZGIgAjkAgEJhFyY5Yweo4RFRk+fOi8CIpCxBCQQMnbq1HEREAEREAERGDoCEghDx1Y1i4AIxEBAtqIYYOlSEUgCAQmEJEBWEyIgAiIgAiKQaQSyTCDoHSS5D6B4J5d35NbCYcAbCKHVGzJ+BkOcl+QUmw1w2m0odDtQ6LLDYbclp2G1IgIiMOQEskwgDDmvBDSgRTUBEFXFJwTaO/145sMwntlsw6rdNuxus6M9YEeyJILTFkaZO4Qp5SGcVBPC5ycDUw7Lg8Nu1xyJgAhkOAEJhAyfQHU/dwnsOeDF1cvsWL7DifZA6t/cHTagyhPCvSd78YUZbtglEnL34dTIs4KABEJWTKMGkWsE2jq8uGZZCH/80JN2Qy9zB/HIGZ1YMMUjkZB2s6MOiUD0BCQQomelK0UgLQgEAgFct8yPX29IP3FgARpeEMSKizswrroQNjoqqIiACGQcAQmEjJsydTjXCby/sxVzHi9Mi22F/ubivLFePHGBHa68vFyfMo1fBDKSgARCRk6bOp2rBEKhEO5c7sPdb+VHdESs8ACTK4D9ncCGemD2CGBHC1DXCkyrBJq9QKEL2NcOVOQDm/cD48qAEYVAYydQ3w6MKQHerwfa/MD0KqDUDfhDwJYmYGwJ8M89wPhSoLIA+LAR2NseeTaOKvfhmQsDqKkoyNXp0rhFIKMJSCBk9PSp87lGwO/348YXvPiv94siDv3cCeaifspo4MKlwD+vBP66DfjLJuDLRwMPrQG+OBV4dw+wtRl4djNw3AjgD+cD178ILJpsCguelLzvLWDhROCKGcCTtcDMaqDJS0dEwO0E3qoDqgqAn60CAqHe3SnJC+L3Z3firMkF2mbItQdV480KAhIIWTGNGkSuEPB6vfj6sg48vKk04pA/NxG4eCpwRBHwjVeBO08AAmHA5QAuewZo6AAeXwhMqQBueBl4Y7tZzc7rgXmPA1ceBfz0H8CNs4AfrASGuYE7TgB+uBJYPAe48w1g6QWmdeGNbYyBAPzyn0AwwrlKHoF8dH4HvjjTI4GQKw+oxplVBCQQsmo6NZhsJ0CBcMPznfj1xpI+BcKFk4AiF7CnDXj1Y2BqBdAWAI45DHhpK3D2OOCVj81tglv+ekggHPkQcNdJQLELWL0LeHgtUJ5vCoRvLQe+9WmgZhjwQQNw9GHAfauAj5rMbYtIpcgZwm/PbMfCaXJUzPbnUuPLTgISCNk5rxpVlhLgCYb/eKETv1wfeYshnYY9odiLPy/owIyaElkQ0mli1BcRiJKABEKUoHSZCKQDATopLl3bjMteLoUvlN7HB+eOaMeTF4RQUpz+YiYd5lZ9EIF0IyCBkG4zov4YBBSQuu8Hob6xCXMeK8DWVldaPy1PnV6Hs46qQp6OOcYxT/oExAFNtySYgARCgoGqOhEYagLcZqjdugNnPj8CO9rdQ91cl/qjW7Ty7GFcMb4e95zqRGlpqbYXkjhDakoEEklAAiGRNFWXCCSJQGdnJ15c34DF/6jAltb8oWs1Ok1wsH2HjeKgAd85PoSa4RVwOBxD1zfVLAIZTyDGD1iSxyuBkGTgak4EEkWgo6MDH++ow/dWl+D/dpQjELYhFLYlLZOjNQ7mbXTYwxiR78PtM3ZhwdQCVFVVKg9DoiZa9YhAighIIKQIvJoVgUQQ8Pl8aGo+gA27vfj7bifq2uxo9dsRTlK+Z24nMN3z9IogZo8I4/DKYhQUFKTAcpDeb2JyqknE0646+ieQ+M+ABIKeORHIcALhcBjBYBD0TeBPnnTg75JRmIiJaZ3piOh0OmU1GEroif/+H8requ4sICCBkAWTqCGIgAj0RyC9V9b07p2erFwmIIGQy7OvsYuACIiACIhAHwQkEPRoiIAIiIAIiIAI9CIQlUCQCUxPjgiIgAiIgAjkFoGoBEJuIdFoRUAEREAEREAEJBD0DMRPQKal+NnpThEQARFIcwISCGk+QeqeCIiACIiACKSCgARCKqirTREQAREQARFIcwISCGk+QeqeCIiACIiACKSCgATCkFDX5vyQYFWlIiACImAR0NfskD8LEghDjlgNiIAIiEB2E9BanZ3zK4GQnfOqUYmACIiACIjAoAikr0CQJB3UxOpmERABERABERgMgfQVCIMZle4VAREQAREQAREYFAEJhEHh080iIAIiIAIikJ0E/h8Al1aqVta30AAAAABJRU5ErkJggg==;" vertex="1" parent="1">
          <mxGeometry x="20" y="40" width="780.6" height="650" as="geometry" />
        </mxCell>
        <mxCell id="f9k1bi6KLL07Mat2R_Er-4" value="My Music" style="rounded=1;whiteSpace=wrap;html=1;" vertex="1" parent="1">
          <mxGeometry x="680" y="100" width="90" height="30" as="geometry" />
        </mxCell>
        <mxCell id="f9k1bi6KLL07Mat2R_Er-5" value="" style="whiteSpace=wrap;html=1;verticalAlign=top;labelBackgroundColor=default;" vertex="1" parent="1">
          <mxGeometry x="100" y="860" width="680" height="630" as="geometry" />
        </mxCell>
        <mxCell id="f9k1bi6KLL07Mat2R_Er-7" value="Upload Track" style="rounded=0;whiteSpace=wrap;html=1;" vertex="1" parent="1">
          <mxGeometry x="150" y="960" width="120" height="60" as="geometry" />
        </mxCell>
        <mxCell id="f9k1bi6KLL07Mat2R_Er-8" value="Your music!&amp;nbsp;" style="rounded=1;whiteSpace=wrap;html=1;" vertex="1" parent="1">
          <mxGeometry x="150" y="900" width="560" height="50" as="geometry" />
        </mxCell>
        <mxCell id="f9k1bi6KLL07Mat2R_Er-9" value="Terms of use&lt;br&gt;" style="rounded=1;whiteSpace=wrap;html=1;" vertex="1" parent="1">
          <mxGeometry x="150" y="1025" width="110" height="15" as="geometry" />
        </mxCell>
        <mxCell id="f9k1bi6KLL07Mat2R_Er-10" style="edgeStyle=orthogonalEdgeStyle;rounded=0;orthogonalLoop=1;jettySize=auto;html=1;exitX=0.75;exitY=1;exitDx=0;exitDy=0;entryX=1;entryY=0.75;entryDx=0;entryDy=0;" edge="1" parent="1" source="f9k1bi6KLL07Mat2R_Er-9" target="f9k1bi6KLL07Mat2R_Er-9">
          <mxGeometry relative="1" as="geometry" />
        </mxCell>
        <mxCell id="f9k1bi6KLL07Mat2R_Er-11" value="&lt;ol&gt;&lt;li&gt;Track 1&amp;nbsp; &amp;nbsp; &amp;nbsp; &amp;nbsp; &amp;nbsp; &amp;nbsp; &amp;nbsp; &amp;nbsp; &amp;nbsp; Select/delete&lt;/li&gt;&lt;li&gt;Track 2&lt;span&gt;	&lt;/span&gt;&lt;span&gt;	&lt;/span&gt;&amp;nbsp; &amp;nbsp; &amp;nbsp; &amp;nbsp; &amp;nbsp; &amp;nbsp; &amp;nbsp; &amp;nbsp; &amp;nbsp;Select/delete&lt;/li&gt;&lt;li&gt;Track 3&amp;nbsp; &amp;nbsp; &amp;nbsp; &amp;nbsp; &amp;nbsp; &amp;nbsp; &amp;nbsp; &amp;nbsp; &amp;nbsp; Select/delete&lt;/li&gt;&lt;/ol&gt;" style="rounded=1;whiteSpace=wrap;html=1;align=left;" vertex="1" parent="1">
          <mxGeometry x="150" y="1060" width="560" height="130" as="geometry" />
        </mxCell>
        <mxCell id="f9k1bi6KLL07Mat2R_Er-12" value="Lenght of song and ability to trim" style="rounded=1;whiteSpace=wrap;html=1;" vertex="1" parent="1">
          <mxGeometry x="390" y="1095" width="290" height="25" as="geometry" />
        </mxCell>
        <mxCell id="f9k1bi6KLL07Mat2R_Er-13" value="&lt;span style=&quot;color: rgb(0, 0, 0); font-family: helvetica; font-size: 12px; font-style: normal; font-weight: 400; letter-spacing: normal; text-align: center; text-indent: 0px; text-transform: none; word-spacing: 0px; background-color: rgb(248, 249, 250); display: inline; float: none;&quot;&gt;Lenght of song and ability to trim&lt;/span&gt;" style="rounded=1;whiteSpace=wrap;html=1;" vertex="1" parent="1">
          <mxGeometry x="390" y="1120" width="290" height="25" as="geometry" />
        </mxCell>
        <mxCell id="f9k1bi6KLL07Mat2R_Er-14" value="&lt;span style=&quot;color: rgb(0, 0, 0); font-family: helvetica; font-size: 12px; font-style: normal; font-weight: 400; letter-spacing: normal; text-align: center; text-indent: 0px; text-transform: none; word-spacing: 0px; background-color: rgb(248, 249, 250); display: inline; float: none;&quot;&gt;Lenght of song and ability to trim&lt;/span&gt;" style="rounded=1;whiteSpace=wrap;html=1;" vertex="1" parent="1">
          <mxGeometry x="390" y="1145" width="290" height="25" as="geometry" />
        </mxCell>
        <mxCell id="f9k1bi6KLL07Mat2R_Er-15" value="&lt;h1&gt;MVP2.0&lt;/h1&gt;&lt;div&gt;Ability to add individual tracks, listen and trim them.&amp;nbsp;&lt;/div&gt;&lt;div&gt;&lt;br&gt;&lt;/div&gt;&lt;div&gt;Can order the tracks in the order they want.&amp;nbsp;&lt;/div&gt;&lt;div&gt;&lt;br&gt;&lt;/div&gt;&lt;div&gt;Automatically fade in and fade out on start/end of tracks (or add toggle to turn fade on or off for all tracks)&amp;nbsp;&lt;br&gt;&lt;br&gt;Tracks play one after the next in the order seen above.&amp;nbsp;&lt;/div&gt;&lt;div&gt;&lt;br&gt;&lt;/div&gt;&lt;div&gt;&lt;br&gt;&lt;/div&gt;&lt;div&gt;&lt;br&gt;&lt;/div&gt;&lt;div&gt;&lt;br&gt;&lt;/div&gt;" style="text;html=1;strokeColor=none;fillColor=none;spacing=5;spacingTop=-20;whiteSpace=wrap;overflow=hidden;rounded=0;" vertex="1" parent="1">
          <mxGeometry x="520" y="1220" width="190" height="270" as="geometry" />
        </mxCell>
        <mxCell id="f9k1bi6KLL07Mat2R_Er-16" value="&lt;h1&gt;MVP&lt;/h1&gt;&lt;p&gt;Allow user to upload 1 track&lt;/p&gt;&lt;p&gt;That track is used for the entirety of the video and loops when finished.&amp;nbsp;&lt;/p&gt;&lt;p&gt;&lt;br&gt;&lt;/p&gt;&lt;p&gt;*Although this would be the easiest implementation it&#39;s very limiting and may not actually fulfill the customers needs.&amp;nbsp;&lt;/p&gt;&lt;p&gt;&lt;br&gt;&lt;/p&gt;&lt;p&gt;&lt;br&gt;&lt;/p&gt;" style="text;html=1;strokeColor=none;fillColor=none;spacing=5;spacingTop=-20;whiteSpace=wrap;overflow=hidden;rounded=0;" vertex="1" parent="1">
          <mxGeometry x="150" y="1220" width="180" height="280" as="geometry" />
        </mxCell>
      </root>
    </mxGraphModel>
  </diagram>
</mxfile>
